RobotoFlexCondensed-Bold.ufo
<glyph name="exclam" format="2">
  <advance width="680"/>
  <unicode hex="0021"/>
  <outline>
    <contour>
      <point x="160.26153846155" y="140.38205128206667" type="qcurve" smooth="yes"/>
      <point x="160.26153846155" y="206.64615384615"/>
      <point x="252.8841837065667" y="302.2641025640833"/>
      <point x="339.90822525153334" y="302.2641025640833" type="qcurve" smooth="yes"/>
      <point x="426.7399591042" y="302.2641025640833"/>
      <point x="520.0472197338667" y="206.64615384615"/>
      <point x="520.0472197338667" y="140.38205128206667" type="qcurve" smooth="yes"/>
      <point x="520.0472197338667" y="73.61794871793333"/>
      <point x="426.92457448880003" y="-22.0"/>
      <point x="340.1543790976833" y="-22.0" type="qcurve" smooth="yes"/>
      <point x="252.8841837065667" y="-22.0"/>
      <point x="160.26153846155" y="73.61794871793333"/>
    </contour>
    <contour>
      <point x="212.50141317753332" y="461.22051282051666" type="line"/>
      <point x="190.9058305745" y="1456.0" type="line"/>
      <point x="488.33626095424995" y="1456.0" type="line"/>
      <point x="466.17913988966666" y="461.22051282051666" type="line"/>
    </contour>
  </outline>
</glyph>
<glyph name="quotedbl" format="2">
  <advance width="853"/>
  <unicode hex="0022"/>
  <outline>
    <contour>
      <point x="100.22914443363334" y="842.5846153845999" type="line"/>
      <point x="81.03846153845001" y="1282.8102564102335" type="line"/>
      <point x="81.03846153845001" y="1456.0" type="line"/>
      <point x="336.01896397275" y="1456.0" type="line"/>
      <point x="336.01896397275" y="1282.8102564102335" type="line"/>
      <point x="316.20007594935004" y="842.5846153845999" type="line"/>
    </contour>
    <contour>
      <point x="536.9788776371333" y="842.5846153845999" type="line"/>
      <point x="517.78819474195" y="1282.8102564102335" type="line"/>
      <point x="517.78819474195" y="1456.0" type="line"/>
      <point x="771.6404920480334" y="1456.0" type="line"/>
      <point x="771.6404920480334" y="1282.8102564102335" type="line"/>
      <point x="751.8216040246833" y="842.5846153845999" type="line"/>
    </contour>
  </outline>
</glyph>
<glyph name="numbersign" format="2">
  <advance width="1496"/>
  <unicode hex="0023"/>
  <outline>
    <contour>
      <point x="237.20256410258332" y="-20.0" type="line"/>
      <point x="623.4575949366999" y="1461.2257383966332" type="line"/>
      <point x="855.2478967867501" y="1461.2257383966332" type="line"/>
      <point x="470.1210710808" y="-19.5" type="line"/>
    </contour>
    <contour>
      <point x="654.4098669263333" y="-20.0" type="line"/>
      <point x="1039.3174618630333" y="1461.2257383966332" type="line"/>
      <point x="1272.2359688413" y="1461.2257383966332" type="line"/>
      <point x="887.3283739046" y="-20.0" type="line"/>
    </contour>
    <contour>
      <point x="133.04615384615" y="355.6333333333333" type="line"/>
      <point x="133.04615384615" y="585.9820512820667" type="line"/>
      <point x="1301.9373482635667" y="585.9820512820667" type="line"/>
      <point x="1301.9373482635667" y="355.6333333333333" type="line"/>
    </contour>
    <contour>
      <point x="207.3729795521" y="856.7436871145667" type="line"/>
      <point x="207.3729795521" y="1085.5924050633" type="line"/>
      <point x="1376.3923790976833" y="1085.5924050633" type="line"/>
      <point x="1376.3923790976833" y="856.7436871145667" type="line"/>
    </contour>
  </outline>
</glyph>
<glyph name="dollar" format="2">
  <advance width="1170"/>
  <unicode hex="0024"/>
  <outline>
    <contour>
      <point x="118.6" y="449.0" type="qcurve" smooth="yes"/>
      <point x="118.6" y="467.06666666666666" type="line"/>
      <point x="407.5333333333333" y="467.06666666666666" type="line"/>
      <point x="407.5333333333333" y="453.0" type="line" smooth="yes"/>
      <point x="407.5333333333333" y="330.0"/>
      <point x="526.7333333333333" y="223.66666666666669"/>
      <point x="632.5666666666666" y="223.66666666666669" type="qcurve" smooth="yes"/>
      <point x="741.6" y="223.66666666666669"/>
      <point x="852.2333333333333" y="326.5"/>
      <point x="852.2333333333333" y="422.8" type="qcurve" smooth="yes"/>
      <point x="852.2333333333333" y="499.1666666666667"/>
      <point x="766.6666666666666" y="582.2"/>
      <point x="559.8" y="622.3666666666667" type="qcurve" smooth="yes"/>
      <point x="364.5" y="658.7666666666667"/>
      <point x="129.73333333333335" y="854.6333333333333"/>
      <point x="129.73333333333335" y="1032.6" type="qcurve" smooth="yes"/>
      <point x="129.73333333333335" y="1229.1666666666667"/>
      <point x="408.6333333333333" y="1455.8666666666666"/>
      <point x="624.1333333333333" y="1455.8666666666666" type="qcurve" smooth="yes"/>
      <point x="849.6" y="1455.8666666666666"/>
      <point x="1116.8" y="1215.6"/>
      <point x="1116.8" y="1015.8333333333334" type="qcurve" smooth="yes"/>
      <point x="1116.8" y="999.2666666666667" type="line"/>
      <point x="828.3666666666667" y="999.2666666666667" type="line"/>
      <point x="828.3666666666667" y="1012.3333333333334" type="line" smooth="yes"/>
      <point x="828.3666666666667" y="1117.6333333333334"/>
      <point x="725.4666666666667" y="1234.6666666666667"/>
      <point x="625.7" y="1234.6666666666667" type="qcurve" smooth="yes"/>
      <point x="525.3" y="1234.6666666666667"/>
      <point x="420.23333333333335" y="1149.7333333333333"/>
      <point x="420.23333333333335" y="1065.5333333333333" type="qcurve" smooth="yes"/>
      <point x="420.23333333333335" y="971.0666666666666"/>
      <point x="514.2333333333333" y="912.3333333333334"/>
      <point x="719.6" y="868.4666666666667" type="qcurve" smooth="yes"/>
      <point x="940.0" y="819.3333333333334"/>
      <point x="1141.1666666666667" y="605.8666666666667"/>
      <point x="1141.1666666666667" y="441.3" type="qcurve" smooth="yes"/>
      <point x="1141.1666666666667" y="233.6"/>
      <point x="862.8333333333334" y="2.4000000000000004"/>
      <point x="633.0666666666666" y="2.4000000000000004" type="qcurve" smooth="yes"/>
      <point x="401.66666666666663" y="2.4000000000000004"/>
      <point x="118.6" y="225.6"/>
    </contour>
    <contour>
      <point x="519.3333333333334" y="-138.66666666666666" type="line"/>
      <point x="519.3333333333334" y="726.0" type="line"/>
      <point x="743.2" y="726.0" type="line"/>
      <point x="743.2" y="110.83333333333333" type="line"/>
      <point x="756.4333333333334" y="101.33333333333333" type="line"/>
      <point x="756.4333333333334" y="-138.66666666666666" type="line"/>
    </contour>
    <contour>
      <point x="521.5666666666666" y="726.0" type="line"/>
      <point x="521.5666666666666" y="1339.0" type="line"/>
      <point x="507.8333333333333" y="1349.0" type="line"/>
      <point x="507.8333333333333" y="1617.3333333333333" type="line"/>
      <point x="744.9333333333334" y="1617.3333333333333" type="line"/>
      <point x="744.9333333333334" y="726.0" type="line"/>
    </contour>
  </outline>
</glyph>
<glyph name="ampersand" format="2">
  <advance width="1192"/>
  <unicode hex="0026"/>
  <outline>
    <contour>
      <point x="75.5" y="380.0" type="qcurve" smooth="yes"/>
      <point x="74.43333333333334" y="544.4333333333333"/>
      <point x="258.56666666666666" y="756.6"/>
      <point x="382.4" y="848.9333333333333" type="qcurve" smooth="yes"/>
      <point x="553.0333333333333" y="966.7" type="line" smooth="yes"/>
      <point x="608.1" y="1011.7666666666667"/>
      <point x="634.9666666666667" y="1083.3666666666666"/>
      <point x="634.9666666666667" y="1139.0" type="qcurve" smooth="yes"/>
      <point x="634.9666666666667" y="1215.1666666666667"/>
      <point x="598.1333333333333" y="1277.7666666666667"/>
      <point x="552.8333333333334" y="1277.7666666666667" type="qcurve" smooth="yes"/>
      <point x="510.1666666666667" y="1277.7666666666667"/>
      <point x="470.9666666666667" y="1205.1666666666667"/>
      <point x="470.9666666666667" y="1129.5" type="qcurve" smooth="yes"/>
      <point x="470.9666666666667" y="1068.5"/>
      <point x="515.0666666666667" y="962.7666666666667"/>
      <point x="579.5666666666667" y="858.7666666666667" type="qcurve" smooth="yes"/>
      <point x="1170.5666666666666" y="0.0" type="line"/>
      <point x="854.9" y="0.0" type="line"/>
      <point x="372.1666666666667" y="708.0666666666667" type="line" smooth="yes"/>
      <point x="267.1" y="851.2666666666667"/>
      <point x="179.43333333333334" y="1028.0"/>
      <point x="179.43333333333334" y="1128.5" type="qcurve" smooth="yes"/>
      <point x="179.43333333333334" y="1298.5333333333333"/>
      <point x="385.1666666666667" y="1486.0"/>
      <point x="553.3333333333334" y="1486.0" type="qcurve" smooth="yes"/>
      <point x="722.0" y="1486.0"/>
      <point x="915.0" y="1309.0333333333333"/>
      <point x="915.0" y="1147.5" type="qcurve" smooth="yes"/>
      <point x="915.0" y="1024.0666666666666"/>
      <point x="811.0" y="863.7666666666667"/>
      <point x="709.9333333333334" y="793.0666666666667" type="qcurve" smooth="yes"/>
      <point x="539.7333333333333" y="677.8666666666667" type="line" smooth="yes"/>
      <point x="448.4666666666667" y="609.4333333333333"/>
      <point x="371.4666666666667" y="481.0"/>
      <point x="371.4666666666667" y="393.5" type="qcurve" smooth="yes"/>
      <point x="371.4666666666667" y="302.3666666666667"/>
      <point x="446.8333333333333" y="194.73333333333335"/>
      <point x="517.1" y="194.73333333333335" type="qcurve" smooth="yes"/>
      <point x="631.9666666666667" y="194.73333333333335"/>
      <point x="819.9666666666667" y="449.8666666666667"/>
      <point x="822.4666666666667" y="679.5" type="qcurve"/>
      <point x="1102.5" y="679.5" type="line"/>
      <point x="1102.5" y="385.5"/>
      <point x="758.2" y="-20.0"/>
      <point x="509.6" y="-20.0" type="qcurve" smooth="yes"/>
      <point x="300.6666666666667" y="-20.0"/>
      <point x="76.56666666666666" y="207.06666666666666"/>
    </contour>
  </outline>
</glyph>
<glyph name="quotesingle" format="2">
  <advance width="451"/>
  <unicode hex="0027"/>
  <outline>
    <contour>
      <point x="117.82635183383333" y="842.5846153845999" type="line"/>
      <point x="86.03846153845001" y="1282.8102564102335" type="line"/>
      <point x="86.03846153845001" y="1456.0" type="line"/>
      <point x="365.14671210648333" y="1456.0" type="line"/>
      <point x="365.14671210648333" y="1282.8102564102335" type="line"/>
      <point x="332.23061668288335" y="842.5846153845999" type="line"/>
    </contour>
  </outline>
</glyph>
<glyph name="parenleft" format="2">
  <advance width="749"/>
  <unicode hex="0028"/>
  <outline>
    <contour>
      <point x="611.6696916585333" y="-437.0" type="line"/>
      <point x="387.585842259" y="-336.9871794871833"/>
      <point x="107.96153846154999" y="105.20366764036667"/>
      <point x="107.96153846154999" y="514.9384615384499" type="qcurve" smooth="yes"/>
      <point x="107.96153846154999" y="525.0" type="line" smooth="yes"/>
      <point x="107.96153846154999" y="906.8482960078001"/>
      <point x="370.585842259" y="1367.9871794871833"/>
      <point x="611.1696916585333" y="1476.0" type="qcurve"/>
      <point x="611.1696916585333" y="1272.4758195391166" type="line"/>
      <point x="522.7404929549333" y="1198.65342180895"/>
      <point x="399.5094352483" y="863.3263875365"/>
      <point x="399.5094352483" y="532.0" type="qcurve" smooth="yes"/>
      <point x="399.5094352483" y="508.0" type="line" smooth="yes"/>
      <point x="399.5094352483" y="161.12002596561666"/>
      <point x="514.2404929549333" y="-157.15342180895"/>
      <point x="611.6696916585333" y="-232.47581953911666" type="qcurve"/>
    </contour>
  </outline>
</glyph>
<glyph name="parenright" format="2">
  <advance width="749"/>
  <unicode hex="0029"/>
  <outline>
    <contour>
      <point x="137.39102564103334" y="-436.0" type="qcurve"/>
      <point x="137.39102564103334" y="-232.47581953911666" type="line"/>
      <point x="228.79719896138334" y="-165.24761441089998"/>
      <point x="348.48461538460003" y="161.12002596561666"/>
      <point x="348.48461538460003" y="508.0" type="qcurve" smooth="yes"/>
      <point x="348.48461538460003" y="532.0" type="line" smooth="yes"/>
      <point x="348.48461538460003" y="863.3263875365"/>
      <point x="225.79719896138334" y="1198.2476144109"/>
      <point x="137.39102564103334" y="1271.9758195391166" type="qcurve"/>
      <point x="137.39102564103334" y="1476.0" type="line"/>
      <point x="355.4082083739" y="1372.9871794871833"/>
      <point x="641.0991788380167" y="915.90983446935"/>
      <point x="641.0991788380167" y="525.0615384615501" type="qcurve" smooth="yes"/>
      <point x="641.0991788380167" y="515.0" type="line" smooth="yes"/>
      <point x="641.0991788380167" y="105.26520610191666"/>
      <point x="362.9082083739" y="-334.4871794871833"/>
    </contour>
  </outline>
</glyph>
<glyph name="asterisk" format="2">
  <advance width="1019"/>
  <unicode hex="002A"/>
  <outline>
    <contour>
      <point x="43.6923076923" y="1042.4897435897667" type="line"/>
      <point x="129.8247439143" y="1303.4833333333333" type="line"/>
      <point x="400.38954040895" y="1181.4012820512667" type="line"/>
      <point x="369.59152482959996" y="1476.0" type="line"/>
      <point x="649.4652995780667" y="1476.0" type="line"/>
      <point x="619.8570275884333" y="1181.4012820512667" type="line"/>
      <point x="889.3551574164167" y="1303.5448717948834" type="line"/>
      <point x="975.4260551768667" y="1042.5512820512668" type="line"/>
      <point x="686.0047341772" y="983.0230769231" type="line"/>
      <point x="884.9589230769001" y="763.3025641025833" type="line"/>
      <point x="657.7921635832499" y="603.53076923075" type="line"/>
      <point x="509.6207198961333" y="859.9576923077" type="line"/>
      <point x="361.44927620901666" y="603.53076923075" type="line"/>
      <point x="135.41072184353334" y="763.3025641025833" type="line"/>
      <point x="333.1136286919667" y="983.0230769231" type="line"/>
    </contour>
  </outline>
</glyph>
<glyph name="plus" format="2">
  <advance width="1257"/>
  <unicode hex="002B"/>
  <outline>
    <contour>
      <point x="198.27902629015" y="555.9981499513" type="line"/>
      <point x="198.27902629015" y="794.2237909769333" type="line"/>
      <point x="1058.7688153196832" y="794.2237909769333" type="line"/>
      <point x="1058.7688153196832" y="555.9981499513" type="line"/>
    </contour>
    <contour>
      <point x="487.41243752028333" y="152.01759169101666" type="line"/>
      <point x="487.41243752028333" y="1195.9824083089834" type="line"/>
      <point x="768.6969425511" y="1195.9824083089834" type="line"/>
      <point x="768.6969425511" y="152.01759169101666" type="line"/>
    </contour>
  </outline>
</glyph>
<glyph name="comma" format="2">
  <advance width="626"/>
  <unicode hex="002C"/>
  <outline>
    <contour>
      <point x="85.12445634536667" y="-225.25641025643333" type="line"/>
      <point x="138.84567997403332" y="-156.75128205126666"/>
      <point x="193.16923076925002" y="-6.4846153846"/>
      <point x="193.16923076925002" y="90.92051282051668" type="qcurve" smooth="yes"/>
      <point x="193.16923076925002" y="303.04102564103334" type="line"/>
      <point x="457.75150925025" y="303.04102564103334" type="line"/>
      <point x="457.85674001944994" y="91.16666666666666" type="line" smooth="yes"/>
      <point x="457.85674001944994" y="-34.8153846154"/>
      <point x="344.15321129504997" y="-246.47179487178335"/>
      <point x="250.4156553067" y="-322.4653846154" type="qcurve"/>
    </contour>
  </outline>
</glyph>
<glyph name="hyphen" format="2">
  <advance width="554"/>
  <unicode hex="002D"/>
  <outline>
    <contour>
      <point x="29.52820512821667" y="506.13076923075" type="line"/>
      <point x="29.52820512821667" y="754.3205128205167" type="line"/>
      <point x="524.1589191821" y="754.3205128205167" type="line"/>
      <point x="524.1589191821" y="506.13076923075" type="line"/>
    </contour>
  </outline>
</glyph>
<glyph name="period" format="2">
  <advance width="643"/>
  <unicode hex="002E"/>
  <outline>
    <contour>
      <point x="133.8769230769" y="152.51282051281666" type="qcurve" smooth="yes"/>
      <point x="133.8769230769" y="224.7769230769"/>
      <point x="229.01817591691668" y="326.77948717948334"/>
      <point x="317.28036351833333" y="326.77948717948334" type="qcurve" smooth="yes"/>
      <point x="405.41434599158333" y="326.77948717948334"/>
      <point x="498.9889321648833" y="224.7769230769"/>
      <point x="498.9889321648833" y="151.44615384615" type="qcurve" smooth="yes"/>
      <point x="498.9889321648833" y="80.11186094068333"/>
      <point x="405.41434599158333" y="-21.8153846154"/>
      <point x="316.21369685166667" y="-21.8153846154" type="qcurve" smooth="yes"/>
      <point x="229.01817591691668" y="-21.8153846154"/>
      <point x="133.8769230769" y="80.29647632533333"/>
    </contour>
  </outline>
</glyph>
<glyph name="slash" format="2">
  <advance width="489"/>
  <unicode hex="002F"/>
  <outline>
    <contour>
      <point x="-106.4" y="-125.0" type="line"/>
      <point x="339.11410256408334" y="1456.0" type="line"/>
      <point x="591.5624310288666" y="1456.0" type="line"/>
      <point x="146.20602077248333" y="-125.0" type="line"/>
    </contour>
  </outline>
</glyph>
<glyph name="zero" format="2">
  <advance width="1030"/>
  <unicode hex="0030"/>
  <outline>
    <contour>
      <point x="79.53333333333333" y="445.8333333333333" type="qcurve" smooth="yes"/>
      <point x="79.53333333333333" y="1010.1666666666666" type="line" smooth="yes"/>
      <point x="79.53333333333333" y="1220.8666666666666"/>
      <point x="301.1333333333333" y="1485.5"/>
      <point x="514.5666666666667" y="1485.5" type="qcurve" smooth="yes"/>
      <point x="727.5" y="1485.5"/>
      <point x="950.6" y="1221.8666666666666"/>
      <point x="950.6" y="1010.1666666666666" type="qcurve" smooth="yes"/>
      <point x="950.6" y="445.8333333333333" type="line" smooth="yes"/>
      <point x="950.6" y="236.76666666666665"/>
      <point x="726.0" y="-29.5"/>
      <point x="514.5666666666667" y="-29.5" type="qcurve" smooth="yes"/>
      <point x="300.6333333333333" y="-29.5"/>
      <point x="79.53333333333333" y="236.76666666666665"/>
    </contour>
    <contour>
      <point x="388.0" y="417.8333333333333" type="line" smooth="yes"/>
      <point x="388.0" y="325.1333333333333"/>
      <point x="445.06666666666666" y="198.16666666666669"/>
      <point x="515.5666666666667" y="198.16666666666669" type="qcurve" smooth="yes"/>
      <point x="586.0666666666666" y="198.16666666666669"/>
      <point x="643.1333333333333" y="325.1333333333333"/>
      <point x="643.1333333333333" y="417.8333333333333" type="qcurve" smooth="yes"/>
      <point x="643.1333333333333" y="1037.1666666666667" type="line" smooth="yes"/>
      <point x="643.1333333333333" y="1133.0"/>
      <point x="585.5666666666666" y="1257.3333333333333"/>
      <point x="515.5666666666667" y="1257.3333333333333" type="qcurve" smooth="yes"/>
      <point x="445.56666666666666" y="1257.3333333333333"/>
      <point x="388.0" y="1133.0"/>
      <point x="388.0" y="1037.1666666666667" type="qcurve" smooth="yes"/>
    </contour>
  </outline>
</glyph>
<glyph name="one" format="2">
  <advance width="1030"/>
  <unicode hex="0031"/>
  <outline>
    <contour>
      <point x="438.76666666666665" y="0.0" type="line"/>
      <point x="438.76666666666665" y="1155.1" type="line"/>
      <point x="169.93333333333334" y="1053.0333333333333" type="line"/>
      <point x="169.93333333333334" y="1300.1333333333334" type="line"/>
      <point x="589.5" y="1472.5" type="line"/>
      <point x="738.2333333333333" y="1472.5" type="line"/>
      <point x="738.2333333333333" y="0.0" type="line"/>
    </contour>
  </outline>
</glyph>
<glyph name="two" format="2">
  <advance width="1030"/>
  <unicode hex="0032"/>
  <outline>
    <contour>
      <point x="83.03333333333333" y="0.0" type="line"/>
      <point x="83.03333333333333" y="181.73333333333335" type="line"/>
      <point x="500.1" y="802.4" type="line" smooth="yes"/>
      <point x="559.5" y="891.5666666666666"/>
      <point x="627.8333333333333" y="1027.1333333333334"/>
      <point x="627.8333333333333" y="1101.6666666666667" type="qcurve" smooth="yes"/>
      <point x="627.8333333333333" y="1179.8"/>
      <point x="571.3333333333333" y="1257.3333333333333"/>
      <point x="510.56666666666666" y="1257.3333333333333" type="qcurve" smooth="yes"/>
      <point x="448.73333333333335" y="1257.3333333333333"/>
      <point x="379.0" y="1150.6333333333334"/>
      <point x="379.0" y="1013.5" type="qcurve" smooth="yes"/>
      <point x="379.0" y="985.0" type="line"/>
      <point x="76.53333333333333" y="985.0" type="line"/>
      <point x="76.53333333333333" y="1019.0" type="line" smooth="yes"/>
      <point x="76.53333333333333" y="1241.4333333333334"/>
      <point x="311.06666666666666" y="1485.5"/>
      <point x="509.06666666666666" y="1485.5" type="qcurve" smooth="yes"/>
      <point x="723.1333333333333" y="1485.5"/>
      <point x="933.8" y="1287.7333333333333"/>
      <point x="934.3" y="1113.1666666666667" type="qcurve" smooth="yes"/>
      <point x="934.3" y="991.2"/>
      <point x="830.3666666666667" y="805.4666666666667"/>
      <point x="735.1666666666666" y="665.2" type="qcurve" smooth="yes"/>
      <point x="442.5" y="224.5" type="line"/>
      <point x="957.9" y="224.5" type="line"/>
      <point x="957.9" y="0.0" type="line"/>
    </contour>
  </outline>
</glyph>
<glyph name="three" format="2">
  <advance width="1030"/>
  <unicode hex="0033"/>
  <outline>
    <contour>
      <point x="56.03333333333333" y="401.5" type="qcurve" smooth="yes"/>
      <point x="56.03333333333333" y="424.0" type="line"/>
      <point x="354.0" y="424.0" type="line"/>
      <point x="354.0" y="403.5" type="line" smooth="yes"/>
      <point x="354.0" y="305.8666666666667"/>
      <point x="423.3" y="195.16666666666669"/>
      <point x="496.0" y="195.16666666666669" type="qcurve" smooth="yes"/>
      <point x="568.7" y="195.16666666666669"/>
      <point x="639.5" y="307.8666666666667"/>
      <point x="639.5" y="425.0" type="qcurve" smooth="yes"/>
      <point x="639.5" y="536.0666666666667"/>
      <point x="554.8333333333334" y="647.6333333333333"/>
      <point x="466.8333333333333" y="647.6333333333333" type="qcurve" smooth="yes"/>
      <point x="351.26666666666665" y="647.6333333333333" type="line"/>
      <point x="351.26666666666665" y="864.3666666666667" type="line"/>
      <point x="458.9" y="864.3666666666667" type="line" smooth="yes"/>
      <point x="531.5333333333333" y="864.3666666666667"/>
      <point x="602.4" y="971.9333333333333"/>
      <point x="602.4" y="1070.5666666666666" type="qcurve" smooth="yes"/>
      <point x="602.4" y="1163.1333333333334"/>
      <point x="548.4" y="1260.8333333333333"/>
      <point x="489.5" y="1260.8333333333333" type="qcurve" smooth="yes"/>
      <point x="435.0" y="1260.8333333333333"/>
      <point x="374.1666666666667" y="1163.6333333333334"/>
      <point x="374.1666666666667" y="1072.0" type="qcurve" smooth="yes"/>
      <point x="374.1666666666667" y="1056.5" type="line"/>
      <point x="77.2" y="1056.5" type="line"/>
      <point x="77.2" y="1071.0" type="line" smooth="yes"/>
      <point x="77.2" y="1244.0"/>
      <point x="300.76666666666665" y="1486.0"/>
      <point x="496.5" y="1486.0" type="qcurve" smooth="yes"/>
      <point x="706.2" y="1486.0"/>
      <point x="906.3666666666667" y="1263.5"/>
      <point x="906.3666666666667" y="1109.5" type="qcurve" smooth="yes"/>
      <point x="906.3666666666667" y="991.0"/>
      <point x="811.8666666666667" y="810.0"/>
      <point x="710.3666666666667" y="766.0" type="qcurve"/>
      <point x="710.3666666666667" y="762.0" type="line"/>
      <point x="820.3" y="732.5"/>
      <point x="946.9666666666667" y="548.0"/>
      <point x="946.9666666666667" y="412.5" type="qcurve" smooth="yes"/>
      <point x="946.9666666666667" y="208.0"/>
      <point x="711.0" y="-29.5"/>
      <point x="491.5" y="-29.5" type="qcurve" smooth="yes"/>
      <point x="284.8" y="-29.5"/>
      <point x="56.03333333333333" y="209.5"/>
    </contour>
  </outline>
</glyph>
<glyph name="four" format="2">
  <advance width="1030"/>
  <unicode hex="0034"/>
  <outline>
    <contour>
      <point x="565.0666666666666" y="0.0" type="line"/>
      <point x="565.0666666666666" y="394.5" type="line"/>
      <point x="566.5666666666666" y="441.8666666666667" type="line"/>
      <point x="566.5666666666666" y="979.9333333333334" type="line"/>
      <point x="555.0666666666666" y="979.9333333333334" type="line"/>
      <point x="314.5" y="544.7333333333333" type="line"/>
      <point x="655.0" y="544.7333333333333" type="line"/>
      <point x="711.6333333333333" y="545.7333333333333" type="line"/>
      <point x="985.8666666666667" y="545.7333333333333" type="line"/>
      <point x="985.8666666666667" y="320.1333333333333" type="line"/>
      <point x="32.9" y="320.1333333333333" type="line"/>
      <point x="32.9" y="513.3666666666667" type="line"/>
      <point x="593.9666666666667" y="1456.0" type="line"/>
      <point x="857.5333333333333" y="1456.0" type="line"/>
      <point x="857.5333333333333" y="0.0" type="line"/>
    </contour>
  </outline>
</glyph>
<glyph name="five" format="2">
  <advance width="1030"/>
  <unicode hex="0035"/>
  <outline>
    <contour>
      <point x="65.53333333333333" y="391.0" type="qcurve" smooth="yes"/>
      <point x="65.53333333333333" y="412.0" type="line"/>
      <point x="365.0" y="412.0" type="line"/>
      <point x="365.0" y="392.5" type="line" smooth="yes"/>
      <point x="365.0" y="299.3666666666667"/>
      <point x="440.8666666666667" y="195.16666666666669"/>
      <point x="510.56666666666666" y="195.16666666666669" type="qcurve" smooth="yes"/>
      <point x="585.3333333333334" y="195.16666666666669"/>
      <point x="652.5" y="335.8666666666667"/>
      <point x="652.5" y="467.5" type="qcurve" smooth="yes"/>
      <point x="652.5" y="597.5666666666667"/>
      <point x="582.3333333333334" y="731.2"/>
      <point x="511.6333333333333" y="731.2" type="qcurve" smooth="yes"/>
      <point x="450.5" y="731.2"/>
      <point x="367.1333333333333" y="668.6333333333333"/>
      <point x="340.0" y="624.5333333333333" type="qcurve"/>
      <point x="113.63333333333333" y="730.0" type="line"/>
      <point x="186.0" y="1456.0" type="line"/>
      <point x="887.7" y="1456.0" type="line"/>
      <point x="887.7" y="1218.9" type="line"/>
      <point x="425.6" y="1219.9" type="line"/>
      <point x="394.1666666666667" y="909.3" type="line"/>
      <point x="426.7" y="935.1666666666666"/>
      <point x="508.06666666666666" y="962.3666666666667"/>
      <point x="566.2333333333333" y="962.3666666666667" type="qcurve" smooth="yes"/>
      <point x="739.0" y="962.3666666666667"/>
      <point x="954.4666666666667" y="708.9333333333333"/>
      <point x="954.4666666666667" y="482.0" type="qcurve" smooth="yes"/>
      <point x="954.4666666666667" y="249.0"/>
      <point x="727.1333333333333" y="-29.5"/>
      <point x="511.06666666666666" y="-29.5" type="qcurve" smooth="yes"/>
      <point x="303.0" y="-29.5"/>
      <point x="65.53333333333333" y="208.5"/>
    </contour>
  </outline>
</glyph>
<glyph name="six" format="2">
  <advance width="1030"/>
  <unicode hex="0036"/>
  <outline>
    <contour>
      <point x="65.03333333333333" y="607.5" type="qcurve" smooth="yes"/>
      <point x="65.03333333333333" y="643.5" type="line" smooth="yes"/>
      <point x="65.03333333333333" y="1022.0"/>
      <point x="442.1666666666667" y="1471.0"/>
      <point x="813.0" y="1471.0" type="qcurve" smooth="yes"/>
      <point x="836.8" y="1471.0" type="line"/>
      <point x="836.8" y="1237.8333333333333" type="line"/>
      <point x="814.5" y="1237.8333333333333" type="line" smooth="yes"/>
      <point x="593.2666666666667" y="1237.8333333333333"/>
      <point x="362.0" y="963.0"/>
      <point x="362.0" y="647.5" type="qcurve" smooth="yes"/>
      <point x="362.0" y="599.5" type="line" smooth="yes"/>
      <point x="362.0" y="374.3"/>
      <point x="444.6" y="192.66666666666669"/>
      <point x="530.7333333333333" y="192.66666666666669" type="qcurve" smooth="yes"/>
      <point x="610.3" y="192.66666666666669"/>
      <point x="672.2333333333333" y="336.3666666666667"/>
      <point x="672.2333333333333" y="473.0" type="qcurve" smooth="yes"/>
      <point x="672.2333333333333" y="604.0666666666667"/>
      <point x="606.8" y="750.7"/>
      <point x="528.2333333333333" y="750.7" type="qcurve" smooth="yes"/>
      <point x="449.4" y="750.7"/>
      <point x="358.0" y="608.5"/>
      <point x="358.0" y="481.0" type="qcurve"/>
      <point x="258.2" y="481.0" type="line"/>
      <point x="258.2" y="699.9333333333333"/>
      <point x="424.6" y="967.3666666666667"/>
      <point x="590.2666666666667" y="967.3666666666667" type="qcurve" smooth="yes"/>
      <point x="770.9" y="967.3666666666667"/>
      <point x="974.2" y="697.9333333333333"/>
      <point x="974.2" y="477.5" type="qcurve" smooth="yes"/>
      <point x="974.2" y="252.5"/>
      <point x="743.2333333333333" y="-29.5"/>
      <point x="530.2333333333333" y="-29.5" type="qcurve" smooth="yes"/>
      <point x="330.73333333333335" y="-29.5"/>
      <point x="65.03333333333333" y="268.0"/>
    </contour>
  </outline>
</glyph>
<glyph name="seven" format="2">
  <advance width="1030"/>
  <unicode hex="0037"/>
  <outline>
    <contour>
      <point x="171.66666666666666" y="0.0" type="line"/>
      <point x="638.9" y="1212.6" type="line"/>
      <point x="54.9" y="1212.6" type="line"/>
      <point x="54.9" y="1456.0" type="line"/>
      <point x="944.1" y="1456.0" type="line"/>
      <point x="944.1" y="1256.1333333333334" type="line"/>
      <point x="487.1333333333333" y="0.0" type="line"/>
    </contour>
  </outline>
</glyph>
<glyph name="eight" format="2">
  <advance width="1030"/>
  <unicode hex="0038"/>
  <outline>
    <contour>
      <point x="64.03333333333333" y="388.0" type="qcurve" smooth="yes"/>
      <point x="64.03333333333333" y="531.4333333333333"/>
      <point x="209.5" y="711.2333333333333"/>
      <point x="306.2" y="747.3" type="qcurve"/>
      <point x="306.2" y="751.3" type="line"/>
      <point x="217.3" y="794.9333333333333"/>
      <point x="104.63333333333333" y="968.5666666666667"/>
      <point x="104.63333333333333" y="1093.5" type="qcurve" smooth="yes"/>
      <point x="104.63333333333333" y="1266.0"/>
      <point x="318.4666666666667" y="1485.5"/>
      <point x="514.0" y="1485.5" type="qcurve" smooth="yes"/>
      <point x="709.5333333333333" y="1485.5"/>
      <point x="926.0" y="1263.8666666666666"/>
      <point x="926.0" y="1093.0" type="qcurve" smooth="yes"/>
      <point x="926.0" y="968.5666666666667"/>
      <point x="823.2" y="796.4333333333333"/>
      <point x="733.8666666666667" y="751.3" type="qcurve"/>
      <point x="733.8666666666667" y="747.3" type="line"/>
      <point x="831.5666666666666" y="714.2333333333333"/>
      <point x="966.1" y="532.5"/>
      <point x="966.1" y="388.0" type="qcurve" smooth="yes"/>
      <point x="966.1" y="190.5"/>
      <point x="726.3333333333334" y="-29.5"/>
      <point x="514.0" y="-29.5" type="qcurve" smooth="yes"/>
      <point x="302.16666666666663" y="-29.5"/>
      <point x="64.03333333333333" y="190.5"/>
    </contour>
    <contour>
      <point x="366.5" y="409.93333333333334" type="qcurve" smooth="yes"/>
      <point x="366.5" y="309.3666666666667"/>
      <point x="435.4666666666667" y="187.16666666666666"/>
      <point x="514.0" y="187.16666666666666" type="qcurve" smooth="yes"/>
      <point x="591.4666666666667" y="187.16666666666666"/>
      <point x="662.5666666666666" y="309.3666666666667"/>
      <point x="662.5666666666666" y="409.93333333333334" type="qcurve" smooth="yes"/>
      <point x="662.5666666666666" y="514.5666666666667"/>
      <point x="596.9666666666667" y="639.1333333333333"/>
      <point x="514.0" y="639.1333333333333" type="qcurve" smooth="yes"/>
      <point x="429.9666666666667" y="639.1333333333333"/>
      <point x="366.5" y="514.5666666666667"/>
    </contour>
    <contour>
      <point x="396.6" y="1062.5666666666666" type="qcurve" smooth="yes"/>
      <point x="396.6" y="967.9333333333333"/>
      <point x="443.26666666666665" y="850.3666666666667"/>
      <point x="514.0" y="850.3666666666667" type="qcurve" smooth="yes"/>
      <point x="583.6666666666666" y="850.3666666666667"/>
      <point x="633.5333333333333" y="967.9333333333333"/>
      <point x="633.5333333333333" y="1062.5666666666666" type="qcurve" smooth="yes"/>
      <point x="633.5333333333333" y="1153.7"/>
      <point x="580.1666666666666" y="1268.3333333333333"/>
      <point x="514.0" y="1268.3333333333333" type="qcurve" smooth="yes"/>
      <point x="446.76666666666665" y="1268.3333333333333"/>
      <point x="396.6" y="1153.7"/>
    </contour>
  </outline>
</glyph>
<glyph name="nine" format="2">
  <advance width="1030"/>
  <unicode hex="0039"/>
  <outline>
    <contour>
      <point x="55.93333333333334" y="969.0" type="qcurve" smooth="yes"/>
      <point x="55.93333333333334" y="1192.0"/>
      <point x="286.9" y="1471.0"/>
      <point x="499.9" y="1471.0" type="qcurve" smooth="yes"/>
      <point x="700.4666666666667" y="1471.0"/>
      <point x="965.1" y="1173.5"/>
      <point x="965.1" y="834.0" type="qcurve" smooth="yes"/>
      <point x="965.1" y="798.0" type="line" smooth="yes"/>
      <point x="965.1" y="419.5"/>
      <point x="587.9666666666667" y="-29.5"/>
      <point x="217.13333333333333" y="-29.5" type="qcurve" smooth="yes"/>
      <point x="193.33333333333334" y="-29.5" type="line"/>
      <point x="193.33333333333334" y="203.66666666666669" type="line"/>
      <point x="215.63333333333333" y="203.66666666666669" type="line" smooth="yes"/>
      <point x="436.8666666666667" y="203.66666666666669"/>
      <point x="668.1333333333333" y="478.5"/>
      <point x="668.1333333333333" y="794.0" type="qcurve" smooth="yes"/>
      <point x="668.1333333333333" y="842.0" type="line" smooth="yes"/>
      <point x="668.1333333333333" y="1067.2"/>
      <point x="585.5333333333333" y="1248.8333333333333"/>
      <point x="499.4" y="1248.8333333333333" type="qcurve" smooth="yes"/>
      <point x="419.8333333333333" y="1248.8333333333333"/>
      <point x="358.9666666666667" y="1107.6333333333334"/>
      <point x="358.9666666666667" y="973.5" type="qcurve" smooth="yes"/>
      <point x="358.9666666666667" y="844.9333333333333"/>
      <point x="423.3333333333333" y="700.8"/>
      <point x="501.9" y="700.8" type="qcurve" smooth="yes"/>
      <point x="580.7333333333333" y="700.8"/>
      <point x="672.1333333333333" y="839.4333333333333"/>
      <point x="672.1333333333333" y="965.5" type="qcurve"/>
      <point x="773.0" y="965.5" type="line"/>
      <point x="773.0" y="748.5666666666667"/>
      <point x="605.5333333333333" y="484.1333333333333"/>
      <point x="439.8666666666667" y="484.1333333333333" type="qcurve" smooth="yes"/>
      <point x="259.73333333333335" y="484.1333333333333"/>
      <point x="55.93333333333334" y="750.5666666666667"/>
    </contour>
  </outline>
</glyph>
<glyph name="colon" format="2">
  <advance width="657"/>
  <unicode hex="003A"/>
  <outline>
    <contour>
      <point x="150.50769230769998" y="143.96666666666667" type="qcurve" smooth="yes"/>
      <point x="150.50769230769998" y="211.68835164835002"/>
      <point x="242.19879909121667" y="309.0641025640833"/>
      <point x="328.4493021746333" y="309.0641025640833" type="qcurve" smooth="yes"/>
      <point x="414.26134371955" y="309.0641025640833"/>
      <point x="506.8909120415667" y="211.68835164835002"/>
      <point x="506.8909120415667" y="143.96666666666667" type="qcurve" smooth="yes"/>
      <point x="506.8909120415667" y="75.45368072788334"/>
      <point x="414.46303602725" y="-21.8153846154"/>
      <point x="328.6159175592333" y="-21.8153846154" type="qcurve" smooth="yes"/>
      <point x="242.33033755276668" y="-21.8153846154"/>
      <point x="150.50769230769998" y="75.63829611248333"/>
    </contour>
    <contour>
      <point x="150.50769230769998" y="921.3102564102334" type="qcurve" smooth="yes"/>
      <point x="150.50769230769998" y="989.6423723419167"/>
      <point x="242.33033755276668" y="1086.7673846154"/>
      <point x="328.6159175592333" y="1086.7673846154" type="qcurve" smooth="yes"/>
      <point x="414.46303602725" y="1086.7673846154"/>
      <point x="506.8909120415667" y="989.6423723419167"/>
      <point x="506.8909120415667" y="921.3102564102334" type="qcurve" smooth="yes"/>
      <point x="506.8909120415667" y="852.99054945055"/>
      <point x="414.26134371955" y="756.0282051282167"/>
      <point x="328.4493021746333" y="756.0282051282167" type="qcurve" smooth="yes"/>
      <point x="242.19879909121667" y="756.0282051282167"/>
      <point x="150.50769230769998" y="853.17516483515"/>
    </contour>
  </outline>
</glyph>
<glyph name="semicolon" format="2">
  <advance width="657"/>
  <unicode hex="003B"/>
  <outline>
    <contour>
      <point x="104.111661149" y="-225.37948717948333" type="line"/>
      <point x="157.70980785461666" y="-156.99743589741666"/>
      <point x="213.2927945472" y="-7.038461538450001"/>
      <point x="213.0384868549" y="90.18205128206667" type="qcurve" smooth="yes"/>
      <point x="212.85433300875002" y="290.43333333333334" type="line"/>
      <point x="465.0801687763833" y="290.43333333333334" type="line"/>
      <point x="465.22924569943336" y="91.49487179488334" type="line" smooth="yes"/>
      <point x="465.22924569943336" y="-35.36923076925"/>
      <point x="360.00940993185" y="-247.40512820511665"/>
      <point x="268.1720908795833" y="-322.4653846154" type="qcurve"/>
    </contour>
    <contour>
      <point x="153.8923076923" y="921.3102564102334" type="qcurve" smooth="yes"/>
      <point x="153.8923076923" y="989.6423723419167"/>
      <point x="243.45025882481667" y="1086.7673846154"/>
      <point x="327.6159175592333" y="1086.7673846154" type="qcurve" smooth="yes"/>
      <point x="411.34581214205" y="1086.7673846154"/>
      <point x="501.5062966569167" y="989.6423723419167"/>
      <point x="501.5062966569167" y="921.3102564102334" type="qcurve" smooth="yes"/>
      <point x="501.5062966569167" y="853.29727047145"/>
      <point x="411.50749756575" y="756.0282051282167"/>
      <point x="327.4493021746333" y="756.0282051282167" type="qcurve" smooth="yes"/>
      <point x="243.39110678351668" y="756.0282051282167"/>
      <point x="153.8923076923" y="853.4818858561"/>
    </contour>
  </outline>
</glyph>
<glyph name="less" format="2">
  <advance width="1090"/>
  <unicode hex="003C"/>
  <outline>
    <contour>
      <point x="903.5" y="188.7" type="line"/>
      <point x="154.3" y="571.7666666666667" type="line"/>
      <point x="154.3" y="778.5" type="line"/>
      <point x="903.5" y="1161.5666666666666" type="line"/>
      <point x="903.5" y="901.2333333333333" type="line"/>
      <point x="453.33333333333337" y="675.3" type="line"/>
      <point x="903.5" y="448.3666666666667" type="line"/>
    </contour>
  </outline>
</glyph>
<glyph name="equal" format="2">
  <advance width="1095"/>
  <unicode hex="003D"/>
  <outline>
    <contour>
      <point x="201.50862706915" y="355.15258033105" type="line"/>
      <point x="201.50862706915" y="576.3720869847333" type="line"/>
      <point x="892.9853683868834" y="576.3720869847333" type="line"/>
      <point x="892.9853683868834" y="355.15258033105" type="line"/>
    </contour>
    <contour>
      <point x="201.50862706915" y="786.5615709185333" type="line"/>
      <point x="201.50862706915" y="1007.7810775722166" type="line"/>
      <point x="892.9853683868834" y="1007.7810775722166" type="line"/>
      <point x="892.9853683868834" y="786.5615709185333" type="line"/>
    </contour>
  </outline>
</glyph>
<glyph name="greater" format="2">
  <advance width="1090"/>
  <unicode hex="003E"/>
  <outline>
    <contour>
      <point x="167.43333333333334" y="188.7" type="line"/>
      <point x="167.43333333333334" y="449.0333333333333" type="line"/>
      <point x="617.6" y="674.9666666666667" type="line"/>
      <point x="167.43333333333334" y="901.9" type="line"/>
      <point x="167.43333333333334" y="1161.5666666666666" type="line"/>
      <point x="916.6333333333333" y="778.5" type="line"/>
      <point x="916.6333333333333" y="571.7666666666667" type="line"/>
    </contour>
  </outline>
</glyph>
<glyph name="question" format="2">
  <advance width="1098"/>
  <unicode hex="003F"/>
  <outline>
    <contour>
      <point x="325.29842583578335" y="140.38205128206667" type="qcurve" smooth="yes"/>
      <point x="325.29842583578335" y="206.64615384615"/>
      <point x="418.66722492695" y="302.2641025640833"/>
      <point x="504.61690749754996" y="302.2641025640833" type="qcurve" smooth="yes"/>
      <point x="592.1332567348167" y="302.2641025640833"/>
      <point x="685.0020558260333" y="206.64615384615"/>
      <point x="685.0020558260333" y="140.38205128206667" type="qcurve" smooth="yes"/>
      <point x="685.0020558260333" y="73.61794871793333"/>
      <point x="593.1999234014834" y="-22.0"/>
      <point x="505.6835741642167" y="-22.0" type="qcurve" smooth="yes"/>
      <point x="418.91337877315" y="-22.0"/>
      <point x="325.29842583578335" y="73.61794871793333"/>
    </contour>
    <contour>
      <point x="130.0923076923" y="1049.61923076925" type="line"/>
      <point x="130.0923076923" y="1085.1653846154" type="line" smooth="yes"/>
      <point x="130.0923076923" y="1280.5512820512668"/>
      <point x="351.9267620902167" y="1476.0"/>
      <point x="530.7852158390167" y="1476.0" type="qcurve" smooth="yes"/>
      <point x="711.7624349237167" y="1476.0"/>
      <point x="937.7803369036" y="1275.0641025640834"/>
      <point x="937.7803369036" y="1079.5102564102333" type="qcurve" smooth="yes"/>
      <point x="937.7803369036" y="938.8256410256333"/>
      <point x="815.8138013632" y="751.4051282051167"/>
      <point x="739.1659805258" y="687.4769230769" type="qcurve" smooth="yes"/>
      <point x="675.9903141837167" y="634.3525641025833"/>
      <point x="649.7120837390501" y="498.0589743589667"/>
      <point x="649.7120837390501" y="439.67692307690004" type="qcurve" smooth="yes"/>
      <point x="649.7120837390501" y="427.7076923077" type="line"/>
      <point x="351.7494793898333" y="427.7076923077" type="line"/>
      <point x="351.7494793898333" y="441.0923076923" type="line" smooth="yes"/>
      <point x="351.7494793898333" y="558.3320512820667"/>
      <point x="401.6666666666667" y="725.8"/>
      <point x="496.1333333333333" y="817.2" type="qcurve" smooth="yes"/>
      <point x="568.3333333333334" y="886.0666666666667"/>
      <point x="635.9333333333334" y="986.0666666666667"/>
      <point x="635.9333333333334" y="1073.1333333333334" type="qcurve" smooth="yes"/>
      <point x="635.9333333333334" y="1171.5333333333333"/>
      <point x="586.6" y="1256.3333333333333"/>
      <point x="528.7666666666667" y="1256.3333333333333" type="qcurve" smooth="yes"/>
      <point x="475.43333333333334" y="1256.3333333333333"/>
      <point x="423.66666666666663" y="1172.4666666666667"/>
      <point x="423.66666666666663" y="1079.5" type="qcurve" smooth="yes"/>
      <point x="423.7390619928667" y="1049.61923076925" type="line"/>
    </contour>
  </outline>
</glyph>
<glyph name="at" format="2">
  <advance width="1939"/>
  <unicode hex="0040"/>
  <outline>
    <contour>
      <point x="557.4962719896333" y="400.0" type="qcurve" smooth="yes"/>
      <point x="557.6333333333333" y="691.5"/>
      <point x="823.8" y="1052.0"/>
      <point x="995.9666666666667" y="1052.0" type="qcurve" smooth="yes"/>
      <point x="1071.0333333333333" y="1052.0"/>
      <point x="1183.39251022395" y="985.0410256410333"/>
      <point x="1218.5168691983167" y="946.0" type="qcurve"/>
      <point x="1402.3207997403333" y="946.0" type="line"/>
      <point x="1312.3207997403333" y="350.0" type="line" smooth="yes"/>
      <point x="1298.3907520669668" y="251.19279247906667"/>
      <point x="1342.6003753371833" y="172.37948717948333"/>
      <point x="1382.2054151249833" y="172.31794871793335" type="qcurve" smooth="yes"/>
      <point x="1459.82845198395" y="172.25641025643336"/>
      <point x="1558.37208179165" y="433.14743589741664"/>
      <point x="1558.37208179165" y="646.86153846155" type="qcurve" smooth="yes"/>
      <point x="1558.37208179165" y="900.4097309793833"/>
      <point x="1267.2746534880334" y="1280.9871794871833"/>
      <point x="1004.1514845829166" y="1280.9871794871833" type="qcurve" smooth="yes"/>
      <point x="742.3375266147333" y="1280.9871794871833"/>
      <point x="389.76422070756666" y="799.2254068214334"/>
      <point x="389.76422070756666" y="456.86153846155" type="qcurve" smooth="yes"/>
      <point x="389.76422070756666" y="122.62040447816668"/>
      <point x="693.8184148931167" y="-239.87948717948333"/>
      <point x="924.8758435572834" y="-239.87948717948333" type="qcurve" smooth="yes"/>
      <point x="1029.3950743265334" y="-239.87948717948333"/>
      <point x="1175.1989204803833" y="-186.43333333333334"/>
      <point x="1225.04251022395" y="-150.49487179488335" type="qcurve"/>
      <point x="1225.04251022395" y="-356.6153846154" type="line"/>
      <point x="1171.4316243160833" y="-400.51847817115004"/>
      <point x="1029.3950743265334" y="-446.0"/>
      <point x="924.8758435572834" y="-446.0" type="qcurve" smooth="yes"/>
      <point x="591.2594436871167" y="-446.0"/>
      <point x="107.1076923077" y="40.0"/>
      <point x="107.1076923077" y="460.0" type="qcurve" smooth="yes"/>
      <point x="107.1076923077" y="880.0"/>
      <point x="639.404315482" y="1486.0"/>
      <point x="1004.1514845829166" y="1486.0" type="qcurve" smooth="yes"/>
      <point x="1375.0233722817334" y="1486.0"/>
      <point x="1834.6309457968332" y="1000.0"/>
      <point x="1834.6309457968332" y="650.0" type="qcurve" smooth="yes"/>
      <point x="1834.6309457968332" y="360.0"/>
      <point x="1559.4706631233335" y="0.0"/>
      <point x="1358.6432632262333" y="0.0" type="qcurve" smooth="yes"/>
      <point x="1262.2368445309833" y="0.0"/>
      <point x="1121.0670172022167" y="98.8153846154"/>
      <point x="1090.40850827655" y="180.0" type="qcurve"/>
      <point x="1053.8620032456834" y="98.21923076925"/>
      <point x="935.7189763064166" y="0.0"/>
      <point x="868.4066127880333" y="0.0" type="qcurve" smooth="yes"/>
      <point x="725.6540866700834" y="0.0"/>
      <point x="557.6333333333333" y="220.0"/>
    </contour>
    <contour>
      <point x="819.9194333009" y="401.66153846155" type="qcurve" smooth="yes"/>
      <point x="819.9194333009" y="298.95512820511664"/>
      <point x="867.4524771387667" y="193.34358974356667"/>
      <point x="910.6489204803834" y="193.34358974356667" type="qcurve" smooth="yes"/>
      <point x="962.5359857189334" y="193.34358974356667"/>
      <point x="1046.8279506653835" y="292.88589743591666"/>
      <point x="1066.4724712755499" y="416.5" type="qcurve" smooth="yes"/>
      <point x="1124.1800240181667" y="825.2846153846" type="line"/>
      <point x="1102.5889983771333" y="845.7358974359166"/>
      <point x="1044.7043829925333" y="866.8743589743667"/>
      <point x="1015.9531009412667" y="866.8743589743667" type="qcurve" smooth="yes"/>
      <point x="931.4220309991" y="866.8743589743667"/>
      <point x="819.9194333009" y="601.1794871794833"/>
    </contour>
  </outline>
</glyph>
<glyph name="A" format="2">
  <advance width="1085"/>
  <unicode hex="0041"/>
  <outline>
    <contour>
      <point x="-17.73076923075" y="0.0" type="line"/>
      <point x="370.2701071081" y="1463.1923076923" type="line"/>
      <point x="716.2615157416667" y="1463.1923076923" type="line"/>
      <point x="1110.1673742291332" y="0.0" type="line"/>
      <point x="793.8918305745" y="0.0" type="line"/>
      <point x="555.2718701720166" y="1028.1487179487333" type="line" smooth="yes"/>
      <point x="547.6295624797167" y="1062.75199610515"/>
      <point x="534.7334086335667" y="1124.64615384615"/>
      <point x="530.1077676079333" y="1154.8564102564333" type="qcurve"/>
      <point x="523.6103317104667" y="1154.8564102564333" type="line"/>
      <point x="518.9846906848334" y="1124.64615384615"/>
      <point x="504.9603317104667" y="1062.76923076925"/>
      <point x="496.3744342746" y="1028.2102564102333" type="qcurve" smooth="yes"/>
      <point x="255.02966504379998" y="0.0" type="line"/>
    </contour>
    <contour>
      <point x="210.16653683868333" y="323.24102564103333" type="line"/>
      <point x="267.52849724116663" y="546.1974358974167" type="line"/>
      <point x="803.56594547225" y="546.1974358974167" type="line"/>
      <point x="861.2603752028334" y="323.24102564103333" type="line"/>
    </contour>
  </outline>
</glyph>
<glyph name="B" format="2">
  <advance width="1188"/>
  <unicode hex="0042"/>
  <outline>
    <contour>
      <point x="155.0" y="0.0" type="line"/>
      <point x="155.0" y="1456.0" type="line"/>
      <point x="609.2784459590999" y="1456.0" type="line" smooth="yes"/>
      <point x="822.32515514995" y="1456.0"/>
      <point x="1060.1988484258334" y="1268.5230769231"/>
      <point x="1060.1988484258334" y="1072.0512820512668" type="qcurve" smooth="yes"/>
      <point x="1060.1988484258334" y="950.8"/>
      <point x="971.5879176568" y="792.4736063818333"/>
      <point x="901.0706432976166" y="767.9384615384499" type="qcurve"/>
      <point x="901.0706432976166" y="763.9384615384499" type="line"/>
      <point x="990.68432969985" y="738.2889322541"/>
      <point x="1100.1680791950832" y="561.04615384615"/>
      <point x="1100.1680791950832" y="417.49743589741666" type="qcurve" smooth="yes"/>
      <point x="1100.1680791950832" y="220.1230769231"/>
      <point x="848.0543898896667" y="0.0"/>
      <point x="638.1707536514" y="0.0" type="qcurve" smooth="yes"/>
    </contour>
    <contour>
      <point x="449.8297280103667" y="211.82051282051665" type="line"/>
      <point x="626.6630613437" y="211.82051282051665" type="line" smooth="yes"/>
      <point x="717.4440516178167" y="211.82051282051665"/>
      <point x="802.9143433950167" y="331.7"/>
      <point x="802.9143433950167" y="434.7641025640833" type="qcurve" smooth="yes"/>
      <point x="802.9143433950167" y="535.7"/>
      <point x="717.4440516178167" y="655.0794871794834"/>
      <point x="626.6630613437" y="655.0794871794834" type="qcurve" smooth="yes"/>
      <point x="449.8297280103667" y="655.0794871794834" type="line"/>
    </contour>
    <contour>
      <point x="449.8297280103667" y="856.0589743589667" type="line"/>
      <point x="598.2630613437" y="856.0589743589667" type="line" smooth="yes"/>
      <point x="687.2249271375" y="856.0589743589667"/>
      <point x="765.8374203180666" y="957.6717948717833"/>
      <point x="765.8374203180666" y="1050.0974358974167" type="qcurve" smooth="yes"/>
      <point x="765.8374203180666" y="1142.5230769231"/>
      <point x="687.2249271375" y="1242.8256410256333"/>
      <point x="598.2630613437" y="1242.8256410256333" type="qcurve" smooth="yes"/>
      <point x="449.8297280103667" y="1242.8256410256333" type="line"/>
    </contour>
  </outline>
</glyph>
<glyph name="C" format="2">
  <advance width="1187"/>
  <unicode hex="0043"/>
  <outline>
    <contour>
      <point x="99.5" y="682.5" type="qcurve" smooth="yes"/>
      <point x="99.5" y="773.5" type="line" smooth="yes"/>
      <point x="99.5" y="1152.3666666666666"/>
      <point x="397.06666666666666" y="1485.5"/>
      <point x="659.9" y="1485.5" type="qcurve" smooth="yes"/>
      <point x="894.8666666666667" y="1485.5"/>
      <point x="1168.8666666666668" y="1217.7666666666667"/>
      <point x="1168.8666666666668" y="972.5" type="qcurve" smooth="yes"/>
      <point x="1168.8666666666668" y="948.5" type="line"/>
      <point x="867.9" y="948.5" type="line"/>
      <point x="867.9" y="976.5" type="line" smooth="yes"/>
      <point x="867.9" y="1096.8333333333333"/>
      <point x="779.3666666666667" y="1254.8333333333333"/>
      <point x="656.9" y="1254.8333333333333" type="qcurve" smooth="yes"/>
      <point x="520.7" y="1254.8333333333333"/>
      <point x="405.4" y="1066.4"/>
      <point x="405.4" y="850.2333333333333" type="qcurve" smooth="yes"/>
      <point x="405.4" y="606.8333333333334" type="line" smooth="yes"/>
      <point x="405.4" y="396.43333333333334"/>
      <point x="532.7" y="200.66666666666669"/>
      <point x="659.8333333333334" y="200.66666666666669" type="qcurve" smooth="yes"/>
      <point x="769.9666666666667" y="200.66666666666669"/>
      <point x="870.0" y="371.43333333333334"/>
      <point x="868.4666666666667" y="481.0" type="qcurve"/>
      <point x="867.9" y="507.0" type="line"/>
      <point x="1168.8666666666668" y="507.0" type="line"/>
      <point x="1169.4333333333334" y="481.0" type="line" smooth="yes"/>
      <point x="1180.7666666666667" y="237.66666666666666"/>
      <point x="894.8666666666667" y="-29.5"/>
      <point x="659.9" y="-29.5" type="qcurve" smooth="yes"/>
      <point x="393.43333333333334" y="-29.5"/>
      <point x="99.5" y="311.9666666666667"/>
    </contour>
  </outline>
</glyph>
<glyph name="D" format="2">
  <advance width="1277"/>
  <unicode hex="0044"/>
  <outline>
    <contour>
      <point x="155.0" y="0.0" type="line"/>
      <point x="155.0" y="1456.0" type="line"/>
      <point x="571.1700512820667" y="1456.0" type="line" smooth="yes"/>
      <point x="828.4476068543" y="1456.0"/>
      <point x="1176.7" y="1117.8333333333333"/>
      <point x="1176.7722765336" y="773.8769230769001" type="qcurve" smooth="yes"/>
      <point x="1176.7722765336" y="682.73846153845" type="line" smooth="yes"/>
      <point x="1176.7" y="338.6666666666667"/>
      <point x="828.0783760851" y="0.0"/>
      <point x="571.1700512820667" y="0.0" type="qcurve" smooth="yes"/>
    </contour>
    <contour>
      <point x="451.6085128205167" y="223.1205128205167" type="line"/>
      <point x="566.6162051282166" y="223.1205128205167" type="line" smooth="yes"/>
      <point x="702.7726453991834" y="223.1205128205167"/>
      <point x="872.2333333333333" y="431.53333333333336"/>
      <point x="872.4213333333333" y="676.4" type="qcurve" smooth="yes"/>
      <point x="872.4213333333333" y="779.35384615385" type="line" smooth="yes"/>
      <point x="872.2333333333333" y="1024.4666666666667"/>
      <point x="702.9572607838334" y="1231.6487179487333"/>
      <point x="566.6162051282166" y="1231.6487179487333" type="qcurve" smooth="yes"/>
      <point x="451.6085128205167" y="1231.6487179487333" type="line"/>
    </contour>
  </outline>
</glyph>
<glyph name="E" format="2">
  <advance width="1072"/>
  <unicode hex="0045"/>
  <outline>
    <contour>
      <point x="155.0" y="0.0" type="line"/>
      <point x="155.0" y="1456.0" type="line"/>
      <point x="996.8286361570833" y="1456.0" type="line"/>
      <point x="996.8286361570833" y="1228.3256410256333" type="line"/>
      <point x="450.9931282051167" y="1228.3256410256333" type="line"/>
      <point x="450.9931282051167" y="861.8051282051166" type="line"/>
      <point x="905.6901746186334" y="861.8051282051166" type="line"/>
      <point x="905.6901746186334" y="636.8717948717833" type="line"/>
      <point x="450.9931282051167" y="636.8717948717833" type="line"/>
      <point x="450.9931282051167" y="226.4435897435667" type="line"/>
      <point x="1007.4440207724833" y="226.4435897435667" type="line"/>
      <point x="1007.4440207724833" y="0.0" type="line"/>
    </contour>
  </outline>
</glyph>
<glyph name="F" format="2">
  <advance width="1035"/>
  <unicode hex="0046"/>
  <outline>
    <contour>
      <point x="155.0" y="0.0" type="line"/>
      <point x="155.0" y="1456.0" type="line"/>
      <point x="981.4594053878834" y="1456.0" type="line"/>
      <point x="981.4594053878834" y="1228.3871794871834" type="line"/>
      <point x="452.83928205126665" y="1228.3871794871834" type="line"/>
      <point x="452.83928205126665" y="813.83076923075" type="line"/>
      <point x="913.6286361570834" y="813.83076923075" type="line"/>
      <point x="913.6286361570834" y="590.3000000000001" type="line"/>
      <point x="452.83928205126665" y="590.3000000000001" type="line"/>
      <point x="452.83928205126665" y="0.0" type="line"/>
    </contour>
  </outline>
</glyph>
<glyph name="G" format="2">
  <advance width="1196"/>
  <unicode hex="0047"/>
  <outline>
    <contour>
      <point x="99.5" y="682.5" type="qcurve" smooth="yes"/>
      <point x="99.5" y="773.5" type="line" smooth="yes"/>
      <point x="99.5" y="1148.1"/>
      <point x="398.6333333333333" y="1485.5"/>
      <point x="648.7666666666667" y="1485.5" type="qcurve" smooth="yes"/>
      <point x="888.4" y="1485.5"/>
      <point x="1146.5" y="1240.2"/>
      <point x="1152.2666666666667" y="1021.4333333333333" type="qcurve" smooth="yes"/>
      <point x="1152.2666666666667" y="1008.5" type="line"/>
      <point x="852.3" y="1008.5" type="line"/>
      <point x="852.3" y="1019.5" type="line" smooth="yes"/>
      <point x="852.3" y="1136.9666666666667"/>
      <point x="750.9666666666667" y="1255.3333333333333"/>
      <point x="639.4" y="1255.3333333333333" type="qcurve" smooth="yes"/>
      <point x="519.2666666666667" y="1255.3333333333333"/>
      <point x="403.9" y="1081.8333333333333"/>
      <point x="403.9" y="848.1666666666666" type="qcurve" smooth="yes"/>
      <point x="403.9" y="607.8333333333334" type="line" smooth="yes"/>
      <point x="403.9" y="375.56666666666666"/>
      <point x="546.0666666666667" y="199.16666666666669"/>
      <point x="661.2333333333333" y="199.16666666666669" type="qcurve" smooth="yes"/>
      <point x="729.7333333333333" y="199.16666666666669"/>
      <point x="825.7" y="227.2"/>
      <point x="860.3" y="255.46666666666667" type="qcurve"/>
      <point x="860.3" y="541.6333333333333" type="line"/>
      <point x="663.6333333333333" y="541.6333333333333" type="line"/>
      <point x="663.6333333333333" y="764.8666666666667" type="line"/>
      <point x="1152.7666666666667" y="764.8666666666667" type="line"/>
      <point x="1152.7666666666667" y="154.6" type="line"/>
      <point x="1085.3" y="86.13333333333333"/>
      <point x="854.0" y="-29.5"/>
      <point x="655.4" y="-29.5" type="qcurve" smooth="yes"/>
      <point x="401.26666666666665" y="-29.5"/>
      <point x="99.5" y="282.3"/>
    </contour>
  </outline>
</glyph>
<glyph name="H" format="2">
  <advance width="1342"/>
  <unicode hex="0048"/>
  <outline>
    <contour>
      <point x="155.0" y="0.0" type="line"/>
      <point x="155.0" y="1456.0" type="line"/>
      <point x="452.9666666666667" y="1456.0" type="line"/>
      <point x="452.9666666666667" y="865.8666666666667" type="line"/>
      <point x="890.1333333333333" y="865.8666666666667" type="line"/>
      <point x="890.1333333333333" y="1456.0" type="line"/>
      <point x="1187.6" y="1456.0" type="line"/>
      <point x="1187.6" y="0.0" type="line"/>
      <point x="890.1333333333333" y="0.0" type="line"/>
      <point x="890.1333333333333" y="635.1333333333333" type="line"/>
      <point x="452.9666666666667" y="635.1333333333333" type="line"/>
      <point x="452.9666666666667" y="0.0" type="line"/>
    </contour>
  </outline>
</glyph>
<glyph name="I" format="2">
  <advance width="601"/>
  <unicode hex="0049"/>
  <outline>
    <contour>
      <point x="151.43846153844999" y="0.0" type="line"/>
      <point x="151.43846153844999" y="1456.0" type="line"/>
      <point x="448.82646153844996" y="1456.0" type="line"/>
      <point x="448.82646153844996" y="0.0" type="line"/>
    </contour>
  </outline>
</glyph>
<glyph name="J" format="2">
  <advance width="1029"/>
  <unicode hex="004A"/>
  <outline>
    <contour>
      <point x="25.0" y="448.5" type="qcurve" smooth="yes"/>
      <point x="25.0" y="464.5" type="line"/>
      <point x="317.9666666666667" y="464.5" type="line"/>
      <point x="317.9666666666667" y="410.5" type="line" smooth="yes"/>
      <point x="317.9666666666667" y="273.8"/>
      <point x="379.0" y="198.66666666666669"/>
      <point x="451.4666666666667" y="198.66666666666669" type="qcurve" smooth="yes"/>
      <point x="523.3666666666667" y="198.66666666666669"/>
      <point x="585.9666666666667" y="283.8666666666667"/>
      <point x="585.9666666666667" y="429.5" type="qcurve" smooth="yes"/>
      <point x="585.9666666666667" y="1456.0" type="line"/>
      <point x="882.8666666666667" y="1456.0" type="line"/>
      <point x="882.8666666666667" y="487.5" type="line" smooth="yes"/>
      <point x="882.8666666666667" y="217.16666666666666"/>
      <point x="659.3" y="-29.5"/>
      <point x="454.4666666666667" y="-29.5" type="qcurve" smooth="yes"/>
      <point x="249.56666666666666" y="-29.5"/>
      <point x="25.0" y="185.66666666666666"/>
    </contour>
  </outline>
</glyph>
<glyph name="K" format="2">
  <advance width="1149"/>
  <unicode hex="004B"/>
  <outline>
    <contour>
      <point x="155.0" y="0.0" type="line"/>
      <point x="155.0" y="1456.0" type="line"/>
      <point x="452.83928205126665" y="1456.0" type="line"/>
      <point x="452.83928205126665" y="869.3346153846" type="line"/>
      <point x="859.794157741" y="1456.0" type="line"/>
      <point x="1159.6682012333667" y="1456.0" type="line"/>
      <point x="452.83928205126665" y="514.73846153845" type="line"/>
      <point x="452.83928205126665" y="0.0" type="line"/>
    </contour>
    <contour>
      <point x="839.6" y="0.0" type="line"/>
      <point x="440.1" y="705.4333333333333" type="line"/>
      <point x="627.7757169749833" y="919.5789678676" type="line"/>
      <point x="1186.6138098020167" y="0.0" type="line"/>
    </contour>
  </outline>
</glyph>
<glyph name="L" format="2">
  <advance width="973"/>
  <unicode hex="004C"/>
  <outline>
    <contour>
      <point x="155.0" y="0.0" type="line"/>
      <point x="155.0" y="1456.0" type="line"/>
      <point x="452.83928205126665" y="1456.0" type="line"/>
      <point x="452.83928205126665" y="227.67435897436667" type="line"/>
      <point x="967.1444102564334" y="227.67435897436667" type="line"/>
      <point x="967.1444102564334" y="0.0" type="line"/>
    </contour>
  </outline>
</glyph>
<glyph name="M" format="2">
  <advance width="1576"/>
  <unicode hex="004D"/>
  <outline>
    <contour>
      <point x="155.0" y="0.0" type="line"/>
      <point x="155.0" y="1456.0" type="line"/>
      <point x="551.5213112625667" y="1456.0" type="line"/>
      <point x="760.4666666666667" y="527.3333333333334" type="line" smooth="yes"/>
      <point x="769.9" y="488.0"/>
      <point x="780.8666666666667" y="415.23333333333335"/>
      <point x="784.7333333333333" y="367.56666666666666" type="qcurve"/>
      <point x="789.1" y="367.56666666666666" type="line"/>
      <point x="793.4666666666667" y="415.23333333333335"/>
      <point x="803.9333333333334" y="489.06666666666666"/>
      <point x="813.8666666666667" y="528.4" type="qcurve" smooth="yes"/>
      <point x="1029.5349230769" y="1456.0" type="line"/>
      <point x="1431.0998227848" y="1456.0" type="line"/>
      <point x="1431.0998227848" y="0.0" type="line"/>
      <point x="1136.3556410256333" y="0.0" type="line"/>
      <point x="1136.3556410256333" y="869.1728010386166" type="line" smooth="yes"/>
      <point x="1136.3556410256333" y="909.0112625770666"/>
      <point x="1142.3333333333335" y="1002.6666666666666"/>
      <point x="1143.7" y="1041.0" type="qcurve"/>
      <point x="1135.7" y="1041.0" type="line"/>
      <point x="1131.7666666666667" y="1002.6666666666666"/>
      <point x="1110.1069230768999" y="909.0728010386167"/>
      <point x="1100.1389743589666" y="869.1728010386166" type="qcurve" smooth="yes"/>
      <point x="890.6974871794833" y="0.0" type="line"/>
      <point x="642.2083998701667" y="0.0" type="line"/>
      <point x="432.84876923075" y="868.9955858487667" type="line" smooth="yes"/>
      <point x="422.92512431026665" y="908.9398896462167"/>
      <point x="404.4" y="1002.6666666666666"/>
      <point x="399.9666666666667" y="1041.0" type="qcurve"/>
      <point x="391.9666666666667" y="1041.0" type="line"/>
      <point x="393.3333333333333" y="1002.6666666666666"/>
      <point x="398.2038974359167" y="908.8340473872167"/>
      <point x="398.2038974359167" y="868.9955858487667" type="qcurve" smooth="yes"/>
      <point x="398.2038974359167" y="0.0" type="line"/>
    </contour>
  </outline>
</glyph>
<glyph name="N" format="2">
  <advance width="1279"/>
  <unicode hex="004E"/>
  <outline>
    <contour>
      <point x="155.0" y="0.0" type="line"/>
      <point x="155.0" y="1456.0" type="line"/>
      <point x="500.0333333333333" y="1456.0" type="line"/>
      <point x="826.6333333333333" y="563.2333333333333" type="line" smooth="yes"/>
      <point x="834.6" y="538.0666666666666"/>
      <point x="861.1" y="460.5333333333333"/>
      <point x="868.9" y="421.0" type="qcurve"/>
      <point x="876.9" y="421.0" type="line"/>
      <point x="873.2666666666667" y="459.8333333333333"/>
      <point x="873.3333333333334" y="537.9666666666667"/>
      <point x="873.3333333333334" y="574.1" type="qcurve" smooth="yes"/>
      <point x="873.3333333333334" y="1456.0" type="line"/>
      <point x="1129.2333333333333" y="1456.0" type="line"/>
      <point x="1129.2333333333333" y="0.0" type="line"/>
      <point x="776.7" y="0.0" type="line"/>
      <point x="450.26666666666665" y="901.1666666666666" type="line" smooth="yes"/>
      <point x="439.1" y="931.6666666666666"/>
      <point x="418.93333333333334" y="992.9333333333334"/>
      <point x="412.2" y="1030.9" type="qcurve"/>
      <point x="403.6333333333333" y="1030.9" type="line"/>
      <point x="407.26666666666665" y="993.1333333333333"/>
      <point x="408.76666666666665" y="921.4333333333334"/>
      <point x="408.76666666666665" y="883.6666666666666" type="qcurve" smooth="yes"/>
      <point x="408.76666666666665" y="0.0" type="line"/>
    </contour>
  </outline>
</glyph>
<glyph name="O" format="2">
  <advance width="1308"/>
  <unicode hex="004F"/>
  <outline>
    <contour>
      <point x="99.5" y="682.5" type="qcurve" smooth="yes"/>
      <point x="99.5" y="773.5" type="line" smooth="yes"/>
      <point x="99.5" y="1142.8333333333333"/>
      <point x="404.26666666666665" y="1485.5"/>
      <point x="652.3" y="1485.5" type="qcurve" smooth="yes"/>
      <point x="899.8333333333334" y="1485.5"/>
      <point x="1207.0333333333333" y="1142.8333333333333"/>
      <point x="1207.0333333333333" y="773.5" type="qcurve" smooth="yes"/>
      <point x="1207.0333333333333" y="682.5" type="line" smooth="yes"/>
      <point x="1207.0333333333333" y="313.1666666666667"/>
      <point x="899.8333333333334" y="-29.5"/>
      <point x="652.3" y="-29.5" type="qcurve" smooth="yes"/>
      <point x="404.26666666666665" y="-29.5"/>
      <point x="99.5" y="313.1666666666667"/>
    </contour>
    <contour>
      <point x="404.4" y="622.5" type="line" smooth="yes"/>
      <point x="404.4" y="393.8666666666667"/>
      <point x="533.0" y="200.66666666666669"/>
      <point x="652.3" y="200.66666666666669" type="qcurve" smooth="yes"/>
      <point x="772.1" y="200.66666666666669"/>
      <point x="901.5666666666666" y="393.8666666666667"/>
      <point x="901.5666666666666" y="622.5" type="qcurve" smooth="yes"/>
      <point x="901.5666666666666" y="834.0666666666666" type="line" smooth="yes"/>
      <point x="901.5666666666666" y="1063.2"/>
      <point x="772.1" y="1254.8333333333333"/>
      <point x="652.3" y="1254.8333333333333" type="qcurve" smooth="yes"/>
      <point x="533.0" y="1254.8333333333333"/>
      <point x="404.4" y="1063.2"/>
      <point x="404.4" y="834.0666666666666" type="qcurve" smooth="yes"/>
    </contour>
  </outline>
</glyph>
<glyph name="P" format="2">
  <advance width="1162"/>
  <unicode hex="0050"/>
  <outline>
    <contour>
      <point x="155.0" y="0.0" type="line"/>
      <point x="155.0" y="1456.0" type="line"/>
      <point x="626.8" y="1456.0" type="line" smooth="yes"/>
      <point x="848.8" y="1456.0"/>
      <point x="1086.0333333333333" y="1233.3333333333333"/>
      <point x="1086.0333333333333" y="986.5666666666667" type="qcurve" smooth="yes"/>
      <point x="1086.0333333333333" y="740.3"/>
      <point x="849.3" y="513.6333333333333"/>
      <point x="626.3" y="513.6333333333333" type="qcurve" smooth="yes"/>
      <point x="452.9666666666667" y="513.6333333333333" type="line"/>
      <point x="452.9666666666667" y="0.0" type="line"/>
    </contour>
    <contour>
      <point x="452.9666666666667" y="737.8666666666667" type="line"/>
      <point x="598.8" y="737.8666666666667" type="line" smooth="yes"/>
      <point x="706.7333333333333" y="737.8666666666667"/>
      <point x="788.5666666666666" y="864.6666666666666"/>
      <point x="788.5666666666666" y="986.0666666666667" type="qcurve" smooth="yes"/>
      <point x="788.5666666666666" y="1107.5333333333333"/>
      <point x="706.7333333333333" y="1231.3333333333333"/>
      <point x="598.8" y="1231.3333333333333" type="qcurve" smooth="yes"/>
      <point x="452.9666666666667" y="1231.3333333333333" type="line"/>
    </contour>
  </outline>
</glyph>
<glyph name="Q" format="2">
  <advance width="1308"/>
  <unicode hex="0051"/>
  <outline>
    <contour>
      <point x="99.4" y="682.43076923075" type="qcurve" smooth="yes"/>
      <point x="99.4" y="773.56923076925" type="line" smooth="yes"/>
      <point x="99.5" y="1142.8333333333333"/>
      <point x="404.9926121389167" y="1485.3846153846"/>
      <point x="652.7611996105" y="1485.3846153846" type="qcurve" smooth="yes"/>
      <point x="900.5913255436334" y="1485.3846153846"/>
      <point x="1206.0333333333333" y="1142.8333333333333"/>
      <point x="1206.0557325543834" y="773.56923076925" type="qcurve" smooth="yes"/>
      <point x="1206.0557325543834" y="682.43076923075" type="line" smooth="yes"/>
      <point x="1206.0333333333333" y="313.1666666666667"/>
      <point x="900.5913255436334" y="-29.3846153846"/>
      <point x="652.7611996105" y="-29.3846153846" type="qcurve" smooth="yes"/>
      <point x="404.9926121389167" y="-29.3846153846"/>
      <point x="99.5" y="313.1666666666667"/>
    </contour>
    <contour>
      <point x="404.4" y="616.8333333333334" type="line" smooth="yes"/>
      <point x="404.4" y="387.2"/>
      <point x="533.53043037975" y="200.6897435897667"/>
      <point x="652.7611996105" y="200.6897435897667" type="qcurve" smooth="yes"/>
      <point x="772.4919688413" y="200.6897435897667"/>
      <point x="900.5666666666666" y="387.2"/>
      <point x="900.5666666666666" y="616.8333333333334" type="qcurve" smooth="yes"/>
      <point x="900.5666666666666" y="838.6666666666666" type="line" smooth="yes"/>
      <point x="900.5666666666666" y="1068.3"/>
      <point x="772.4919688413" y="1254.6948717948833"/>
      <point x="652.7611996105" y="1254.6948717948833" type="qcurve" smooth="yes"/>
      <point x="533.53043037975" y="1254.6948717948833"/>
      <point x="404.4" y="1068.3"/>
      <point x="404.4" y="838.6666666666666" type="qcurve" smooth="yes"/>
    </contour>
    <contour>
      <point x="988.78383641675" y="-279.62051282051664" type="line"/>
      <point x="611.8963946770333" y="23.46923076925" type="line"/>
      <point x="805.9417020448" y="212.73333333333332" type="line"/>
      <point x="1186.63940019475" y="-85.60256410258333" type="line"/>
    </contour>
  </outline>
</glyph>
<glyph name="R" format="2">
  <advance width="1154"/>
  <unicode hex="0052"/>
  <outline>
    <contour>
      <point x="155.0" y="0.0" type="line"/>
      <point x="155.0" y="1456.0" type="line"/>
      <point x="602.3674547224999" y="1456.0" type="line" smooth="yes"/>
      <point x="827.5144554780334" y="1456.0"/>
      <point x="1080.4333333333334" y="1236.3333333333333"/>
      <point x="1080.5118649788833" y="997.5512820512666" type="qcurve" smooth="yes"/>
      <point x="1080.4333333333334" y="757.3"/>
      <point x="825.7454277352833" y="530.8179487179333"/>
      <point x="601.81360856865" y="530.8179487179333" type="qcurve" smooth="yes"/>
      <point x="452.83928205126665" y="530.8179487179333" type="line"/>
      <point x="452.83928205126665" y="0.0" type="line"/>
    </contour>
    <contour>
      <point x="452.83928205126665" y="752.2820512820666" type="line"/>
      <point x="591.8443777994" y="752.2820512820666" type="line" smooth="yes"/>
      <point x="694.8009613060167" y="752.2820512820666"/>
      <point x="782.4666666666667" y="878.6666666666666"/>
      <point x="782.7418136968666" y="994.9666666666667" type="qcurve" smooth="yes"/>
      <point x="782.9666666666667" y="1111.5333333333333"/>
      <point x="694.8009613060167" y="1233.0794871794833"/>
      <point x="591.8443777994" y="1233.0794871794833" type="qcurve" smooth="yes"/>
      <point x="452.83928205126665" y="1233.0794871794833" type="line"/>
    </contour>
    <contour>
      <point x="799.4245322947166" y="0.0" type="line"/>
      <point x="515.2219681921333" y="671.6923076923" type="line"/>
      <point x="833.8277052904833" y="671.6923076923" type="line"/>
      <point x="1129.5456540084167" y="0.0" type="line"/>
    </contour>
  </outline>
</glyph>
<glyph name="S" format="2">
  <advance width="1121"/>
  <unicode hex="0053"/>
  <outline>
    <contour>
      <point x="74.2153846154" y="402.73333333333335" type="qcurve" smooth="yes"/>
      <point x="74.2153846154" y="439.51538461539997" type="line"/>
      <point x="377.93158974356663" y="439.51538461539997" type="line"/>
      <point x="377.93158974356663" y="406.5487179487333" type="line" smooth="yes"/>
      <point x="377.8700512820667" y="301.6551282051167"/>
      <point x="477.84312820511667" y="197.79358974356666"/>
      <point x="567.9790256410333" y="197.79358974356666" type="qcurve" smooth="yes"/>
      <point x="657.49953846155" y="197.79358974356666"/>
      <point x="753.0333333333333" y="294.4666666666667"/>
      <point x="753.0333333333333" y="373.76666666666665" type="qcurve" smooth="yes"/>
      <point x="753.0333333333333" y="456.9666666666667"/>
      <point x="663.8" y="543.5666666666666"/>
      <point x="498.3" y="614.5666666666667" type="qcurve" smooth="yes"/>
      <point x="327.96666666666664" y="685.3"/>
      <point x="90.6" y="889.8"/>
      <point x="90.31246932815" y="1074.1528075300332" type="qcurve" smooth="yes"/>
      <point x="90.1" y="1283.2333333333333"/>
      <point x="346.28059980525" y="1485.2615384615501"/>
      <point x="561.0585128205166" y="1485.2615384615501" type="qcurve" smooth="yes"/>
      <point x="775.0642797792833" y="1485.2615384615501"/>
      <point x="1033.9" y="1266.2"/>
      <point x="1033.68753846155" y="1059.8820512820666" type="qcurve" smooth="yes"/>
      <point x="1033.68753846155" y="1024.14615384615" type="line"/>
      <point x="735.5867179487334" y="1024.14615384615" type="line"/>
      <point x="735.5867179487334" y="1056.3743589743667" type="line" smooth="yes"/>
      <point x="735.5867179487334" y="1146.8987179487333"/>
      <point x="648.0" y="1257.3333333333333"/>
      <point x="562.0666666666666" y="1257.3333333333333" type="qcurve" smooth="yes"/>
      <point x="470.8" y="1257.3333333333333"/>
      <point x="394.56666666666666" y="1176.3666666666666"/>
      <point x="394.56666666666666" y="1120.7" type="qcurve" smooth="yes"/>
      <point x="394.56666666666666" y="1054.2333333333333"/>
      <point x="478.8" y="952.7"/>
      <point x="646.5" y="874.3666666666667" type="qcurve" smooth="yes"/>
      <point x="811.2" y="798.9333333333334"/>
      <point x="1056.0" y="593.7"/>
      <point x="1056.3423037974499" y="396.29519636481666" type="qcurve" smooth="yes"/>
      <point x="1056.5" y="172.76666666666665"/>
      <point x="788.5279169101167" y="-29.3846153846"/>
      <point x="568.5944102564333" y="-29.3846153846" type="qcurve" smooth="yes"/>
      <point x="350.26719961050003" y="-29.3846153846"/>
      <point x="74.0" y="169.76666666666665"/>
    </contour>
  </outline>
</glyph>
<glyph name="T" format="2">
  <advance width="1054"/>
  <unicode hex="0054"/>
  <outline>
    <contour>
      <point x="22.76923076925" y="1228.3256410256333" type="line"/>
      <point x="22.76923076925" y="1456.0" type="line"/>
      <point x="1031.8440207724834" y="1456.0" type="line"/>
      <point x="1031.8440207724834" y="1228.3256410256333" type="line"/>
      <point x="675.5288308990833" y="1228.3256410256333" type="line"/>
      <point x="675.5288308990833" y="0.0" type="line"/>
      <point x="378.1408308990833" y="0.0" type="line"/>
      <point x="378.1408308990833" y="1228.3256410256333" type="line"/>
    </contour>
  </outline>
</glyph>
<glyph name="U" format="2">
  <advance width="1261"/>
  <unicode hex="0055"/>
  <outline>
    <contour>
      <point x="137.5" y="534.0" type="qcurve" smooth="yes"/>
      <point x="137.5" y="1456.0" type="line"/>
      <point x="433.9" y="1456.0" type="line"/>
      <point x="433.9" y="474.8333333333333" type="line" smooth="yes"/>
      <point x="433.9" y="319.9666666666667"/>
      <point x="538.7333333333333" y="200.66666666666669"/>
      <point x="633.6333333333333" y="200.66666666666669" type="qcurve" smooth="yes"/>
      <point x="727.4666666666667" y="200.66666666666669"/>
      <point x="831.2333333333333" y="321.53333333333336"/>
      <point x="831.2333333333333" y="474.8333333333333" type="qcurve" smooth="yes"/>
      <point x="831.2333333333333" y="1456.0" type="line"/>
      <point x="1121.7" y="1456.0" type="line"/>
      <point x="1121.7" y="534.0" type="line" smooth="yes"/>
      <point x="1121.7" y="220.66666666666666"/>
      <point x="844.9666666666667" y="-29.5"/>
      <point x="631.1333333333333" y="-29.5" type="qcurve" smooth="yes"/>
      <point x="416.3" y="-29.5"/>
      <point x="137.5" y="220.66666666666666"/>
    </contour>
  </outline>
</glyph>
<glyph name="V" format="2">
  <advance width="1026"/>
  <unicode hex="0056"/>
  <outline>
    <contour>
      <point x="-27.6923076923" y="1456.0" type="line"/>
      <point x="290.9793852645166" y="1456.0" type="line"/>
      <point x="508.0333333333333" y="456.9" type="line" smooth="yes"/>
      <point x="513.8333333333334" y="428.9"/>
      <point x="523.7" y="370.6666666666667"/>
      <point x="526.4333333333334" y="335.9666666666667" type="qcurve"/>
      <point x="533.8666666666667" y="335.9666666666667" type="line"/>
      <point x="535.5333333333333" y="370.6666666666667"/>
      <point x="545.3333333333334" y="429.4"/>
      <point x="551.1333333333333" y="456.9" type="qcurve" smooth="yes"/>
      <point x="775.72104576435" y="1456.0" type="line"/>
      <point x="1054.0626828951833" y="1456.0" type="line"/>
      <point x="683.7934521259333" y="-4.74615384615" type="line"/>
      <point x="344.5769230769" y="-4.74615384615" type="line"/>
    </contour>
  </outline>
</glyph>
<glyph name="W" format="2">
  <advance width="1639"/>
  <unicode hex="0057"/>
  <outline>
    <contour>
      <point x="287.5214436871167" y="-4.1923076923" type="line"/>
      <point x="30.0769230769" y="1456.0" type="line"/>
      <point x="319.2851204154666" y="1456.0" type="line"/>
      <point x="468.43333333333334" y="467.4666666666667" type="line" smooth="yes"/>
      <point x="474.3666666666667" y="430.8333333333333"/>
      <point x="478.73333333333335" y="395.6666666666667"/>
      <point x="481.1666666666667" y="358.4666666666667" type="qcurve"/>
      <point x="488.0333333333333" y="358.4666666666667" type="line"/>
      <point x="491.5333333333333" y="395.6666666666667"/>
      <point x="494.9" y="430.8333333333333"/>
      <point x="501.3333333333333" y="467.4666666666667" type="qcurve" smooth="yes"/>
      <point x="672.5746588769666" y="1456.0" type="line"/>
      <point x="1000.8646011035333" y="1456.0" type="line"/>
      <point x="1188.1666666666667" y="468.9666666666667" type="line" smooth="yes"/>
      <point x="1195.1" y="432.3333333333333"/>
      <point x="1198.4666666666667" y="395.6666666666667"/>
      <point x="1203.0333333333333" y="358.4666666666667" type="qcurve"/>
      <point x="1210.4666666666667" y="358.4666666666667" type="line"/>
      <point x="1213.9666666666667" y="395.6666666666667"/>
      <point x="1218.8333333333333" y="432.3333333333333"/>
      <point x="1223.2" y="468.9666666666667" type="qcurve" smooth="yes"/>
      <point x="1354.8705524180332" y="1456.0" type="line"/>
      <point x="1609.3395780590668" y="1456.0" type="line"/>
      <point x="1350.3731165206166" y="-4.1923076923" type="line"/>
      <point x="1019.3242207075666" y="-4.1923076923" type="line"/>
      <point x="840.5666666666666" y="990.4333333333334" type="line" smooth="yes"/>
      <point x="833.6333333333333" y="1027.0666666666666"/>
      <point x="827.9" y="1072.4"/>
      <point x="824.4" y="1108.5333333333333" type="qcurve"/>
      <point x="816.4" y="1108.5333333333333" type="line"/>
      <point x="812.9" y="1072.4"/>
      <point x="808.7333333333333" y="1027.0666666666666"/>
      <point x="801.8" y="990.4333333333334" type="qcurve" smooth="yes"/>
      <point x="622.1505407335334" y="-4.1923076923" type="line"/>
    </contour>
  </outline>
</glyph>
<glyph name="X" format="2">
  <advance width="1035"/>
  <unicode hex="0058"/>
  <outline>
    <contour>
      <point x="3.5" y="0.0" type="line"/>
      <point x="399.7871794871833" y="818.3512820512666" type="line"/>
      <point x="458.88037974685" y="818.3512820512666" type="line"/>
      <point x="733.576533593" y="1456.0" type="line"/>
      <point x="1003.5505030834167" y="1456.0" type="line"/>
      <point x="636.5453748783" y="664.4410256410333" type="line"/>
      <point x="579.8662771827167" y="664.4410256410333" type="line"/>
      <point x="282.97396949041666" y="0.0" type="line"/>
    </contour>
    <contour>
      <point x="21.417948717933335" y="1456.0" type="line"/>
      <point x="351.7171697500833" y="1456.0" type="line"/>
      <point x="634.72614410905" y="822.8512820512666" type="line"/>
      <point x="635.8197338526667" y="822.8512820512666" type="line"/>
      <point x="1030.2376825706" y="0.0" type="line"/>
      <point x="693.5910256410333" y="0.0" type="line"/>
      <point x="397.8076923077" y="655.1641025640834" type="line"/>
      <point x="396.8717948717833" y="655.1641025640834" type="line"/>
    </contour>
  </outline>
</glyph>
<glyph name="Y" format="2">
  <advance width="1049"/>
  <unicode hex="0059"/>
  <outline>
    <contour>
      <point x="376.56500357026664" y="0.0" type="line"/>
      <point x="376.56500357026664" y="517.5150275884333" type="line"/>
      <point x="-9.307692307699998" y="1456.0" type="line"/>
      <point x="317.77553197013333" y="1456.0" type="line"/>
      <point x="498.7" y="941.8" type="line" smooth="yes"/>
      <point x="509.0" y="913.3"/>
      <point x="529.8666666666667" y="839.5333333333333"/>
      <point x="538.3" y="808.8333333333334" type="qcurve"/>
      <point x="547.4333333333334" y="808.8333333333334" type="line"/>
      <point x="555.8666666666667" y="839.5333333333333"/>
      <point x="576.7333333333333" y="912.3"/>
      <point x="587.5333333333333" y="941.8" type="qcurve" smooth="yes"/>
      <point x="772.9119935085834" y="1456.0" type="line"/>
      <point x="1049.32449853945" y="1456.0" type="line"/>
      <point x="675.0196702369333" y="534.2871794871834" type="line"/>
      <point x="675.0196702369333" y="0.0" type="line"/>
    </contour>
  </outline>
</glyph>
<glyph name="Z" format="2">
  <advance width="975"/>
  <unicode hex="005A"/>
  <outline>
    <contour>
      <point x="18.08974358976667" y="0.0" type="line"/>
      <point x="18.08974358976667" y="191.54358974356666" type="line"/>
      <point x="558.07850048685" y="1228.3256410256333" type="line"/>
      <point x="30.766666666666666" y="1228.3256410256333" type="line"/>
      <point x="30.766666666666666" y="1456.0" type="line"/>
      <point x="927.8014423888333" y="1456.0" type="line"/>
      <point x="927.8014423888333" y="1263.2256410256334" type="line"/>
      <point x="388.11794352485003" y="226.4435897435667" type="line"/>
      <point x="960.5399039272833" y="226.4435897435667" type="line"/>
      <point x="960.5399039272833" y="0.0" type="line"/>
    </contour>
  </outline>
</glyph>
<glyph name="bracketleft" format="2">
  <advance width="678"/>
  <unicode hex="005B"/>
  <outline>
    <contour>
      <point x="139.6923076923" y="-310.0" type="line"/>
      <point x="139.6923076923" y="1456.0" type="line"/>
      <point x="590.1214475819667" y="1456.0" type="line"/>
      <point x="590.1214475819667" y="1236.9487179487332" type="line"/>
      <point x="424.3637552742666" y="1236.9487179487332" type="line"/>
      <point x="424.3637552742666" y="-90.94871794873333" type="line"/>
      <point x="590.1214475819667" y="-90.94871794873333" type="line"/>
      <point x="590.1214475819667" y="-310.0" type="line"/>
    </contour>
  </outline>
</glyph>
<glyph name="backslash" format="2">
  <advance width="490"/>
  <unicode hex="005C"/>
  <outline>
    <contour>
      <point x="-115.04358974356667" y="1456.0" type="line"/>
      <point x="144.476533593" y="1456.0" type="line"/>
      <point x="603.6432002596666" y="-125.0" type="line"/>
      <point x="345.47051282051666" y="-125.0" type="line"/>
    </contour>
  </outline>
</glyph>
<glyph name="bracketright" format="2">
  <advance width="678"/>
  <unicode hex="005D"/>
  <outline>
    <contour>
      <point x="538.3536936059834" y="-310.0" type="line"/>
      <point x="87.92455371631667" y="-310.0" type="line"/>
      <point x="87.92455371631667" y="-90.94871794873333" type="line"/>
      <point x="253.68224602401668" y="-90.94871794873333" type="line"/>
      <point x="253.68224602401668" y="1236.9487179487332" type="line"/>
      <point x="87.92455371631667" y="1236.9487179487332" type="line"/>
      <point x="87.92455371631667" y="1456.0" type="line"/>
      <point x="538.3536936059834" y="1456.0" type="line"/>
    </contour>
  </outline>
</glyph>
<glyph name="asciicircum" format="2">
  <advance width="1029"/>
  <unicode hex="005E"/>
  <outline>
    <contour>
      <point x="3.769230769250001" y="720.0" type="line"/>
      <point x="370.6025641025833" y="1456.0" type="line"/>
      <point x="660.6376825706" y="1456.0" type="line"/>
      <point x="1026.9710159039332" y="720.0" type="line"/>
      <point x="686.9358974359167" y="720.0" type="line"/>
      <point x="515.5893541058167" y="1166.5705128205166" type="line"/>
      <point x="343.8043492372667" y="720.0" type="line"/>
    </contour>
  </outline>
</glyph>
<glyph name="underscore" format="2">
  <advance width="698"/>
  <unicode hex="005F"/>
  <outline>
    <contour>
      <point x="0.0" y="-228.62051282051667" type="line"/>
      <point x="0.0" y="-13.092307692300011" type="line"/>
      <point x="697.4153846154" y="-13.092307692300011" type="line"/>
      <point x="697.4153846154" y="-228.62051282051667" type="line"/>
    </contour>
  </outline>
</glyph>
<glyph name="grave" format="2">
  <advance width="964"/>
  <unicode hex="0060"/>
  <outline>
    <contour>
      <point x="542.0" y="1182.0" type="line"/>
      <point x="222.5" y="1485.0" type="line"/>
      <point x="446.5" y="1623.5" type="line"/>
      <point x="707.0" y="1297.5" type="line"/>
    </contour>
  </outline>
</glyph>
<glyph name="a" format="2">
  <advance width="1050"/>
  <unicode hex="0061"/>
  <outline>
    <contour>
      <point x="77.0" y="308.3666666666667" type="qcurve" smooth="yes"/>
      <point x="77.0" y="490.7"/>
      <point x="298.3" y="661.8666666666667"/>
      <point x="485.6" y="662.3666666666667" type="qcurve" smooth="yes"/>
      <point x="629.8666666666667" y="662.3666666666667" type="line"/>
      <point x="629.8666666666667" y="724.0" type="line" smooth="yes"/>
      <point x="629.8666666666667" y="796.6333333333333"/>
      <point x="582.4666666666667" y="886.7666666666667"/>
      <point x="520.9" y="886.7666666666667" type="qcurve" smooth="yes"/>
      <point x="459.3333333333333" y="886.7666666666667"/>
      <point x="407.93333333333334" y="812.1333333333333"/>
      <point x="407.93333333333334" y="757.5" type="qcurve" smooth="yes"/>
      <point x="407.93333333333334" y="742.0" type="line"/>
      <point x="123.46666666666667" y="742.0" type="line"/>
      <point x="123.46666666666667" y="757.5" type="line" smooth="yes"/>
      <point x="123.46666666666667" y="910.1666666666666"/>
      <point x="352.76666666666665" y="1085.0"/>
      <point x="531.8333333333334" y="1085.0" type="qcurve" smooth="yes"/>
      <point x="712.9666666666667" y="1085.0"/>
      <point x="918.3333333333334" y="918.6666666666666"/>
      <point x="918.3333333333334" y="722.5" type="qcurve" smooth="yes"/>
      <point x="918.3333333333334" y="236.5" type="line" smooth="yes"/>
      <point x="918.3333333333334" y="172.5"/>
      <point x="939.7" y="56.5"/>
      <point x="957.0666666666666" y="16.0" type="qcurve"/>
      <point x="957.0666666666666" y="0.0" type="line"/>
      <point x="672.5333333333333" y="0.0" type="line"/>
      <point x="664.2333333333333" y="20.866666666666667"/>
      <point x="648.4333333333334" y="87.33333333333334"/>
      <point x="643.8666666666667" y="119.63333333333333" type="qcurve"/>
      <point x="622.4" y="65.46666666666667"/>
      <point x="485.1666666666667" y="-19.5"/>
      <point x="384.9666666666667" y="-19.5" type="qcurve" smooth="yes"/>
      <point x="252.86666666666667" y="-19.5"/>
      <point x="77.0" y="133.26666666666665"/>
    </contour>
    <contour>
      <point x="366.4666666666667" y="324.2" type="qcurve" smooth="yes"/>
      <point x="366.4666666666667" y="248.3"/>
      <point x="423.0" y="177.73333333333335"/>
      <point x="477.43333333333334" y="177.73333333333335" type="qcurve" smooth="yes"/>
      <point x="543.7" y="177.73333333333335"/>
      <point x="629.8666666666667" y="261.5333333333333"/>
      <point x="629.8666666666667" y="361.6" type="qcurve" smooth="yes"/>
      <point x="629.8666666666667" y="486.6333333333333" type="line"/>
      <point x="523.4" y="486.6333333333333" type="line" smooth="yes"/>
      <point x="444.5333333333333" y="486.6333333333333"/>
      <point x="366.4666666666667" y="416.53333333333336"/>
    </contour>
  </outline>
</glyph>
<glyph name="b" format="2">
  <advance width="1092"/>
  <unicode hex="0062"/>
  <outline>
    <contour>
      <point x="130.0" y="0.0" type="line"/>
      <point x="130.0" y="1531.0" type="line"/>
      <point x="418.4666666666667" y="1531.0" type="line"/>
      <point x="418.4666666666667" y="963.0" type="line"/>
      <point x="459.43333333333334" y="1018.1"/>
      <point x="579.0666666666667" y="1076.0"/>
      <point x="655.2333333333333" y="1076.0" type="qcurve" smooth="yes"/>
      <point x="824.5333333333333" y="1076.0"/>
      <point x="1019.8" y="780.5"/>
      <point x="1019.8" y="544.5" type="qcurve" smooth="yes"/>
      <point x="1019.8" y="512.5" type="line" smooth="yes"/>
      <point x="1019.8" y="275.0"/>
      <point x="823.0333333333333" y="-20.0"/>
      <point x="654.7333333333333" y="-20.0" type="qcurve" smooth="yes"/>
      <point x="577.5666666666667" y="-20.0"/>
      <point x="440.5" y="47.333333333333336"/>
      <point x="414.9666666666667" y="102.5" type="qcurve"/>
      <point x="411.6" y="102.5" type="line"/>
      <point x="406.1666666666667" y="0.0" type="line"/>
    </contour>
    <contour>
      <point x="418.4666666666667" y="330.9" type="line"/>
      <point x="435.06666666666666" y="277.3"/>
      <point x="510.5" y="200.23333333333335"/>
      <point x="573.0333333333333" y="200.23333333333335" type="qcurve" smooth="yes"/>
      <point x="648.8333333333334" y="200.23333333333335"/>
      <point x="724.3333333333334" y="332.8666666666667"/>
      <point x="724.3333333333334" y="465.5" type="qcurve" smooth="yes"/>
      <point x="724.3333333333334" y="590.0" type="line" smooth="yes"/>
      <point x="724.3333333333334" y="722.6333333333333"/>
      <point x="649.8333333333334" y="854.7666666666667"/>
      <point x="575.3" y="854.7666666666667" type="qcurve"/>
      <point x="518.9666666666667" y="854.7666666666667"/>
      <point x="430.8" y="769.1666666666666"/>
      <point x="418.4666666666667" y="724.6" type="qcurve"/>
    </contour>
  </outline>
</glyph>
<glyph name="c" format="2">
  <advance width="956"/>
  <unicode hex="0063"/>
  <outline>
    <contour>
      <point x="73.0" y="512.0" type="qcurve" smooth="yes"/>
      <point x="73.0" y="544.0" type="line" smooth="yes"/>
      <point x="73.0" y="814.8333333333334"/>
      <point x="325.9666666666667" y="1085.5"/>
      <point x="533.2666666666667" y="1085.5" type="qcurve" smooth="yes"/>
      <point x="729.7" y="1085.5"/>
      <point x="935.5" y="866.6666666666666"/>
      <point x="944.0" y="699.0" type="qcurve" smooth="yes"/>
      <point x="945.5" y="681.0" type="line"/>
      <point x="664.5333333333333" y="681.0" type="line"/>
      <point x="664.5333333333333" y="694.0" type="line" smooth="yes"/>
      <point x="664.5333333333333" y="769.6333333333333"/>
      <point x="604.3" y="868.2"/>
      <point x="529.7" y="868.2" type="qcurve" smooth="yes"/>
      <point x="453.0333333333333" y="868.2"/>
      <point x="368.4666666666667" y="734.1333333333333"/>
      <point x="368.4666666666667" y="592.5" type="qcurve" smooth="yes"/>
      <point x="368.4666666666667" y="463.5" type="line" smooth="yes"/>
      <point x="368.4666666666667" y="321.3666666666667"/>
      <point x="445.26666666666665" y="185.73333333333335"/>
      <point x="519.6" y="185.73333333333335" type="qcurve" smooth="yes"/>
      <point x="605.8333333333334" y="185.73333333333335"/>
      <point x="664.0333333333333" y="292.3666666666667"/>
      <point x="664.0333333333333" y="363.0" type="qcurve" smooth="yes"/>
      <point x="664.0333333333333" y="374.0" type="line"/>
      <point x="944.5" y="374.0" type="line"/>
      <point x="944.5" y="361.5" type="line" smooth="yes"/>
      <point x="944.5" y="194.33333333333334"/>
      <point x="730.2" y="-30.0"/>
      <point x="524.7333333333333" y="-30.0" type="qcurve" smooth="yes"/>
      <point x="326.4666666666667" y="-30.0"/>
      <point x="73.0" y="241.16666666666666"/>
    </contour>
  </outline>
</glyph>
<glyph name="d" format="2">
  <advance width="1092"/>
  <unicode hex="0064"/>
  <outline>
    <contour>
      <point x="72.8846153846" y="511.66446153845" type="qcurve" smooth="yes"/>
      <point x="72.8846153846" y="543.66446153845" type="line" smooth="yes"/>
      <point x="73.0" y="779.5"/>
      <point x="283.85949042516665" y="1075.20584615385"/>
      <point x="452.39927620901665" y="1075.20584615385" type="qcurve" smooth="yes"/>
      <point x="529.8978883479333" y="1075.20584615385"/>
      <point x="644.9200512820667" y="1014.30584615385"/>
      <point x="675.2127101590333" y="963.5135384615501" type="qcurve"/>
      <point x="675.2127101590333" y="1531.2" type="line"/>
      <point x="962.6077000973501" y="1531.2" type="line"/>
      <point x="962.6077000973501" y="0.0" type="line"/>
      <point x="686.7742486205833" y="0.0" type="line"/>
      <point x="681.271684518" y="105.67692307690001" type="line"/>
      <point x="678.4319409282833" y="105.67692307690001" type="line"/>
      <point x="652.63368841285" y="49.88717948718333"/>
      <point x="530.8363498863833" y="-20.0"/>
      <point x="453.39927620901665" y="-20.0" type="qcurve" smooth="yes"/>
      <point x="274.0517981175167" y="-20.0"/>
      <point x="73.0" y="276.0"/>
    </contour>
    <contour>
      <point x="367.9666666666667" y="465.0" type="line" smooth="yes"/>
      <point x="367.9666666666667" y="332.3666666666667"/>
      <point x="449.4666666666667" y="200.23333333333335"/>
      <point x="526.2666666666667" y="200.23333333333335" type="qcurve" smooth="yes"/>
      <point x="580.3" y="200.23333333333335"/>
      <point x="655.2333333333333" y="269.8666666666667"/>
      <point x="674.3333333333334" y="320.9" type="qcurve"/>
      <point x="674.3333333333334" y="734.6" type="line"/>
      <point x="656.2333333333333" y="786.1333333333333"/>
      <point x="585.3" y="855.2666666666667"/>
      <point x="527.2666666666667" y="855.2666666666667" type="qcurve" smooth="yes"/>
      <point x="451.4666666666667" y="855.2666666666667"/>
      <point x="367.9666666666667" y="722.6333333333333"/>
      <point x="367.9666666666667" y="590.0" type="qcurve" smooth="yes"/>
    </contour>
  </outline>
</glyph>
<glyph name="e" format="2">
  <advance width="994"/>
  <unicode hex="0065"/>
  <outline>
    <contour>
      <point x="73.0" y="512.0" type="qcurve" smooth="yes"/>
      <point x="73.0" y="544.0" type="line" smooth="yes"/>
      <point x="73.0" y="809.8333333333334"/>
      <point x="326.9666666666667" y="1085.5"/>
      <point x="521.8333333333334" y="1085.5" type="qcurve" smooth="yes"/>
      <point x="718.2" y="1085.5"/>
      <point x="944.9333333333334" y="828.3333333333334"/>
      <point x="944.9333333333334" y="561.5" type="qcurve" smooth="yes"/>
      <point x="944.9333333333334" y="457.1333333333333" type="line"/>
      <point x="259.5" y="457.1333333333333" type="line"/>
      <point x="259.5" y="642.8666666666667" type="line"/>
      <point x="658.4" y="642.8666666666667" type="line"/>
      <point x="658.4" y="657.6666666666666" type="line" smooth="yes"/>
      <point x="658.9" y="752.6333333333333"/>
      <point x="596.0" y="875.2666666666667"/>
      <point x="512.8" y="875.2666666666667" type="qcurve" smooth="yes"/>
      <point x="440.76666666666665" y="875.2666666666667"/>
      <point x="356.76666666666665" y="759.9666666666667"/>
      <point x="356.76666666666665" y="592.0" type="qcurve" smooth="yes"/>
      <point x="356.76666666666665" y="464.5" type="line" smooth="yes"/>
      <point x="356.76666666666665" y="308.56666666666666"/>
      <point x="440.1666666666667" y="185.23333333333335"/>
      <point x="525.9" y="185.23333333333335" type="qcurve" smooth="yes"/>
      <point x="598.6666666666666" y="185.23333333333335"/>
      <point x="688.5333333333333" y="269.23333333333335"/>
      <point x="719.5666666666666" y="322.6666666666667" type="qcurve"/>
      <point x="939.8" y="202.23333333333335" type="line"/>
      <point x="891.9333333333334" y="86.46666666666667"/>
      <point x="679.0333333333333" y="-30.5"/>
      <point x="542.0666666666666" y="-30.5" type="qcurve" smooth="yes"/>
      <point x="324.4666666666667" y="-30.5"/>
      <point x="73.0" y="245.66666666666666"/>
    </contour>
  </outline>
</glyph>
<glyph name="f" format="2">
  <advance width="550"/>
  <unicode hex="0066"/>
  <outline>
    <contour>
      <point x="127.20256410258334" y="0.0" type="line"/>
      <point x="127.20256410258334" y="1139.9230769230999" type="line" smooth="yes"/>
      <point x="127.23333333333333" y="1346.0"/>
      <point x="333.26666666666665" y="1551.0"/>
      <point x="490.06666666666666" y="1551.0" type="qcurve" smooth="yes"/>
      <point x="522.1666666666666" y="1551.0"/>
      <point x="584.5078104511333" y="1543.0153846153999"/>
      <point x="607.2744771178" y="1534.95384615385" type="qcurve"/>
      <point x="599.1296053229667" y="1321.4743589743666" type="line"/>
      <point x="584.4578104511334" y="1326.4179487179333"/>
      <point x="547.6308873742333" y="1332.3564102564333"/>
      <point x="527.2770412203834" y="1332.3564102564333" type="qcurve" smooth="yes"/>
      <point x="475.00249777823336" y="1332.3564102564333"/>
      <point x="414.5975540409" y="1232.8717948717833"/>
      <point x="414.5975540409" y="1133.46153846155" type="qcurve" smooth="yes"/>
      <point x="414.5975540409" y="966.9814871794833" type="line"/>
      <point x="415.21293865629997" y="945.7814871794834" type="line"/>
      <point x="415.21293865629997" y="0.0" type="line"/>
    </contour>
    <contour>
      <point x="23.7076923077" y="842.5955897435667" type="line"/>
      <point x="23.7076923077" y="1055.20584615385" type="line"/>
      <point x="240.74749496918332" y="1055.20584615385" type="line"/>
      <point x="270.860315482" y="1055.20584615385" type="line"/>
      <point x="558.6898617332" y="1055.20584615385" type="line"/>
      <point x="558.6898617332" y="842.5955897435667" type="line"/>
    </contour>
  </outline>
</glyph>
<glyph name="g" format="2">
  <advance width="1092"/>
  <unicode hex="0067"/>
  <outline>
    <contour>
      <point x="131.66666666666666" y="-291.6333333333333" type="qcurve"/>
      <point x="230.0" y="-91.4" type="line"/>
      <point x="271.53333333333336" y="-139.83333333333334"/>
      <point x="413.6" y="-219.33333333333334"/>
      <point x="494.9666666666667" y="-219.33333333333334" type="qcurve" smooth="yes"/>
      <point x="574.0333333333333" y="-219.33333333333334"/>
      <point x="674.8333333333334" y="-79.63333333333333"/>
      <point x="674.8333333333334" y="60.5" type="qcurve" smooth="yes"/>
      <point x="674.8333333333334" y="93.0" type="line"/>
      <point x="644.3666666666667" y="38.4"/>
      <point x="526.2333333333333" y="-19.5"/>
      <point x="433.2" y="-19.5" type="qcurve" smooth="yes"/>
      <point x="268.6" y="-19.5"/>
      <point x="73.0" y="260.3333333333333"/>
      <point x="73.0" y="511.5" type="qcurve" smooth="yes"/>
      <point x="73.0" y="543.5" type="line" smooth="yes"/>
      <point x="73.0" y="784.5"/>
      <point x="278.26666666666665" y="1075.0"/>
      <point x="447.06666666666666" y="1075.0" type="qcurve" smooth="yes"/>
      <point x="523.7333333333333" y="1075.0"/>
      <point x="651.3" y="1006.1666666666666"/>
      <point x="676.8333333333334" y="950.0" type="qcurve"/>
      <point x="680.2" y="950.0" type="line"/>
      <point x="685.6333333333333" y="1055.0" type="line"/>
      <point x="962.3" y="1055.0" type="line"/>
      <point x="962.3" y="68.5" type="line" smooth="yes"/>
      <point x="962.3" y="-175.5"/>
      <point x="704.9" y="-437.0"/>
      <point x="510.9666666666667" y="-437.0" type="qcurve" smooth="yes"/>
      <point x="391.6666666666667" y="-437.0"/>
      <point x="195.43333333333334" y="-354.6333333333333"/>
    </contour>
    <contour>
      <point x="367.9666666666667" y="460.73333333333335" type="line" smooth="yes"/>
      <point x="367.9666666666667" y="328.1"/>
      <point x="446.26666666666665" y="200.23333333333335"/>
      <point x="523.3" y="200.23333333333335" type="qcurve" smooth="yes"/>
      <point x="586.5" y="200.23333333333335"/>
      <point x="665.2" y="275.3666666666667"/>
      <point x="674.3333333333334" y="324.4" type="qcurve"/>
      <point x="674.3333333333334" y="724.6" type="line"/>
      <point x="660.5" y="772.4"/>
      <point x="587.7666666666667" y="855.2666666666667"/>
      <point x="533.2333333333333" y="855.2666666666667" type="qcurve" smooth="yes"/>
      <point x="448.9666666666667" y="855.2666666666667"/>
      <point x="367.9666666666667" y="718.3666666666667"/>
      <point x="367.9666666666667" y="585.7333333333333" type="qcurve" smooth="yes"/>
    </contour>
  </outline>
</glyph>
<glyph name="h" format="2">
  <advance width="1076"/>
  <unicode hex="0068"/>
  <outline>
    <contour>
      <point x="130.0" y="0.0" type="line"/>
      <point x="130.0" y="1531.0" type="line"/>
      <point x="417.9666666666667" y="1531.0" type="line"/>
      <point x="417.9666666666667" y="907.4666666666667" type="line"/>
      <point x="447.9" y="981.7333333333333"/>
      <point x="572.4" y="1076.0"/>
      <point x="685.2666666666667" y="1076.0" type="qcurve" smooth="yes"/>
      <point x="798.0666666666666" y="1076.0"/>
      <point x="950.5333333333333" y="896.6"/>
      <point x="950.5333333333333" y="722.5" type="qcurve" smooth="yes"/>
      <point x="950.5333333333333" y="0.0" type="line"/>
      <point x="662.0666666666666" y="0.0" type="line"/>
      <point x="662.0666666666666" y="705.5" type="line" smooth="yes"/>
      <point x="662.0666666666666" y="775.4333333333333"/>
      <point x="613.8" y="852.8333333333334"/>
      <point x="567.2333333333333" y="852.8333333333334" type="qcurve" smooth="yes"/>
      <point x="506.26666666666665" y="852.8333333333334"/>
      <point x="429.0333333333333" y="764.1"/>
      <point x="418.4666666666667" y="699.0" type="qcurve"/>
      <point x="418.4666666666667" y="0.0" type="line"/>
    </contour>
  </outline>
</glyph>
<glyph name="i" format="2">
  <advance width="556"/>
  <unicode hex="0069"/>
  <outline>
    <contour>
      <point x="133.5" y="0.0" type="line"/>
      <point x="133.5" y="1055.0" type="line"/>
      <point x="422.9666666666667" y="1055.0" type="line"/>
      <point x="422.9666666666667" y="0.0" type="line"/>
    </contour>
    <contour>
      <point x="114.4" y="1349.6333333333334" type="qcurve" smooth="yes"/>
      <point x="114.4" y="1413.9333333333334"/>
      <point x="199.56666666666666" y="1501.6666666666667"/>
      <point x="278.23333333333335" y="1501.6666666666667" type="qcurve" smooth="yes"/>
      <point x="356.9" y="1501.6666666666667"/>
      <point x="442.06666666666666" y="1413.9333333333334"/>
      <point x="442.06666666666666" y="1349.6333333333334" type="qcurve" smooth="yes"/>
      <point x="442.06666666666666" y="1284.8333333333333"/>
      <point x="356.9" y="1196.6"/>
      <point x="277.73333333333335" y="1196.6" type="qcurve" smooth="yes"/>
      <point x="199.06666666666666" y="1196.6"/>
      <point x="114.4" y="1284.8333333333333"/>
    </contour>
  </outline>
</glyph>
<glyph name="j" format="2">
  <advance width="559"/>
  <unicode hex="006A"/>
  <outline>
    <contour>
      <point x="-35.06666666666667" y="-410.5" type="qcurve"/>
      <point x="-36.06666666666667" y="-197.83333333333334" type="line"/>
      <point x="-21.700000000000003" y="-203.83333333333334"/>
      <point x="37.43333333333334" y="-217.83333333333334"/>
      <point x="64.73333333333333" y="-217.83333333333334" type="qcurve" smooth="yes"/>
      <point x="104.43333333333334" y="-217.83333333333334"/>
      <point x="142.0" y="-145.7"/>
      <point x="142.0" y="-60.5" type="qcurve" smooth="yes"/>
      <point x="142.0" y="1055.0" type="line"/>
      <point x="430.9666666666667" y="1055.0" type="line"/>
      <point x="430.9666666666667" y="-66.0" type="line" smooth="yes"/>
      <point x="430.9666666666667" y="-251.0"/>
      <point x="260.9" y="-436.0"/>
      <point x="110.83333333333333" y="-436.0" type="qcurve" smooth="yes"/>
      <point x="80.23333333333333" y="-436.0"/>
      <point x="-15.766666666666666" y="-420.0"/>
    </contour>
    <contour>
      <point x="122.4" y="1349.6333333333334" type="qcurve" smooth="yes"/>
      <point x="122.4" y="1413.9333333333334"/>
      <point x="207.56666666666666" y="1501.6666666666667"/>
      <point x="286.73333333333335" y="1501.6666666666667" type="qcurve" smooth="yes"/>
      <point x="365.4" y="1501.6666666666667"/>
      <point x="450.06666666666666" y="1413.9333333333334"/>
      <point x="450.06666666666666" y="1349.6333333333334" type="qcurve" smooth="yes"/>
      <point x="450.06666666666666" y="1284.8333333333333"/>
      <point x="364.9" y="1196.6"/>
      <point x="286.23333333333335" y="1196.6" type="qcurve" smooth="yes"/>
      <point x="207.56666666666666" y="1196.6"/>
      <point x="122.4" y="1284.8333333333333"/>
    </contour>
  </outline>
</glyph>
<glyph name="k" format="2">
  <advance width="955"/>
  <unicode hex="006B"/>
  <outline>
    <contour>
      <point x="130.0" y="0.0" type="line"/>
      <point x="130.0" y="1531.0" type="line"/>
      <point x="418.4666666666667" y="1531.0" type="line"/>
      <point x="418.4666666666667" y="725.9333333333334" type="line"/>
      <point x="635.0333333333333" y="1055.5" type="line"/>
      <point x="952.4333333333334" y="1055.5" type="line"/>
      <point x="418.4666666666667" y="365.0" type="line"/>
      <point x="418.4666666666667" y="0.0" type="line"/>
    </contour>
    <contour>
      <point x="651.8333333333333" y="0.0" type="line"/>
      <point x="434.76666666666665" y="575.3333333333334" type="line"/>
      <point x="622.1333333333333" y="795.9333333333334" type="line"/>
      <point x="985.8333333333334" y="0.0" type="line"/>
    </contour>
  </outline>
</glyph>
<glyph name="l" format="2">
  <advance width="554"/>
  <unicode hex="006C"/>
  <outline>
    <contour>
      <point x="132.50769230769998" y="0.0" type="line"/>
      <point x="132.50769230769998" y="1531.2" type="line"/>
      <point x="421.4411437844667" y="1531.2" type="line"/>
      <point x="421.4411437844667" y="0.0" type="line"/>
    </contour>
  </outline>
</glyph>
<glyph name="m" format="2">
  <advance width="1585"/>
  <unicode hex="006D"/>
  <outline>
    <contour>
      <point x="130.0" y="0.0" type="line"/>
      <point x="130.0" y="1055.0" type="line"/>
      <point x="406.1666666666667" y="1055.0" type="line"/>
      <point x="411.6" y="950.5" type="line"/>
      <point x="415.4666666666667" y="950.5" type="line"/>
      <point x="451.3" y="1013.1666666666666"/>
      <point x="576.8" y="1075.5"/>
      <point x="646.6" y="1075.5" type="qcurve" smooth="yes"/>
      <point x="738.4666666666667" y="1075.5"/>
      <point x="870.5333333333333" y="983.0"/>
      <point x="899.5" y="899.9" type="qcurve"/>
      <point x="901.3666666666667" y="899.9" type="line"/>
      <point x="933.5333333333333" y="976.6"/>
      <point x="1093.4333333333334" y="1075.5"/>
      <point x="1181.0" y="1075.5" type="qcurve" smooth="yes"/>
      <point x="1305.8666666666668" y="1075.5"/>
      <point x="1464.6" y="886.1"/>
      <point x="1464.6" y="743.7666666666667" type="qcurve" smooth="yes"/>
      <point x="1464.6" y="0.0" type="line"/>
      <point x="1174.5666666666666" y="0.0" type="line"/>
      <point x="1174.5666666666666" y="728.7" type="line" smooth="yes"/>
      <point x="1174.5666666666666" y="788.0"/>
      <point x="1123.8" y="852.3333333333334"/>
      <point x="1077.7333333333333" y="852.8333333333334" type="qcurve" smooth="yes"/>
      <point x="1021.9666666666667" y="853.3333333333334"/>
      <point x="950.2666666666667" y="790.5666666666667"/>
      <point x="941.5333333333333" y="749.6666666666666" type="qcurve"/>
      <point x="941.5333333333333" y="0.0" type="line"/>
      <point x="651.5" y="0.0" type="line"/>
      <point x="651.5" y="727.8333333333334" type="line" smooth="yes"/>
      <point x="651.5" y="787.5"/>
      <point x="593.3333333333334" y="852.8333333333334"/>
      <point x="555.9333333333334" y="852.8333333333334" type="qcurve" smooth="yes"/>
      <point x="511.3333333333333" y="852.8333333333334"/>
      <point x="430.9666666666667" y="792.5666666666667"/>
      <point x="418.4666666666667" y="749.6666666666666" type="qcurve"/>
      <point x="418.4666666666667" y="0.0" type="line"/>
    </contour>
  </outline>
</glyph>
<glyph name="o" format="2">
  <advance width="1076"/>
  <unicode hex="006F"/>
  <outline>
    <contour>
      <point x="73.0" y="512.0" type="qcurve" smooth="yes"/>
      <point x="73.0" y="544.0" type="line" smooth="yes"/>
      <point x="73.0" y="814.3333333333334"/>
      <point x="331.8333333333333" y="1085.5"/>
      <point x="538.1333333333333" y="1085.5" type="qcurve" smooth="yes"/>
      <point x="744.4333333333334" y="1085.5"/>
      <point x="1004.3333333333334" y="814.3419868914833"/>
      <point x="1004.3333333333334" y="544.0" type="qcurve" smooth="yes"/>
      <point x="1004.3333333333334" y="512.0" type="line" smooth="yes"/>
      <point x="1004.3333333333334" y="241.66666666666666"/>
      <point x="744.4333333333334" y="-30.0"/>
      <point x="538.1333333333333" y="-30.0" type="qcurve" smooth="yes"/>
      <point x="331.8333333333333" y="-30.0"/>
      <point x="73.0" y="241.66666666666666"/>
    </contour>
    <contour>
      <point x="368.4666666666667" y="592.5" type="qcurve" smooth="yes"/>
      <point x="368.4666666666667" y="463.5" type="line" smooth="yes"/>
      <point x="368.4666666666667" y="313.8666666666667"/>
      <point x="457.76666666666665" y="191.23333333333335"/>
      <point x="538.1333333333333" y="191.23333333333335" type="qcurve" smooth="yes"/>
      <point x="618.5" y="191.23333333333335"/>
      <point x="708.3666666666667" y="313.8666666666667"/>
      <point x="708.3666666666667" y="463.5" type="qcurve" smooth="yes"/>
      <point x="708.3666666666667" y="592.5" type="line" smooth="yes"/>
      <point x="708.3666666666667" y="746.9666666666667"/>
      <point x="622.4" y="864.2666666666667"/>
      <point x="538.1333333333333" y="864.2666666666667" type="qcurve" smooth="yes"/>
      <point x="453.3666666666667" y="864.2666666666667"/>
      <point x="368.4666666666667" y="741.6333333333333"/>
    </contour>
  </outline>
</glyph>
<glyph name="q" format="2">
  <advance width="1092"/>
  <unicode hex="0071"/>
  <outline>
    <contour>
      <point x="72.8846153846" y="511.5153846154" type="qcurve" smooth="yes"/>
      <point x="72.8846153846" y="543.5153846154001" type="line" smooth="yes"/>
      <point x="73.0" y="784.5"/>
      <point x="283.81564427131667" y="1075.34615384615"/>
      <point x="447.26773774746664" y="1075.34615384615" type="qcurve" smooth="yes"/>
      <point x="532.0315806556333" y="1075.34615384615"/>
      <point x="649.8366114898" y="1006.8820512820666"/>
      <point x="678.5988640051834" y="951.45384615385" type="qcurve"/>
      <point x="681.1578383641499" y="951.45384615385" type="line"/>
      <point x="686.6604024667333" y="1055.34615384615" type="line"/>
      <point x="962.4498539435001" y="1055.34615384615" type="line"/>
      <point x="962.4498539435001" y="-416.12307692310003" type="line"/>
      <point x="674.9757870821334" y="-416.12307692310003" type="line"/>
      <point x="674.9757870821334" y="93.5212268744" type="line"/>
      <point x="675.2219409282833" y="93.4769230769" type="line"/>
      <point x="644.7358974359167" y="38.75384615385"/>
      <point x="535.4854268094833" y="-20.0"/>
      <point x="447.76773774746664" y="-20.0" type="qcurve" smooth="yes"/>
      <point x="279.00795196366664" y="-20.0"/>
      <point x="73.0" y="271.0"/>
    </contour>
    <contour>
      <point x="367.9666666666667" y="465.0" type="line" smooth="yes"/>
      <point x="367.9666666666667" y="326.8666666666667"/>
      <point x="446.4666666666667" y="200.23333333333335"/>
      <point x="521.2666666666667" y="200.23333333333335" type="qcurve" smooth="yes"/>
      <point x="577.3" y="200.23333333333335"/>
      <point x="657.2333333333333" y="270.8666666666667"/>
      <point x="674.3333333333334" y="325.9" type="qcurve"/>
      <point x="674.3333333333334" y="745.2666666666667" type="line"/>
      <point x="661.5" y="785.2"/>
      <point x="591.6" y="855.2666666666667"/>
      <point x="531.9333333333334" y="855.2666666666667" type="qcurve" smooth="yes"/>
      <point x="457.1333333333333" y="855.2666666666667"/>
      <point x="367.9666666666667" y="739.3666666666667"/>
      <point x="367.9666666666667" y="590.0" type="qcurve" smooth="yes"/>
    </contour>
  </outline>
</glyph>
<glyph name="r" format="2">
  <advance width="662"/>
  <unicode hex="0072"/>
  <outline>
    <contour>
      <point x="130.0" y="0.0" type="line"/>
      <point x="130.0" y="1055.20584615385" type="line"/>
      <point x="407.42575916911665" y="1055.20584615385" type="line"/>
      <point x="412.92832327165" y="961.2391794871834" type="line"/>
      <point x="416.2680668614166" y="961.2391794871834" type="line"/>
      <point x="438.88536790153336" y="1012.4256111686167"/>
      <point x="519.9552463486" y="1084.0981538461501"/>
      <point x="567.11678481015" y="1084.0981538461501" type="qcurve" smooth="yes"/>
      <point x="585.5834514768167" y="1084.0981538461501"/>
      <point x="620.7244771178" y="1074.1596923077"/>
      <point x="628.5001181434834" y="1070.1596923077" type="qcurve"/>
      <point x="628.5001181434834" y="819.58276923075" type="line"/>
      <point x="613.2296053229667" y="824.01353846155"/>
      <point x="580.0911437844667" y="828.32123076925"/>
      <point x="560.5924258357833" y="828.32123076925" type="qcurve" smooth="yes"/>
      <point x="514.8163058019334" y="828.32123076925"/>
      <point x="437.3348918325167" y="759.2192214420334"/>
      <point x="419.54883609216665" y="704.69815384615" type="qcurve"/>
      <point x="419.54883609216665" y="0.0" type="line"/>
    </contour>
  </outline>
</glyph>
<glyph name="s" format="2">
  <advance width="951"/>
  <unicode hex="0073"/>
  <outline>
    <contour>
      <point x="64.0" y="332.5" type="line"/>
      <point x="347.4666666666667" y="331.5" type="line"/>
      <point x="347.4666666666667" y="315.5" type="line" smooth="yes"/>
      <point x="347.4666666666667" y="239.36666666666667"/>
      <point x="415.4666666666667" y="164.96666666666667"/>
      <point x="473.73333333333335" y="164.96666666666667" type="qcurve" smooth="yes"/>
      <point x="532.5" y="164.96666666666667"/>
      <point x="588.9333333333334" y="226.2"/>
      <point x="588.9333333333334" y="285.53333333333336" type="qcurve" smooth="yes"/>
      <point x="588.9333333333334" y="338.4"/>
      <point x="517.2666666666667" y="405.3333333333333"/>
      <point x="375.76666666666665" y="443.9666666666667" type="qcurve" smooth="yes"/>
      <point x="222.76666666666665" y="484.1"/>
      <point x="97.06666666666666" y="644.7333333333333"/>
      <point x="97.06666666666666" y="760.0666666666667" type="qcurve" smooth="yes"/>
      <point x="97.06666666666666" y="916.4"/>
      <point x="309.2" y="1085.5"/>
      <point x="485.9" y="1085.5" type="qcurve" smooth="yes"/>
      <point x="667.4333333333334" y="1085.5"/>
      <point x="873.4" y="913.6666666666666"/>
      <point x="873.4" y="740.6666666666666" type="qcurve" smooth="yes"/>
      <point x="873.4" y="729.1666666666666" type="line"/>
      <point x="590.9333333333334" y="729.1666666666666" type="line"/>
      <point x="590.9333333333334" y="762.7333333333333" type="line" smooth="yes"/>
      <point x="590.9333333333334" y="830.7"/>
      <point x="538.6" y="889.0333333333333"/>
      <point x="484.9" y="889.0333333333333" type="qcurve" smooth="yes"/>
      <point x="432.76666666666665" y="889.0333333333333"/>
      <point x="380.1" y="837.3"/>
      <point x="380.1" y="783.8333333333334" type="qcurve" smooth="yes"/>
      <point x="380.1" y="735.2"/>
      <point x="445.3" y="674.3"/>
      <point x="589.3" y="634.0333333333333" type="qcurve" smooth="yes"/>
      <point x="740.8" y="592.2666666666667"/>
      <point x="878.1" y="443.6"/>
      <point x="878.1" y="312.93333333333334" type="qcurve" smooth="yes"/>
      <point x="878.1" y="146.6"/>
      <point x="671.6666666666666" y="-30.0"/>
      <point x="474.73333333333335" y="-30.0" type="qcurve" smooth="yes"/>
      <point x="271.8333333333333" y="-30.0"/>
      <point x="64.0" y="145.53333333333333"/>
      <point x="64.0" y="321.5" type="qcurve" smooth="yes"/>
    </contour>
  </outline>
</glyph>
<glyph name="t" format="2">
  <advance width="604"/>
  <unicode hex="0074"/>
  <outline>
    <contour>
      <point x="0.0" y="842.7666666666667" type="line"/>
      <point x="0.0" y="1055.0" type="line"/>
      <point x="562.6" y="1055.0" type="line"/>
      <point x="562.6" y="842.7666666666667" type="line"/>
    </contour>
    <contour>
      <point x="120.73333333333333" y="314.0" type="qcurve" smooth="yes"/>
      <point x="120.73333333333333" y="944.6333333333333" type="line"/>
      <point x="121.73333333333333" y="973.6333333333333" type="line"/>
      <point x="121.73333333333333" y="1303.5" type="line"/>
      <point x="408.2" y="1303.5" type="line"/>
      <point x="408.2" y="312.5333333333333" type="line" smooth="yes"/>
      <point x="408.2" y="234.63333333333333"/>
      <point x="448.9" y="188.66666666666666"/>
      <point x="484.6666666666667" y="188.66666666666666" type="qcurve" smooth="yes"/>
      <point x="502.3333333333333" y="188.66666666666666"/>
      <point x="536.6" y="196.96666666666667"/>
      <point x="552.7666666666667" y="203.33333333333334" type="qcurve"/>
      <point x="552.7666666666667" y="1.0" type="line"/>
      <point x="534.0333333333333" y="-11.0"/>
      <point x="462.9" y="-29.5"/>
      <point x="420.8666666666667" y="-29.5" type="qcurve" smooth="yes"/>
      <point x="285.73333333333335" y="-29.5"/>
      <point x="120.73333333333333" y="136.5"/>
    </contour>
  </outline>
</glyph>
<glyph name="u" format="2">
  <advance width="1076"/>
  <unicode hex="0075"/>
  <outline>
    <contour>
      <point x="120.0" y="390.23333333333335" type="qcurve" smooth="yes"/>
      <point x="120.0" y="1055.0" type="line"/>
      <point x="408.9666666666667" y="1055.0" type="line"/>
      <point x="408.9666666666667" y="380.23333333333335" type="line" smooth="yes"/>
      <point x="408.9666666666667" y="279.76666666666665"/>
      <point x="460.1333333333333" y="202.16666666666669"/>
      <point x="516.4333333333334" y="202.16666666666669" type="qcurve" smooth="yes"/>
      <point x="570.0" y="202.16666666666669"/>
      <point x="634.8333333333333" y="257.1333333333333"/>
      <point x="657.0666666666666" y="303.3333333333333" type="qcurve"/>
      <point x="657.0666666666666" y="1055.0" type="line"/>
      <point x="945.5333333333333" y="1055.0" type="line"/>
      <point x="945.5333333333333" y="0.0" type="line"/>
      <point x="669.3666666666667" y="0.0" type="line"/>
      <point x="664.5" y="81.16666666666666" type="line"/>
      <point x="659.0" y="81.16666666666666" type="line"/>
      <point x="626.8666666666667" y="36.93333333333334"/>
      <point x="503.76666666666665" y="-20.5"/>
      <point x="404.26666666666665" y="-20.5" type="qcurve" smooth="yes"/>
      <point x="287.3" y="-20.5"/>
      <point x="120.0" y="168.4"/>
    </contour>
  </outline>
</glyph>
<glyph name="v" format="2">
  <advance width="852"/>
  <unicode hex="0076"/>
  <outline>
    <contour>
      <point x="-21.1153846154" y="1055.20584615385" type="line"/>
      <point x="279.8347224927" y="1055.20584615385" type="line"/>
      <point x="411.43333333333334" y="461.1" type="line" smooth="yes"/>
      <point x="419.73333333333335" y="423.1"/>
      <point x="431.0333333333333" y="361.1"/>
      <point x="436.1" y="311.26666666666665" type="qcurve"/>
      <point x="442.6" y="311.26666666666665" type="line"/>
      <point x="446.6" y="361.1"/>
      <point x="458.4666666666667" y="422.6"/>
      <point x="467.26666666666665" y="461.1" type="qcurve" smooth="yes"/>
      <point x="599.2794534242166" y="1055.20584615385" type="line"/>
      <point x="865.9383252191001" y="1055.20584615385" type="line"/>
      <point x="566.4229406037" y="0.0" type="line"/>
      <point x="274.02804284325" y="0.0" type="line"/>
    </contour>
  </outline>
</glyph>
<glyph name="w" format="2">
  <advance width="1393"/>
  <unicode hex="0077"/>
  <outline>
    <contour>
      <point x="12.846153846149999" y="1055.20584615385" type="line"/>
      <point x="303.7188640051833" y="1055.20584615385" type="line"/>
      <point x="385.2" y="490.1" type="line" smooth="yes"/>
      <point x="391.56666666666666" y="450.6"/>
      <point x="405.1333333333333" y="363.76666666666665"/>
      <point x="406.93333333333334" y="324.76666666666665" type="qcurve"/>
      <point x="413.43333333333334" y="324.76666666666665" type="line"/>
      <point x="417.3" y="363.76666666666665"/>
      <point x="432.43333333333334" y="450.6"/>
      <point x="440.8" y="490.1" type="qcurve" smooth="yes"/>
      <point x="554.6810217461834" y="1055.20584615385" type="line"/>
      <point x="866.9561973385166" y="1055.20584615385" type="line"/>
      <point x="982.6" y="489.6" type="line" smooth="yes"/>
      <point x="990.4" y="450.1"/>
      <point x="1005.4666666666667" y="363.26666666666665"/>
      <point x="1009.8333333333334" y="324.26666666666665" type="qcurve"/>
      <point x="1015.8333333333334" y="324.26666666666665" type="line"/>
      <point x="1019.7" y="363.26666666666665"/>
      <point x="1035.4666666666667" y="450.1"/>
      <point x="1040.7666666666667" y="489.6" type="qcurve" smooth="yes"/>
      <point x="1126.66707302825" y="1055.20584615385" type="line"/>
      <point x="1381.8084063615834" y="1055.20584615385" type="line"/>
      <point x="1171.8545602077334" y="0.0" type="line"/>
      <point x="846.3370210970667" y="0.0" type="line"/>
      <point x="723.2" y="564.9666666666667" type="line" smooth="yes"/>
      <point x="714.8333333333334" y="602.9666666666667"/>
      <point x="700.1" y="682.4666666666667"/>
      <point x="697.8666666666667" y="720.4666666666667" type="qcurve"/>
      <point x="693.3666666666667" y="720.4666666666667" type="line"/>
      <point x="690.0666666666666" y="682.4666666666667"/>
      <point x="676.4666666666667" y="602.4666666666667"/>
      <point x="669.1" y="564.9666666666667" type="qcurve" smooth="yes"/>
      <point x="560.2984063615834" y="0.0" type="line"/>
      <point x="223.68205128206665" y="0.0" type="line"/>
    </contour>
  </outline>
</glyph>
<glyph name="y" format="2">
  <advance width="862"/>
  <unicode hex="0079"/>
  <outline>
    <contour>
      <point x="68.20667315808333" y="-415.26153846155" type="qcurve"/>
      <point x="71.96051931193333" y="-201.41025641023333" type="line"/>
      <point x="92.29277572216667" y="-209.44487179488334"/>
      <point x="143.52031418371666" y="-218.97948717948333"/>
      <point x="166.38205777343333" y="-218.97948717948333" type="qcurve" smooth="yes"/>
      <point x="221.63966049983333" y="-218.97948717948333"/>
      <point x="304.06666666666666" y="-161.06666666666666"/>
      <point x="346.9666666666667" y="9.833333333333332" type="qcurve"/>
      <point x="301.4666666666667" y="10.333333333333332" type="line"/>
      <point x="-3.7641025640833323" y="1055.20584615385" type="line"/>
      <point x="297.31151574166665" y="1055.20584615385" type="line"/>
      <point x="431.3666666666667" y="456.93333333333334" type="line" smooth="yes"/>
      <point x="440.73333333333335" y="418.93333333333334"/>
      <point x="448.76666666666665" y="355.43333333333334"/>
      <point x="452.06666666666666" y="311.26666666666665" type="qcurve"/>
      <point x="458.56666666666666" y="311.26666666666665" type="line"/>
      <point x="460.23333333333335" y="355.43333333333334"/>
      <point x="469.8333333333333" y="417.93333333333334"/>
      <point x="478.7" y="456.93333333333334" type="qcurve" smooth="yes"/>
      <point x="613.3393911067667" y="1055.20584615385" type="line"/>
      <point x="870.0282116195833" y="1055.20584615385" type="line"/>
      <point x="569.7294936709" y="-43.34358974356667" type="line" smooth="yes"/>
      <point x="501.8920064914166" y="-280.4576923077"/>
      <point x="311.8253911067667" y="-436.0"/>
      <point x="187.37539110676667" y="-436.0" type="qcurve" smooth="yes"/>
      <point x="147.73887828624999" y="-436.0"/>
      <point x="90.9558013632" y="-426.3846153846"/>
    </contour>
  </outline>
</glyph>
<glyph name="z" format="2">
  <advance width="827"/>
  <unicode hex="007A"/>
  <outline>
    <contour>
      <point x="45.5" y="0.0" type="line"/>
      <point x="45.5" y="189.3" type="line"/>
      <point x="400.2" y="833.2666666666667" type="line"/>
      <point x="52.43333333333334" y="833.2666666666667" type="line"/>
      <point x="52.43333333333334" y="1055.0" type="line"/>
      <point x="763.6" y="1055.0" type="line"/>
      <point x="763.6" y="871.2" type="line"/>
      <point x="403.4" y="220.73333333333335" type="line"/>
      <point x="790.8333333333334" y="220.73333333333335" type="line"/>
      <point x="790.8333333333334" y="0.0" type="line"/>
    </contour>
  </outline>
</glyph>
<glyph name="braceleft" format="2">
  <advance width="743"/>
  <unicode hex="007B"/>
  <outline>
    <contour>
      <point x="644.03046153845" y="-312.0" type="line"/>
      <point x="435.1103076923" y="-313.23076923075"/>
      <point x="162.78343589741667" y="-116.97179487178333"/>
      <point x="193.14153846155" y="71.66666666666667" type="qcurve" smooth="yes"/>
      <point x="230.19692307690002" y="310.65384615385" type="line" smooth="yes"/>
      <point x="246.9430769231" y="415.05512820511666"/>
      <point x="169.2586153846" y="480.75641025643336"/>
      <point x="101.38333333333333" y="480.75641025643336" type="qcurve"/>
      <point x="101.38333333333333" y="667.2435897435666" type="line"/>
      <point x="169.2586153846" y="667.2435897435666"/>
      <point x="246.9430769231" y="732.9448717948833"/>
      <point x="230.19692307690002" y="837.34615384615" type="qcurve" smooth="yes"/>
      <point x="193.14153846155" y="1076.3333333333333" type="line" smooth="yes"/>
      <point x="162.90651282051667" y="1264.4179487179333"/>
      <point x="435.1103076923" y="1460.6153846154"/>
      <point x="644.03046153845" y="1460.0" type="qcurve"/>
      <point x="644.03046153845" y="1256.0205128205166" type="line"/>
      <point x="586.2438974359167" y="1256.0205128205166"/>
      <point x="449.5603076923" y="1186.3102564102335"/>
      <point x="469.2417435897667" y="1051.7564102564334" type="qcurve" smooth="yes"/>
      <point x="506.7971282051167" y="814.0" type="line" smooth="yes"/>
      <point x="521.3137948717833" y="728.5615384615501"/>
      <point x="447.0971282051167" y="612.8333333333334"/>
      <point x="345.81123076925" y="574.0" type="qcurve"/>
      <point x="447.0971282051167" y="535.1666666666666"/>
      <point x="521.3137948717833" y="419.43846153845004"/>
      <point x="506.7971282051167" y="334.0" type="qcurve" smooth="yes"/>
      <point x="469.2417435897667" y="96.24358974356667" type="line" smooth="yes"/>
      <point x="449.5603076923" y="-38.310256410233336"/>
      <point x="586.2438974359167" y="-108.02051282051667"/>
      <point x="644.03046153845" y="-108.02051282051667" type="qcurve"/>
    </contour>
  </outline>
</glyph>
<glyph name="bar" format="2">
  <advance width="630"/>
  <unicode hex="007C"/>
  <outline>
    <contour>
      <point x="192.6153846154" y="-416.0" type="line"/>
      <point x="192.6153846154" y="1410.6666666666667" type="line"/>
      <point x="438.09312820511667" y="1410.6666666666667" type="line"/>
      <point x="438.09312820511667" y="-416.0" type="line"/>
    </contour>
  </outline>
</glyph>
<glyph name="braceright" format="2">
  <advance width="743"/>
  <unicode hex="007D"/>
  <outline>
    <contour>
      <point x="103.13589743591666" y="-312.12307692310003" type="qcurve"/>
      <point x="103.13589743591666" y="-108.14358974356666" type="line"/>
      <point x="160.92246153845" y="-108.14358974356666"/>
      <point x="280.1060512820667" y="-37.93333333333333"/>
      <point x="257.42461538460003" y="96.12051282051667" type="qcurve" smooth="yes"/>
      <point x="215.36923076925" y="333.87692307689997" type="line" smooth="yes"/>
      <point x="198.85256410258333" y="418.81538461540003"/>
      <point x="280.06923076925" y="535.0435897435667"/>
      <point x="381.35512820511667" y="573.8769230769001" type="qcurve"/>
      <point x="280.06923076925" y="612.7102564102333"/>
      <point x="198.85256410258333" y="728.9384615384499"/>
      <point x="215.36923076925" y="813.8769230769001" type="qcurve" smooth="yes"/>
      <point x="257.42461538460003" y="1051.6333333333332" type="line" smooth="yes"/>
      <point x="280.1060512820667" y="1185.6871794871834"/>
      <point x="160.92246153845" y="1255.8974358974167"/>
      <point x="103.13589743591666" y="1255.8974358974167" type="qcurve"/>
      <point x="103.13589743591666" y="1459.8769230768999" type="line"/>
      <point x="312.0560512820667" y="1461.1076923076998"/>
      <point x="569.4495897435667" y="1264.3487179487333"/>
      <point x="533.5248205128166" y="1076.2102564102333" type="qcurve" smooth="yes"/>
      <point x="491.4694358974167" y="837.2230769231" type="line" smooth="yes"/>
      <point x="472.72328205126666" y="733.3217948717833"/>
      <point x="577.9077435897667" y="667.1205128205166"/>
      <point x="645.7830256410333" y="667.1205128205166" type="qcurve"/>
      <point x="645.7830256410333" y="480.6333333333333" type="line"/>
      <point x="577.9077435897667" y="480.6333333333333"/>
      <point x="472.72328205126666" y="414.43205128206665"/>
      <point x="491.4694358974167" y="310.53076923075" type="qcurve" smooth="yes"/>
      <point x="533.5248205128166" y="71.54358974356667" type="line" smooth="yes"/>
      <point x="569.3265128205167" y="-116.04102564103334"/>
      <point x="312.0560512820667" y="-312.73846153845"/>
    </contour>
  </outline>
</glyph>
<glyph name="asciitilde" format="2">
  <advance width="1318"/>
  <unicode hex="007E"/>
  <outline>
    <contour>
      <point x="362.8846153846" y="474.1923076923" type="qcurve"/>
      <point x="362.8846153846" y="771.14615384615" type="line"/>
      <point x="386.66666666666663" y="817.96923076925"/>
      <point x="449.38205128206664" y="864.0923076923"/>
      <point x="494.7076923077" y="863.9641025640833" type="qcurve" smooth="yes"/>
      <point x="516.2" y="863.8358974359166"/>
      <point x="621.5743589743668" y="836.2051282051167"/>
      <point x="675.7487179487333" y="808.3512820512666" type="qcurve" smooth="yes"/>
      <point x="720.9" y="785.26153846155"/>
      <point x="811.06923076925" y="763.2076923077"/>
      <point x="827.0" y="763.2076923077" type="qcurve" smooth="yes"/>
      <point x="875.8666666666667" y="763.2076923077"/>
      <point x="939.13076923075" y="821.6051282051167"/>
      <point x="963.7128205128167" y="875.8769230769001" type="qcurve"/>
      <point x="963.7128205128167" y="574.46923076925" type="line"/>
      <point x="941.7358974359167" y="531.9333333333333"/>
      <point x="877.33846153845" y="485.7948717948833"/>
      <point x="830.2564102564334" y="485.7948717948833" type="qcurve" smooth="yes"/>
      <point x="809.2589743589667" y="485.7948717948833"/>
      <point x="707.4102564102334" y="511.5487179487333"/>
      <point x="657.2102564102333" y="537.2025641025833" type="qcurve" smooth="yes"/>
      <point x="607.7282051282167" y="562.5564102564333"/>
      <point x="513.73846153845" y="584.74615384615"/>
      <point x="497.5589743589667" y="584.74615384615" type="qcurve" smooth="yes"/>
      <point x="449.54615384615" y="584.74615384615"/>
      <point x="387.24102564103333" y="529.2435897435666"/>
    </contour>
  </outline>
</glyph>
<glyph name="exclamdown" format="2">
  <advance width="680"/>
  <unicode hex="00A1"/>
  <outline>
    <contour>
      <point x="519.9666666666667" y="1009.6333333333333" type="qcurve" smooth="yes"/>
      <point x="519.9666666666667" y="943.2"/>
      <point x="427.6" y="847.7666666666667"/>
      <point x="340.73333333333335" y="847.7666666666667" type="qcurve" smooth="yes"/>
      <point x="253.86666666666667" y="847.7666666666667"/>
      <point x="160.5" y="943.2"/>
      <point x="160.5" y="1009.6333333333333" type="qcurve" smooth="yes"/>
      <point x="160.5" y="1076.5666666666666"/>
      <point x="253.36666666666667" y="1172.0"/>
      <point x="340.23333333333335" y="1172.0" type="qcurve" smooth="yes"/>
      <point x="427.6" y="1172.0"/>
      <point x="519.9666666666667" y="1076.5666666666666"/>
    </contour>
    <contour>
      <point x="468.0333333333333" y="686.5" type="line"/>
      <point x="489.4666666666667" y="-306.0" type="line"/>
      <point x="192.06666666666666" y="-306.0" type="line"/>
      <point x="214.5" y="686.5" type="line"/>
    </contour>
  </outline>
</glyph>
<glyph name="cent" format="2">
  <advance width="1020"/>
  <unicode hex="00A2"/>
  <outline>
    <contour>
      <point x="533.2" y="351.0" type="qcurve" smooth="yes"/>
      <point x="637.0" y="351.0"/>
      <point x="677.6333333333333" y="463.8666666666667"/>
      <point x="673.6666666666667" y="536.4333333333334" type="qcurve"/>
      <point x="956.4" y="536.4333333333334" type="line"/>
      <point x="960.9333333333334" y="364.7"/>
      <point x="765.9" y="135.26666666666668"/>
      <point x="538.3333333333334" y="135.26666666666668" type="qcurve" smooth="yes"/>
      <point x="349.1333333333333" y="135.26666666666668"/>
      <point x="84.33333333333333" y="393.9666666666667"/>
      <point x="84.33333333333333" y="677.2666666666667" type="qcurve" smooth="yes"/>
      <point x="84.33333333333333" y="703.6" type="line" smooth="yes"/>
      <point x="84.33333333333333" y="986.9"/>
      <point x="348.6333333333333" y="1245.1"/>
      <point x="546.8666666666667" y="1245.1" type="qcurve" smooth="yes"/>
      <point x="755.2" y="1245.1"/>
      <point x="951.3666666666667" y="1025.7"/>
      <point x="950.9" y="862.4333333333333" type="qcurve"/>
      <point x="674.1666666666666" y="862.4333333333333" type="line"/>
      <point x="678.1333333333333" y="935.4666666666667"/>
      <point x="629.2333333333333" y="1027.8"/>
      <point x="543.3" y="1027.8" type="qcurve" smooth="yes"/>
      <point x="476.8333333333333" y="1027.8"/>
      <point x="382.06666666666666" y="906.7666666666667"/>
      <point x="382.06666666666666" y="752.1" type="qcurve" smooth="yes"/>
      <point x="382.06666666666666" y="628.7666666666667" type="line" smooth="yes"/>
      <point x="382.06666666666666" y="474.73333333333335"/>
      <point x="470.2" y="351.0"/>
    </contour>
    <contour>
      <point x="440.4" y="0.0" type="line"/>
      <point x="440.4" y="237.0" type="line"/>
      <point x="445.4" y="251.0" type="line"/>
      <point x="445.4" y="708.0" type="line"/>
      <point x="585.4" y="708.0" type="line"/>
      <point x="585.4" y="250.0" type="line"/>
      <point x="590.4" y="240.0" type="line"/>
      <point x="590.4" y="0.0" type="line"/>
    </contour>
    <contour>
      <point x="445.4" y="708.0" type="line"/>
      <point x="445.4" y="1182.0" type="line"/>
      <point x="440.4" y="1192.0" type="line"/>
      <point x="440.4" y="1402.0" type="line"/>
      <point x="590.4" y="1402.0" type="line"/>
      <point x="590.4" y="1192.0" type="line"/>
      <point x="585.4" y="1179.0" type="line"/>
      <point x="585.4" y="708.0" type="line"/>
    </contour>
  </outline>
</glyph>
<glyph name="sterling" format="2">
  <advance width="1034"/>
  <unicode hex="00A3"/>
  <outline>
    <contour>
      <point x="1021.3333333333334" y="0.0" type="line"/>
      <point x="36.0" y="0.0" type="line"/>
      <point x="36.0" y="219.5" type="line"/>
      <point x="92.0" y="219.5" type="line" smooth="yes"/>
      <point x="184.0" y="219.5"/>
      <point x="259.0" y="378.5"/>
      <point x="247.5" y="497.5" type="qcurve" smooth="yes"/>
      <point x="195.0" y="1039.0" type="line" smooth="yes"/>
      <point x="173.86666666666667" y="1262.4666666666667"/>
      <point x="370.43333333333334" y="1476.0"/>
      <point x="577.6666666666666" y="1476.0" type="qcurve" smooth="yes"/>
      <point x="772.3333333333334" y="1476.0"/>
      <point x="977.3333333333334" y="1271.8666666666666"/>
      <point x="977.3333333333334" y="1068.0" type="qcurve" smooth="yes"/>
      <point x="977.3333333333334" y="1052.0" type="line"/>
      <point x="685.3333333333334" y="1052.0" type="line"/>
      <point x="685.3333333333334" y="1068.0" type="line" smooth="yes"/>
      <point x="685.3333333333334" y="1155.4333333333334"/>
      <point x="636.1666666666666" y="1269.0"/>
      <point x="579.6666666666666" y="1269.0" type="qcurve" smooth="yes"/>
      <point x="515.4666666666667" y="1269.0"/>
      <point x="473.6333333333333" y="1140.9333333333334"/>
      <point x="483.0" y="1039.0" type="qcurve" smooth="yes"/>
      <point x="531.5" y="531.5" type="line" smooth="yes"/>
      <point x="542.5" y="418.0"/>
      <point x="482.0" y="258.5"/>
      <point x="412.0" y="224.5" type="qcurve"/>
      <point x="1021.3333333333334" y="224.5" type="line"/>
    </contour>
    <contour>
      <point x="789.8333333333334" y="605.7666666666667" type="line"/>
      <point x="52.0" y="605.7666666666667" type="line"/>
      <point x="52.0" y="781.2333333333333" type="line"/>
      <point x="789.8333333333334" y="781.2333333333333" type="line"/>
    </contour>
  </outline>
</glyph>
<glyph name="currency" format="2">
  <advance width="1140"/>
  <unicode hex="00A4"/>
  <guideline x="0" y="901.0" angle="0" identifier="bRYxxRaQQf"/>
  <guideline x="0" y="555.0" angle="0" identifier="917FhrihjR"/>
  <outline>
    <contour>
      <point x="338.0" y="712.0" type="qcurve"/>
      <point x="338.0" y="583.0"/>
      <point x="449.6666666666667" y="410.5"/>
      <point x="567.1666666666666" y="410.5" type="qcurve" smooth="yes"/>
      <point x="683.6666666666666" y="410.5"/>
      <point x="794.3333333333334" y="583.0"/>
      <point x="794.3333333333334" y="712.0" type="qcurve" smooth="yes"/>
      <point x="794.3333333333334" y="839.0"/>
      <point x="683.6666666666666" y="1011.5"/>
      <point x="567.1666666666666" y="1011.5" type="qcurve" smooth="yes"/>
      <point x="449.6666666666667" y="1011.5"/>
      <point x="338.0" y="839.0"/>
    </contour>
    <contour>
      <point x="101.5" y="718.0" type="qcurve"/>
      <point x="101.5" y="942.5"/>
      <point x="356.6666666666667" y="1247.0"/>
      <point x="566.1666666666666" y="1247.0" type="qcurve" smooth="yes"/>
      <point x="775.6666666666666" y="1247.0"/>
      <point x="1030.8333333333333" y="942.5"/>
      <point x="1030.8333333333333" y="718.0" type="qcurve" smooth="yes"/>
      <point x="1030.8333333333333" y="495.0"/>
      <point x="775.6666666666666" y="187.0"/>
      <point x="566.1666666666666" y="187.0" type="qcurve" smooth="yes"/>
      <point x="356.6666666666667" y="187.0"/>
      <point x="101.5" y="495.0"/>
    </contour>
    <contour>
      <point x="1080.8333333333333" y="1196.5" type="line"/>
      <point x="869.8333333333334" y="981.0" type="line"/>
      <point x="742.3333333333334" y="1114.0" type="line"/>
      <point x="953.3333333333334" y="1329.5" type="line"/>
    </contour>
    <contour>
      <point x="368.5" y="336.5" type="line"/>
      <point x="157.5" y="121.0" type="line"/>
      <point x="31.0" y="253.0" type="line"/>
      <point x="242.0" y="467.5" type="line"/>
    </contour>
    <contour>
      <point x="980.8333333333334" y="128.5" type="line"/>
      <point x="769.8333333333334" y="344.0" type="line"/>
      <point x="898.3333333333334" y="475.5" type="line"/>
      <point x="1109.3333333333333" y="261.5" type="line"/>
    </contour>
    <contour>
      <point x="260.0" y="995.5" type="line"/>
      <point x="49.0" y="1211.0" type="line"/>
      <point x="175.5" y="1343.0" type="line"/>
      <point x="386.5" y="1127.5" type="line"/>
    </contour>
  </outline>
</glyph>
<glyph name="yen" format="2">
  <advance width="1074"/>
  <unicode hex="00A5"/>
  <outline>
    <contour>
      <point x="59.0" y="296.0" type="line"/>
      <point x="59.0" y="470.0" type="line"/>
      <point x="1017.5333333333333" y="470.0" type="line"/>
      <point x="1017.5333333333333" y="296.0" type="line"/>
    </contour>
    <contour>
      <point x="59.0" y="606.0" type="line"/>
      <point x="59.0" y="775.0" type="line"/>
      <point x="388.73333333333335" y="775.0" type="line"/>
      <point x="441.73333333333335" y="669.0" type="line"/>
      <point x="650.7333333333333" y="669.0" type="line"/>
      <point x="698.7333333333333" y="775.0" type="line"/>
      <point x="1017.5333333333333" y="775.0" type="line"/>
      <point x="1017.5333333333333" y="606.0" type="line"/>
    </contour>
    <contour>
      <point x="399.73333333333335" y="0.0" type="line"/>
      <point x="399.73333333333335" y="548.0" type="line"/>
      <point x="-19.0" y="1456.0" type="line"/>
      <point x="310.0" y="1456.0" type="line"/>
      <point x="500.73333333333335" y="956.5" type="line" smooth="yes"/>
      <point x="512.6" y="926.5"/>
      <point x="547.7333333333333" y="823.5"/>
      <point x="554.7333333333333" y="786.5" type="qcurve"/>
      <point x="568.7333333333333" y="786.5" type="line"/>
      <point x="577.7333333333333" y="842.5"/>
      <point x="608.7333333333333" y="926.5"/>
      <point x="622.7333333333333" y="956.5" type="qcurve" smooth="yes"/>
      <point x="802.0333333333333" y="1456.0" type="line"/>
      <point x="1087.5333333333333" y="1456.0" type="line"/>
      <point x="683.7333333333333" y="548.0" type="line"/>
      <point x="683.7333333333333" y="0.0" type="line"/>
    </contour>
  </outline>
</glyph>
<glyph name="brokenbar" format="2">
  <advance width="657"/>
  <unicode hex="00A6"/>
  <guideline x="0" y="901.0" angle="0" identifier="jmguX8NWKI"/>
  <guideline x="0" y="555.0" angle="0" identifier="Z0RZpP7MTi"/>
  <outline>
    <contour>
      <point x="479.0" y="-416.0" type="line"/>
      <point x="177.5" y="-416.0" type="line"/>
      <point x="177.5" y="359.0" type="line"/>
      <point x="479.0" y="359.0" type="line"/>
    </contour>
    <contour>
      <point x="479.0" y="1536.0" type="line"/>
      <point x="479.0" y="761.0" type="line"/>
      <point x="177.5" y="761.0" type="line"/>
      <point x="177.5" y="1536.0" type="line"/>
    </contour>
  </outline>
</glyph>
<glyph name="section" format="2">
  <advance width="1359"/>
  <unicode hex="00A7"/>
  <guideline x="0" y="1658.0" angle="0" identifier="QzZ5gIiCyn"/>
  <guideline x="0" y="578.0" angle="0" identifier="9Hxjf2sdFw"/>
  <outline>
    <contour>
      <point x="798.0" y="82.5" type="qcurve"/>
      <point x="798.0" y="309.0" type="line"/>
      <point x="845.3666666666667" y="317.0"/>
      <point x="897.6666666666666" y="395.1666666666667"/>
      <point x="897.6666666666666" y="457.0" type="qcurve"/>
      <point x="897.6666666666666" y="534.0"/>
      <point x="824.5" y="626.0"/>
      <point x="635.0" y="679.5" type="qcurve" smooth="yes"/>
      <point x="431.7" y="733.4333333333333"/>
      <point x="232.83333333333334" y="934.5666666666666"/>
      <point x="232.33333333333334" y="1092.0" type="qcurve" smooth="yes"/>
      <point x="232.33333333333334" y="1285.8666666666666"/>
      <point x="477.3333333333333" y="1497.5"/>
      <point x="673.5" y="1498.0" type="qcurve" smooth="yes"/>
      <point x="868.4333333333334" y="1498.5"/>
      <point x="1086.1666666666667" y="1274.6666666666667"/>
      <point x="1085.6666666666667" y="1073.5" type="qcurve"/>
      <point x="819.6666666666666" y="1073.5" type="line"/>
      <point x="820.1666666666666" y="1173.4333333333334"/>
      <point x="746.4666666666667" y="1269.5"/>
      <point x="674.5" y="1269.5" type="qcurve" smooth="yes"/>
      <point x="608.5333333333333" y="1269.5"/>
      <point x="532.8333333333334" y="1187.7333333333333"/>
      <point x="532.8333333333334" y="1118.0" type="qcurve" smooth="yes"/>
      <point x="532.8333333333334" y="1054.6"/>
      <point x="646.2333333333333" y="959.8"/>
      <point x="782.0" y="924.0" type="qcurve" smooth="yes"/>
      <point x="982.5" y="868.0"/>
      <point x="1204.6666666666667" y="668.0"/>
      <point x="1205.1666666666667" y="476.0" type="qcurve" smooth="yes"/>
      <point x="1205.1666666666667" y="308.8"/>
      <point x="988.0333333333333" y="95.0"/>
    </contour>
    <contour>
      <point x="579.1666666666666" y="927.5" type="qcurve"/>
      <point x="578.6666666666666" y="702.5" type="line"/>
      <point x="524.5" y="697.0"/>
      <point x="464.83333333333337" y="618.5"/>
      <point x="464.83333333333337" y="560.5" type="qcurve" smooth="yes"/>
      <point x="464.83333333333337" y="493.5"/>
      <point x="530.0" y="421.0"/>
      <point x="720.0" y="362.0" type="qcurve" smooth="yes"/>
      <point x="932.5" y="295.6"/>
      <point x="1123.1666666666667" y="74.96666666666667"/>
      <point x="1123.6666666666667" y="-98.5" type="qcurve" smooth="yes"/>
      <point x="1123.6666666666667" y="-314.9"/>
      <point x="876.3" y="-529.0"/>
      <point x="645.5" y="-529.0" type="qcurve" smooth="yes"/>
      <point x="407.1" y="-529.0"/>
      <point x="154.33333333333334" y="-292.6666666666667"/>
      <point x="154.33333333333334" y="-58.0" type="qcurve"/>
      <point x="452.83333333333337" y="-57.0" type="line"/>
      <point x="452.83333333333337" y="-173.46666666666667"/>
      <point x="530.9333333333334" y="-301.5"/>
      <point x="645.0" y="-301.5" type="qcurve" smooth="yes"/>
      <point x="742.7333333333333" y="-301.5"/>
      <point x="824.6666666666666" y="-211.86666666666667"/>
      <point x="824.6666666666666" y="-132.5" type="qcurve" smooth="yes"/>
      <point x="824.6666666666666" y="-47.733333333333334"/>
      <point x="713.8666666666667" y="61.5"/>
      <point x="564.0" y="100.0" type="qcurve" smooth="yes"/>
      <point x="361.5" y="154.0"/>
      <point x="156.33333333333334" y="359.5"/>
      <point x="155.83333333333334" y="533.0" type="qcurve" smooth="yes"/>
      <point x="155.83333333333334" y="690.2"/>
      <point x="372.06666666666666" y="919.0"/>
    </contour>
  </outline>
</glyph>
<glyph name="dieresis" format="2">
  <advance width="1024"/>
  <unicode hex="00A8"/>
  <outline>
    <contour>
      <point x="166.16666666666666" y="1325.0" type="qcurve" smooth="yes"/>
      <point x="166.16666666666666" y="1385.0"/>
      <point x="244.66666666666666" y="1466.0"/>
      <point x="318.1666666666667" y="1466.0" type="qcurve" smooth="yes"/>
      <point x="391.6666666666667" y="1466.0"/>
      <point x="470.66666666666663" y="1385.0"/>
      <point x="470.66666666666663" y="1325.0" type="qcurve" smooth="yes"/>
      <point x="470.66666666666663" y="1266.5"/>
      <point x="391.6666666666667" y="1185.5"/>
      <point x="317.6666666666667" y="1185.5" type="qcurve" smooth="yes"/>
      <point x="244.16666666666666" y="1185.5"/>
      <point x="166.16666666666666" y="1266.5"/>
    </contour>
    <contour>
      <point x="552.8333333333334" y="1324.0" type="qcurve" smooth="yes"/>
      <point x="552.8333333333334" y="1384.0"/>
      <point x="630.8333333333334" y="1465.0"/>
      <point x="704.8333333333334" y="1465.0" type="qcurve" smooth="yes"/>
      <point x="778.3333333333334" y="1465.0"/>
      <point x="857.8333333333334" y="1384.0"/>
      <point x="857.8333333333334" y="1324.0" type="qcurve" smooth="yes"/>
      <point x="857.8333333333334" y="1265.5"/>
      <point x="778.3333333333334" y="1184.5"/>
      <point x="704.3333333333334" y="1184.5" type="qcurve" smooth="yes"/>
      <point x="630.3333333333334" y="1184.5"/>
      <point x="552.8333333333334" y="1265.5"/>
    </contour>
  </outline>
</glyph>
<glyph name="copyright" format="2">
  <advance width="1654"/>
  <unicode hex="00A9"/>
  <guideline x="0" y="901.0" angle="0" identifier="0Pjz0qKr8z"/>
  <guideline x="0" y="555.0" angle="0" identifier="sJo8BlDiJ7"/>
  <outline>
    <contour>
      <point x="941.1333333333333" y="564.0" type="qcurve"/>
      <point x="1205.1333333333334" y="564.0" type="line"/>
      <point x="1205.1333333333334" y="403.4666666666667"/>
      <point x="1015.2333333333333" y="204.5"/>
      <point x="828.4666666666667" y="204.5" type="qcurve" smooth="yes"/>
      <point x="636.8" y="204.5"/>
      <point x="430.8" y="449.4"/>
      <point x="430.8" y="670.0" type="qcurve" smooth="yes"/>
      <point x="430.8" y="703.5" type="line" smooth="yes"/>
      <point x="430.8" y="927.3"/>
      <point x="645.3333333333334" y="1172.0"/>
      <point x="836.9666666666667" y="1172.0" type="qcurve" smooth="yes"/>
      <point x="1009.6666666666666" y="1172.0"/>
      <point x="1199.6333333333334" y="985.1666666666666"/>
      <point x="1206.1333333333334" y="812.0" type="qcurve"/>
      <point x="942.1333333333333" y="812.0" type="line"/>
      <point x="942.1333333333333" y="883.8"/>
      <point x="885.2333333333333" y="965.0"/>
      <point x="834.4666666666667" y="965.0" type="qcurve" smooth="yes"/>
      <point x="776.7666666666667" y="965.0"/>
      <point x="708.3" y="854.7666666666667"/>
      <point x="708.3" y="739.5" type="qcurve" smooth="yes"/>
      <point x="708.3" y="634.0" type="line" smooth="yes"/>
      <point x="708.3" y="519.3"/>
      <point x="772.9333333333334" y="408.0"/>
      <point x="838.4666666666667" y="408.0" type="qcurve" smooth="yes"/>
      <point x="886.4" y="408.0"/>
      <point x="941.1333333333333" y="486.0"/>
    </contour>
    <contour>
      <point x="219.3" y="687.0" type="qcurve" smooth="yes"/>
      <point x="219.3" y="394.5"/>
      <point x="546.4666666666667" y="4.0"/>
      <point x="827.9666666666667" y="4.0" type="qcurve" smooth="yes"/>
      <point x="1108.4666666666667" y="4.0"/>
      <point x="1435.6333333333334" y="394.5"/>
      <point x="1435.6333333333334" y="687.0" type="qcurve" smooth="yes"/>
      <point x="1435.6333333333334" y="979.5"/>
      <point x="1108.4666666666667" y="1367.0"/>
      <point x="827.9666666666667" y="1367.0" type="qcurve" smooth="yes"/>
      <point x="546.4666666666667" y="1367.0"/>
      <point x="219.3" y="979.5"/>
    </contour>
    <contour>
      <point x="66.3" y="687.0" type="qcurve" smooth="yes"/>
      <point x="66.3" y="1044.5"/>
      <point x="480.9666666666667" y="1519.0"/>
      <point x="826.9666666666667" y="1519.0" type="qcurve" smooth="yes"/>
      <point x="1172.4666666666667" y="1519.0"/>
      <point x="1588.1333333333334" y="1044.5"/>
      <point x="1588.1333333333334" y="687.0" type="qcurve" smooth="yes"/>
      <point x="1588.1333333333334" y="330.0"/>
      <point x="1172.4666666666667" y="-147.0"/>
      <point x="826.9666666666667" y="-147.0" type="qcurve" smooth="yes"/>
      <point x="480.9666666666667" y="-147.0"/>
      <point x="66.3" y="330.0"/>
    </contour>
  </outline>
</glyph>
<glyph name="ordfeminine" format="2">
  <advance width="798"/>
  <unicode hex="00AA"/>
  <guideline x="0" y="1681.0" angle="0" identifier="3CJlALCfkl"/>
  <guideline x="0" y="909.0" angle="0" identifier="Zdl6NZVQAy"/>
  <outline>
    <contour>
      <point x="467.26666666666665" y="836.5" type="line"/>
      <point x="467.26666666666665" y="805.0"/>
      <point x="489.26666666666665" y="729.5"/>
      <point x="507.26666666666665" y="706.0" type="qcurve"/>
      <point x="717.7666666666667" y="706.0" type="line"/>
      <point x="703.2666666666667" y="746.5"/>
      <point x="687.7666666666667" y="832.0"/>
      <point x="687.7666666666667" y="887.0" type="qcurve" smooth="yes"/>
      <point x="687.7666666666667" y="1210.5" type="line" smooth="yes"/>
      <point x="687.7666666666667" y="1342.2333333333333"/>
      <point x="541.0666666666666" y="1477.0"/>
      <point x="405.43333333333334" y="1477.0" type="qcurve" smooth="yes"/>
      <point x="262.56666666666666" y="1477.0"/>
      <point x="108.6" y="1360.6"/>
      <point x="108.6" y="1247.5" type="qcurve" smooth="yes"/>
      <point x="108.6" y="1224.5" type="line"/>
      <point x="328.1" y="1224.5" type="line"/>
      <point x="328.1" y="1240.5" type="line" smooth="yes"/>
      <point x="328.1" y="1280.2"/>
      <point x="362.76666666666665" y="1320.5"/>
      <point x="399.93333333333334" y="1320.5" type="qcurve" smooth="yes"/>
      <point x="436.1666666666667" y="1320.5"/>
      <point x="467.26666666666665" y="1259.6666666666667"/>
      <point x="467.26666666666665" y="1212.0" type="qcurve" smooth="yes"/>
    </contour>
    <contour>
      <point x="508.26666666666665" y="1162.5" type="line"/>
      <point x="384.93333333333334" y="1162.5" type="line" smooth="yes"/>
      <point x="251.66666666666666" y="1162.5"/>
      <point x="79.6" y="1047.0666666666666"/>
      <point x="79.6" y="922.0" type="qcurve" smooth="yes"/>
      <point x="79.6" y="803.0333333333333"/>
      <point x="196.26666666666665" y="692.5"/>
      <point x="290.93333333333334" y="692.5" type="qcurve" smooth="yes"/>
      <point x="384.93333333333334" y="692.5"/>
      <point x="485.7" y="769.0"/>
      <point x="501.76666666666665" y="811.5" type="qcurve"/>
      <point x="486.26666666666665" y="945.0" type="line"/>
      <point x="478.76666666666665" y="909.0"/>
      <point x="422.93333333333334" y="847.5"/>
      <point x="367.93333333333334" y="847.5" type="qcurve" smooth="yes"/>
      <point x="336.4" y="847.5"/>
      <point x="303.6" y="888.6666666666666"/>
      <point x="303.6" y="933.0" type="qcurve" smooth="yes"/>
      <point x="303.6" y="986.7333333333333"/>
      <point x="356.9666666666667" y="1028.5"/>
      <point x="407.43333333333334" y="1028.5" type="qcurve" smooth="yes"/>
      <point x="508.26666666666665" y="1028.5" type="line"/>
    </contour>
  </outline>
</glyph>
<glyph name="guillemotleft" format="2">
  <advance width="1041"/>
  <unicode hex="00AB"/>
  <guideline x="0" y="901.0" angle="0" identifier="ZftBQarVKw"/>
  <guideline x="0" y="555.0" angle="0" identifier="MVJpdoVRVd"/>
  <outline>
    <contour>
      <point x="73.5" y="501.5" type="line"/>
      <point x="73.5" y="601.5" type="line"/>
      <point x="315.16666666666663" y="954.0" type="line"/>
      <point x="531.6666666666666" y="954.0" type="line"/>
      <point x="322.5" y="551.0" type="line"/>
      <point x="531.6666666666666" y="148.0" type="line"/>
      <point x="315.16666666666663" y="148.0" type="line"/>
    </contour>
    <contour>
      <point x="548.0" y="501.5" type="line"/>
      <point x="548.0" y="601.5" type="line"/>
      <point x="789.6666666666666" y="954.0" type="line"/>
      <point x="1006.1666666666666" y="954.0" type="line"/>
      <point x="797.0" y="551.0" type="line"/>
      <point x="1006.1666666666666" y="148.0" type="line"/>
      <point x="789.6666666666666" y="148.0" type="line"/>
    </contour>
  </outline>
</glyph>
<glyph name="logicalnot" format="2">
  <advance width="976"/>
  <unicode hex="00AC"/>
  <outline>
    <contour>
      <point x="867.8333333333334" y="816.0" type="line"/>
      <point x="867.8333333333334" y="326.0" type="line"/>
      <point x="590.7333333333333" y="326.0" type="line"/>
      <point x="590.7333333333333" y="588.9" type="line"/>
      <point x="64.0" y="588.9" type="line"/>
      <point x="64.0" y="816.0" type="line"/>
    </contour>
  </outline>
</glyph>
<glyph name="registered" format="2">
  <advance width="1654"/>
  <unicode hex="00AE"/>
  <outline>
    <contour>
      <point x="66.3" y="687.0" type="qcurve" smooth="yes"/>
      <point x="66.3" y="1044.5"/>
      <point x="480.9666666666667" y="1519.0"/>
      <point x="826.9666666666667" y="1519.0" type="qcurve" smooth="yes"/>
      <point x="1172.4666666666667" y="1519.0"/>
      <point x="1588.1333333333334" y="1044.5"/>
      <point x="1588.1333333333334" y="687.0" type="qcurve" smooth="yes"/>
      <point x="1588.1333333333334" y="330.0"/>
      <point x="1172.4666666666667" y="-147.0"/>
      <point x="826.9666666666667" y="-147.0" type="qcurve" smooth="yes"/>
      <point x="480.9666666666667" y="-147.0"/>
      <point x="66.3" y="330.0"/>
    </contour>
    <contour>
      <point x="219.3" y="687.0" type="qcurve" smooth="yes"/>
      <point x="219.3" y="394.5"/>
      <point x="546.4666666666667" y="4.0"/>
      <point x="827.9666666666667" y="4.0" type="qcurve" smooth="yes"/>
      <point x="1108.4666666666667" y="4.0"/>
      <point x="1435.6333333333334" y="394.5"/>
      <point x="1435.6333333333334" y="687.0" type="qcurve" smooth="yes"/>
      <point x="1435.6333333333334" y="979.5"/>
      <point x="1108.4666666666667" y="1367.0"/>
      <point x="827.9666666666667" y="1367.0" type="qcurve" smooth="yes"/>
      <point x="546.4666666666667" y="1367.0"/>
      <point x="219.3" y="979.5"/>
    </contour>
    <contour>
      <point x="824.4666666666667" y="581.0" type="line"/>
      <point x="755.8" y="581.0" type="line"/>
      <point x="755.8" y="225.0" type="line"/>
      <point x="538.3" y="225.0" type="line"/>
      <point x="538.3" y="1158.5" type="line"/>
      <point x="833.9666666666667" y="1158.5" type="line" smooth="yes"/>
      <point x="992.4666666666667" y="1158.5"/>
      <point x="1158.6333333333334" y="1009.1"/>
      <point x="1158.6333333333334" y="873.5" type="qcurve" smooth="yes"/>
      <point x="1158.6333333333334" y="772.4"/>
      <point x="1063.2666666666667" y="621.6666666666666"/>
      <point x="988.8666666666667" y="607.5" type="qcurve"/>
      <point x="1009.3666666666667" y="592.5"/>
      <point x="1038.0666666666666" y="563.6333333333333"/>
      <point x="1049.8666666666668" y="536.0" type="qcurve" smooth="yes"/>
      <point x="1174.6333333333334" y="249.0" type="line"/>
      <point x="1174.6333333333334" y="225.0" type="line"/>
      <point x="943.1333333333333" y="225.0" type="line"/>
    </contour>
    <contour>
      <point x="827.9666666666667" y="986.5" type="qcurve" smooth="yes"/>
      <point x="755.8" y="986.5" type="line"/>
      <point x="755.8" y="743.5" type="line"/>
      <point x="840.4666666666667" y="743.5" type="line" smooth="yes"/>
      <point x="892.4" y="743.5"/>
      <point x="933.1333333333333" y="804.9"/>
      <point x="933.1333333333333" y="859.0" type="qcurve" smooth="yes"/>
      <point x="933.6333333333333" y="915.7666666666667"/>
      <point x="867.2" y="986.0"/>
    </contour>
  </outline>
</glyph>
<glyph name="macron" format="2">
  <advance width="1024"/>
  <unicode hex="00AF"/>
  <outline>
    <contour>
      <point x="792.6666666666666" y="1480.0" type="line"/>
      <point x="792.6666666666666" y="1278.0" type="line"/>
      <point x="231.33333333333334" y="1278.0" type="line"/>
      <point x="231.33333333333334" y="1480.0" type="line"/>
    </contour>
  </outline>
</glyph>
<glyph name="degree" format="2">
  <advance width="752"/>
  <unicode hex="00B0"/>
  <outline>
    <contour>
      <point x="116.16666666666667" y="1198.5" type="qcurve" smooth="yes"/>
      <point x="116.16666666666667" y="1319.4666666666667"/>
      <point x="264.3" y="1477.0"/>
      <point x="379.0" y="1477.0" type="qcurve" smooth="yes"/>
      <point x="491.6333333333333" y="1477.0"/>
      <point x="637.3333333333334" y="1319.48358208957"/>
      <point x="637.3333333333334" y="1198.5" type="qcurve" smooth="yes"/>
      <point x="637.3333333333334" y="1078.5059701492266"/>
      <point x="491.6417910447567" y="923.0"/>
      <point x="379.0" y="923.0" type="qcurve" smooth="yes"/>
      <point x="264.14776119404" y="923.0"/>
      <point x="116.16666666666667" y="1078.1666666666667"/>
    </contour>
    <contour>
      <point x="261.1666666666667" y="1198.5" type="qcurve" smooth="yes"/>
      <point x="261.1666666666667" y="1141.0601990049668"/>
      <point x="325.41442786070667" y="1067.0"/>
      <point x="379.0" y="1067.0" type="qcurve" smooth="yes"/>
      <point x="429.45223880596" y="1067.0"/>
      <point x="492.3333333333333" y="1141.0601990049668"/>
      <point x="492.3333333333333" y="1198.5" type="qcurve" smooth="yes"/>
      <point x="492.3333333333333" y="1258.6502487562368"/>
      <point x="429.45223880596" y="1333.0"/>
      <point x="379.0" y="1333.0" type="qcurve" smooth="yes"/>
      <point x="325.41442786070667" y="1333.0"/>
      <point x="261.1666666666667" y="1258.6502487562368"/>
    </contour>
  </outline>
</glyph>
<glyph name="plusminus" format="2">
  <advance width="1024"/>
  <unicode hex="00B1"/>
  <outline>
    <contour>
      <point x="81.73333333333333" y="575.1333333333333" type="line"/>
      <point x="81.73333333333333" y="813.3666666666667" type="line"/>
      <point x="942.2666666666667" y="813.3666666666667" type="line"/>
      <point x="942.2666666666667" y="575.1333333333333" type="line"/>
    </contour>
    <contour>
      <point x="371.26666666666665" y="213.5" type="line"/>
      <point x="371.26666666666665" y="1184.5" type="line"/>
      <point x="652.2333333333333" y="1184.5" type="line"/>
      <point x="652.2333333333333" y="213.5" type="line"/>
    </contour>
    <contour>
      <point x="84.73333333333333" y="1.0" type="line"/>
      <point x="84.73333333333333" y="243.5" type="line"/>
      <point x="939.2666666666667" y="243.5" type="line"/>
      <point x="939.2666666666667" y="1.0" type="line"/>
    </contour>
  </outline>
</glyph>
<glyph name="twosuperior" format="2">
  <advance width="672"/>
  <unicode hex="00B2"/>
  <outline>
    <contour>
      <point x="62.03333333333333" y="697.0" type="line"/>
      <point x="62.03333333333333" y="812.5" type="line"/>
      <point x="284.0333333333333" y="1093.5" type="line" smooth="yes"/>
      <point x="330.56666666666666" y="1153.5333333333333"/>
      <point x="388.8666666666667" y="1224.0"/>
      <point x="388.8666666666667" y="1257.5" type="qcurve" smooth="yes"/>
      <point x="388.8666666666667" y="1297.6333333333334"/>
      <point x="357.83333333333337" y="1340.3333333333333"/>
      <point x="330.0333333333333" y="1340.3333333333333" type="qcurve" smooth="yes"/>
      <point x="291.26666666666665" y="1340.3333333333333"/>
      <point x="257.2" y="1269.4333333333334"/>
      <point x="257.7" y="1196.0" type="qcurve"/>
      <point x="49.03333333333333" y="1196.0" type="line"/>
      <point x="48.53333333333333" y="1344.5333333333333"/>
      <point x="190.26666666666665" y="1487.0"/>
      <point x="327.0333333333333" y="1487.0" type="qcurve" smooth="yes"/>
      <point x="469.8" y="1487.0"/>
      <point x="601.5333333333333" y="1372.4"/>
      <point x="602.0333333333333" y="1262.0" type="qcurve" smooth="yes"/>
      <point x="602.0333333333333" y="1207.6"/>
      <point x="524.4666666666667" y="1080.0"/>
      <point x="445.7" y="994.0" type="qcurve" smooth="yes"/>
      <point x="329.2" y="855.0" type="line"/>
      <point x="623.5333333333333" y="855.0" type="line"/>
      <point x="623.5333333333333" y="697.0" type="line"/>
    </contour>
  </outline>
</glyph>
<glyph name="threesuperior" format="2">
  <advance width="658"/>
  <unicode hex="00B3"/>
  <outline>
    <contour>
      <point x="45.8" y="921.6666666666666" type="qcurve"/>
      <point x="252.8" y="921.6666666666666" type="line"/>
      <point x="252.8" y="875.6"/>
      <point x="285.9666666666667" y="829.1666666666666"/>
      <point x="329.8" y="829.1666666666666" type="qcurve" smooth="yes"/>
      <point x="367.66666666666663" y="829.1666666666666"/>
      <point x="407.1333333333333" y="881.3666666666667"/>
      <point x="407.1333333333333" y="932.0" type="qcurve" smooth="yes"/>
      <point x="407.1333333333333" y="979.5"/>
      <point x="376.3" y="1032.9666666666667"/>
      <point x="312.8" y="1031.3333333333333" type="qcurve" smooth="yes"/>
      <point x="258.8" y="1031.3333333333333" type="line"/>
      <point x="258.8" y="1157.6666666666667" type="line"/>
      <point x="310.3" y="1157.6666666666667" type="line" smooth="yes"/>
      <point x="366.3" y="1157.6666666666667"/>
      <point x="389.6333333333333" y="1212.0"/>
      <point x="389.6333333333333" y="1255.0" type="qcurve" smooth="yes"/>
      <point x="389.6333333333333" y="1298.2666666666667"/>
      <point x="353.33333333333337" y="1342.8333333333333"/>
      <point x="324.3" y="1342.8333333333333" type="qcurve" smooth="yes"/>
      <point x="287.3333333333333" y="1342.8333333333333"/>
      <point x="261.8" y="1301.4666666666667"/>
      <point x="261.8" y="1254.3333333333333" type="qcurve"/>
      <point x="55.3" y="1254.3333333333333" type="line"/>
      <point x="55.3" y="1367.3666666666666"/>
      <point x="183.03333333333333" y="1486.5"/>
      <point x="327.3" y="1486.5" type="qcurve" smooth="yes"/>
      <point x="476.1666666666667" y="1486.5"/>
      <point x="599.8" y="1367.4333333333334"/>
      <point x="599.8" y="1262.5" type="qcurve" smooth="yes"/>
      <point x="599.8" y="1212.5"/>
      <point x="534.8" y="1123.0"/>
      <point x="468.8" y="1102.0" type="qcurve"/>
      <point x="542.3" y="1083.0"/>
      <point x="617.8" y="990.0"/>
      <point x="617.8" y="921.0" type="qcurve" smooth="yes"/>
      <point x="617.8" y="809.9333333333333"/>
      <point x="481.0" y="686.0"/>
      <point x="324.8" y="686.0" type="qcurve" smooth="yes"/>
      <point x="178.06666666666666" y="686.0"/>
      <point x="45.8" y="812.7"/>
    </contour>
  </outline>
</glyph>
<glyph name="acute" format="2">
  <advance width="1024"/>
  <unicode hex="00B4"/>
  <outline>
    <contour>
      <point x="296.5" y="1323.0" type="line"/>
      <point x="552.0" y="1645.5" type="line"/>
      <point x="776.0" y="1507.0" type="line"/>
      <point x="456.5" y="1204.0" type="line"/>
    </contour>
  </outline>
</glyph>
<glyph name="micro" format="2">
  <advance width="1105"/>
  <unicode hex="00B5"/>
  <outline>
    <contour>
      <point x="210.86666666666667" y="1052.0" type="line"/>
      <point x="499.8333333333333" y="1052.0" type="line"/>
      <point x="367.8333333333333" y="371.0" type="line" smooth="yes"/>
      <point x="350.3333333333333" y="285.6333333333333"/>
      <point x="375.23333333333335" y="207.5"/>
      <point x="432.8333333333333" y="207.5" type="qcurve" smooth="yes"/>
      <point x="478.3" y="207.5"/>
      <point x="555.2666666666667" y="264.5"/>
      <point x="610.9333333333334" y="346.0" type="qcurve"/>
      <point x="747.9333333333334" y="1052.0" type="line"/>
      <point x="1044.9333333333334" y="1052.0" type="line"/>
      <point x="840.9333333333334" y="0.0" type="line"/>
      <point x="561.9333333333334" y="0.0" type="line"/>
      <point x="577.9333333333334" y="125.0" type="line"/>
      <point x="571.9333333333334" y="125.0" type="line"/>
      <point x="525.1" y="53.5"/>
      <point x="432.8333333333333" y="-20.0"/>
      <point x="381.56666666666666" y="-20.0" type="qcurve" smooth="yes"/>
      <point x="334.1" y="-20.0"/>
      <point x="297.3666666666667" y="10.7"/>
      <point x="301.8333333333333" y="32.0" type="qcurve"/>
      <point x="215.83333333333331" y="-416.0" type="line"/>
      <point x="-73.13333333333333" y="-416.0" type="line"/>
    </contour>
  </outline>
</glyph>
<glyph name="paragraph" format="2">
  <advance width="1090"/>
  <unicode hex="00B6"/>
  <guideline x="0" y="901.0" angle="0" identifier="27539Lsr1A"/>
  <guideline x="0" y="555.0" angle="0" identifier="e34wUdCmXR"/>
  <outline>
    <contour>
      <point x="670.9666666666667" y="-146.0" type="line"/>
      <point x="440.6333333333333" y="-146.0" type="line"/>
      <point x="440.6333333333333" y="657.3333333333334" type="line"/>
      <point x="346.6333333333333" y="657.3333333333334" type="line" smooth="yes"/>
      <point x="219.83333333333334" y="657.3333333333334"/>
      <point x="57.266666666666666" y="881.8"/>
      <point x="57.266666666666666" y="1056.6666666666667" type="qcurve" smooth="yes"/>
      <point x="57.266666666666666" y="1231.6666666666667"/>
      <point x="219.83333333333334" y="1456.0"/>
      <point x="346.6333333333333" y="1456.0" type="qcurve" smooth="yes"/>
      <point x="670.9666666666667" y="1456.0" type="line"/>
    </contour>
    <contour>
      <point x="812.9666666666667" y="1459.0" type="line"/>
      <point x="988.3" y="1459.0" type="line"/>
      <point x="988.3" y="-146.0" type="line"/>
      <point x="812.9666666666667" y="-146.0" type="line"/>
    </contour>
  </outline>
</glyph>
<glyph name="periodcentered" format="2">
  <advance width="664"/>
  <unicode hex="00B7"/>
  <outline>
    <contour>
      <point x="142.0" y="748.5" type="qcurve" smooth="yes"/>
      <point x="142.0" y="820.5"/>
      <point x="237.5" y="922.0"/>
      <point x="326.5" y="922.0" type="qcurve" smooth="yes"/>
      <point x="416.5" y="922.0"/>
      <point x="511.5" y="820.5"/>
      <point x="511.5" y="748.5" type="qcurve" smooth="yes"/>
      <point x="511.5" y="676.5"/>
      <point x="416.5" y="575.0"/>
      <point x="326.5" y="575.0" type="qcurve" smooth="yes"/>
      <point x="237.5" y="575.0"/>
      <point x="142.0" y="677.0"/>
    </contour>
  </outline>
</glyph>
<glyph name="cedilla" format="2">
  <advance width="1024"/>
  <unicode hex="00B8"/>
  <outline>
    <contour>
      <point x="427.0" y="42.0" type="line"/>
      <point x="585.5" y="42.0" type="line"/>
      <point x="555.5" y="-58.5" type="line"/>
      <point x="631.5" y="-69.5"/>
      <point x="762.0" y="-150.0"/>
      <point x="762.0" y="-242.0" type="qcurve" smooth="yes"/>
      <point x="762.0" y="-340.5"/>
      <point x="561.5" y="-464.5"/>
      <point x="328.5" y="-463.5" type="qcurve"/>
      <point x="320.0" y="-339.5" type="line"/>
      <point x="450.0" y="-339.5"/>
      <point x="536.0" y="-295.0"/>
      <point x="536.0" y="-244.0" type="qcurve" smooth="yes"/>
      <point x="536.0" y="-197.5"/>
      <point x="468.5" y="-162.5"/>
      <point x="382.0" y="-155.5" type="qcurve"/>
    </contour>
  </outline>
</glyph>
<glyph name="onesuperior" format="2">
  <advance width="655"/>
  <unicode hex="00B9"/>
  <outline>
    <contour>
      <point x="108.0" y="1192.0" type="line"/>
      <point x="108.0" y="1373.0" type="line"/>
      <point x="364.66666666666663" y="1486.0" type="line"/>
      <point x="465.6666666666667" y="1486.0" type="line"/>
      <point x="465.6666666666667" y="697.0" type="line"/>
      <point x="265.66666666666663" y="697.0" type="line"/>
      <point x="265.66666666666663" y="1256.3333333333333" type="line"/>
    </contour>
  </outline>
</glyph>
<glyph name="ordmasculine" format="2">
  <advance width="859"/>
  <unicode hex="00BA"/>
  <guideline x="0" y="1975.0" angle="0" identifier="Jnt0R9CyOf"/>
  <outline>
    <contour>
      <point x="83.8" y="1058.0" type="qcurve"/>
      <point x="83.8" y="1110.0" type="line"/>
      <point x="83.8" y="1295.5666666666666"/>
      <point x="268.76666666666665" y="1477.5"/>
      <point x="430.3" y="1477.5" type="qcurve" smooth="yes"/>
      <point x="590.7666666666667" y="1477.5"/>
      <point x="776.3" y="1295.5666666666666"/>
      <point x="776.8" y="1110.0" type="qcurve"/>
      <point x="776.8" y="1058.0" type="line"/>
      <point x="776.3" y="872.9333333333333"/>
      <point x="591.2666666666667" y="691.0"/>
      <point x="431.3" y="691.0" type="qcurve" smooth="yes"/>
      <point x="269.26666666666665" y="691.0"/>
      <point x="83.8" y="872.9333333333333"/>
    </contour>
    <contour>
      <point x="312.3" y="1121.5" type="qcurve"/>
      <point x="312.3" y="1046.5" type="line"/>
      <point x="312.3" y="941.7"/>
      <point x="378.06666666666666" y="865.5"/>
      <point x="431.3" y="865.5" type="qcurve" smooth="yes"/>
      <point x="483.6" y="865.5"/>
      <point x="548.3" y="941.7"/>
      <point x="548.3" y="1046.5" type="qcurve"/>
      <point x="548.3" y="1121.5" type="line"/>
      <point x="548.3" y="1225.8666666666666"/>
      <point x="481.1" y="1301.5"/>
      <point x="429.8" y="1301.5" type="qcurve" smooth="yes"/>
      <point x="378.5" y="1301.5"/>
      <point x="312.3" y="1225.8666666666666"/>
    </contour>
  </outline>
</glyph>
<glyph name="guillemotright" format="2">
  <advance width="1041"/>
  <unicode hex="00BB"/>
  <guideline x="0" y="98.0" angle="0" identifier="MTEldNnfdj"/>
  <guideline x="0" y="443.0" angle="0" identifier="G9bQni2n1K"/>
  <outline>
    <contour>
      <point x="504.3666666666667" y="148.0" type="line"/>
      <point x="713.5333333333333" y="551.0" type="line"/>
      <point x="504.3666666666667" y="954.0" type="line"/>
      <point x="720.8666666666667" y="954.0" type="line"/>
      <point x="962.5333333333333" y="599.9333333333333" type="line"/>
      <point x="962.5333333333333" y="499.93333333333334" type="line"/>
      <point x="720.8666666666667" y="148.0" type="line"/>
    </contour>
    <contour>
      <point x="40.19999999999999" y="148.0" type="line"/>
      <point x="249.36666666666667" y="551.0" type="line"/>
      <point x="40.19999999999999" y="954.0" type="line"/>
      <point x="256.7" y="954.0" type="line"/>
      <point x="498.3666666666667" y="599.9333333333333" type="line"/>
      <point x="498.3666666666667" y="499.93333333333334" type="line"/>
      <point x="256.7" y="148.0" type="line"/>
    </contour>
  </outline>
</glyph>
<glyph name="questiondown" format="2">
  <advance width="1098"/>
  <unicode hex="00BF"/>
  <guideline x="0" y="-181.0" angle="0" identifier="apukwP5ffL"/>
  <guideline x="0" y="921.0" angle="0" identifier="5ZPZZL8Rim"/>
  <outline>
    <contour>
      <point x="764.7" y="1007.6333333333333" type="qcurve" smooth="yes"/>
      <point x="764.7" y="941.2"/>
      <point x="671.3333333333334" y="845.7666666666667"/>
      <point x="585.5333333333333" y="845.7666666666667" type="qcurve" smooth="yes"/>
      <point x="498.1666666666667" y="845.7666666666667"/>
      <point x="405.3" y="941.2"/>
      <point x="405.3" y="1007.6333333333333" type="qcurve" smooth="yes"/>
      <point x="405.3" y="1074.5666666666666"/>
      <point x="497.1" y="1170.0"/>
      <point x="584.4666666666667" y="1170.0" type="qcurve" smooth="yes"/>
      <point x="671.3333333333334" y="1170.0"/>
      <point x="764.7" y="1074.5666666666666"/>
    </contour>
    <contour>
      <point x="960.2333333333333" y="98.5" type="line"/>
      <point x="960.2333333333333" y="63.0" type="line" smooth="yes"/>
      <point x="960.2333333333333" y="-132.46666666666667"/>
      <point x="738.3666666666667" y="-328.0"/>
      <point x="559.6666666666666" y="-328.0" type="qcurve" smooth="yes"/>
      <point x="378.4666666666667" y="-328.0"/>
      <point x="152.53333333333333" y="-127.03333333333333"/>
      <point x="152.53333333333333" y="68.36666666666667" type="qcurve" smooth="yes"/>
      <point x="152.53333333333333" y="209.06666666666666"/>
      <point x="274.3333333333333" y="396.43333333333334"/>
      <point x="351.23333333333335" y="460.5" type="qcurve" smooth="yes"/>
      <point x="414.1666666666667" y="513.6666666666666"/>
      <point x="440.73333333333335" y="650.1333333333333"/>
      <point x="440.73333333333335" y="708.5" type="qcurve" smooth="yes"/>
      <point x="440.73333333333335" y="720.5" type="line"/>
      <point x="738.7" y="720.5" type="line"/>
      <point x="738.7" y="707.0" type="line" smooth="yes"/>
      <point x="738.7" y="589.6333333333333"/>
      <point x="688.7666666666667" y="422.2"/>
      <point x="594.3" y="330.8" type="qcurve" smooth="yes"/>
      <point x="522.1" y="261.93333333333334"/>
      <point x="454.5" y="161.93333333333334"/>
      <point x="454.5" y="74.86666666666667" type="qcurve" smooth="yes"/>
      <point x="454.5" y="-23.53333333333333"/>
      <point x="503.8333333333333" y="-108.33333333333334"/>
      <point x="561.6666666666666" y="-108.33333333333334" type="qcurve" smooth="yes"/>
      <point x="615.0" y="-108.33333333333334"/>
      <point x="666.7666666666667" y="-24.46666666666667"/>
      <point x="666.7666666666667" y="68.5" type="qcurve" smooth="yes"/>
      <point x="666.2666666666667" y="98.5" type="line"/>
    </contour>
  </outline>
</glyph>
<glyph name="AE" format="2">
  <advance width="1704"/>
  <unicode hex="00C6"/>
  <outline>
    <contour>
      <point x="246.5" y="318.1666666666667" type="line"/>
      <point x="338.0" y="531.7666666666667" type="line"/>
      <point x="915.8333333333334" y="531.7666666666667" type="line"/>
      <point x="915.8333333333334" y="318.1666666666667" type="line"/>
    </contour>
    <contour>
      <point x="-9.0" y="0.0" type="line"/>
      <point x="710.0666666666666" y="1456.0" type="line"/>
      <point x="1628.7" y="1456.0" type="line"/>
      <point x="1628.7" y="1228.3333333333333" type="line"/>
      <point x="1078.3" y="1228.3333333333333" type="line"/>
      <point x="1078.3" y="861.8666666666667" type="line"/>
      <point x="1537.7" y="861.8666666666667" type="line"/>
      <point x="1537.7" y="636.6333333333333" type="line"/>
      <point x="1078.3" y="636.6333333333333" type="line"/>
      <point x="1078.3" y="226.66666666666669" type="line"/>
      <point x="1639.2" y="226.66666666666669" type="line"/>
      <point x="1639.2" y="0.0" type="line"/>
      <point x="782.3333333333333" y="0.0" type="line"/>
      <point x="782.3333333333333" y="1114.3333333333333" type="line"/>
      <point x="246.0" y="0.0" type="line"/>
    </contour>
  </outline>
</glyph>
<glyph name="multiply" format="2">
  <advance width="949"/>
  <unicode hex="00D7"/>
  <outline>
    <contour>
      <point x="230.36666666666667" y="197.0" type="line"/>
      <point x="62.86666666666667" y="366.5" type="line"/>
      <point x="723.2" y="1140.5" type="line"/>
      <point x="890.7" y="970.5" type="line"/>
    </contour>
    <contour>
      <point x="718.2" y="197.0" type="line"/>
      <point x="64.86666666666667" y="965.5" type="line"/>
      <point x="237.86666666666667" y="1141.0" type="line"/>
      <point x="891.2" y="372.0" type="line"/>
    </contour>
  </outline>
</glyph>
<glyph name="Thorn" format="2">
  <advance width="1179"/>
  <unicode hex="00DE"/>
  <guideline x="0" y="901.0" angle="0" identifier="i9jYwjBDP4"/>
  <guideline x="0" y="555.0" angle="0" identifier="T8KKW8oxop"/>
  <outline>
    <contour>
      <point x="155.0" y="1456.0" type="line"/>
      <point x="455.3666666666667" y="1456.0" type="line"/>
      <point x="455.3666666666667" y="1201.6333333333334" type="line"/>
      <point x="637.5666666666667" y="1201.6333333333334" type="line" smooth="yes"/>
      <point x="862.4" y="1201.6333333333334"/>
      <point x="1103.0333333333333" y="988.6666666666666"/>
      <point x="1103.0333333333333" y="740.2" type="qcurve" smooth="yes"/>
      <point x="1103.0333333333333" y="492.23333333333335"/>
      <point x="862.9" y="271.3666666666667"/>
      <point x="637.0666666666667" y="270.3" type="qcurve" smooth="yes"/>
      <point x="456.93333333333334" y="270.3" type="line"/>
      <point x="456.93333333333334" y="0.0" type="line"/>
      <point x="155.0" y="0.0" type="line"/>
    </contour>
    <contour>
      <point x="609.5666666666667" y="973.0" type="qcurve" smooth="yes"/>
      <point x="456.93333333333334" y="973.0" type="line"/>
      <point x="456.93333333333334" y="498.5" type="line"/>
      <point x="609.5666666666667" y="498.5" type="line" smooth="yes"/>
      <point x="723.1666666666666" y="498.5"/>
      <point x="801.6" y="626.2333333333333"/>
      <point x="801.6" y="740.8333333333334" type="qcurve" smooth="yes"/>
      <point x="801.6" y="855.5"/>
      <point x="723.1666666666666" y="971.9333333333333"/>
    </contour>
  </outline>
</glyph>
<glyph name="germandbls" format="2">
  <advance width="1385"/>
  <unicode hex="00DF"/>
  <outline>
    <contour>
      <point x="416.1666666666667" y="1092.0" type="qcurve" name="hr00"/>
      <point x="416.1666666666667" y="0.0" type="line"/>
      <point x="130.0" y="0.0" type="line"/>
      <point x="130.0" y="1092.0" type="line" smooth="yes"/>
      <point x="130.0" y="1300.0"/>
      <point x="379.5" y="1534.0"/>
      <point x="614.5" y="1534.0" type="qcurve" smooth="yes"/>
      <point x="818.5" y="1534.0"/>
      <point x="1027.6666666666667" y="1365.0"/>
      <point x="1027.6666666666667" y="1215.0" type="qcurve" smooth="yes"/>
      <point x="1027.6666666666667" y="1140.5"/>
      <point x="988.8333333333334" y="1026.0"/>
      <point x="942.8333333333334" y="969.5" type="qcurve" smooth="yes"/>
      <point x="912.3333333333334" y="932.0"/>
      <point x="873.1666666666666" y="867.0"/>
      <point x="873.1666666666666" y="837.0" type="qcurve" smooth="yes"/>
      <point x="873.1666666666666" y="797.0"/>
      <point x="952.1666666666666" y="718.0"/>
      <point x="1083.6666666666667" y="656.0" type="qcurve" smooth="yes"/>
      <point x="1217.1666666666667" y="594.5"/>
      <point x="1333.3333333333333" y="440.5"/>
      <point x="1333.3333333333333" y="310.0" type="qcurve" smooth="yes"/>
      <point x="1333.3333333333333" y="134.1"/>
      <point x="1131.4333333333334" y="-25.0"/>
      <point x="924.0" y="-25.0" type="qcurve" smooth="yes"/>
      <point x="728.1" y="-25.0"/>
      <point x="522.1666666666666" y="146.33333333333334"/>
      <point x="522.1666666666666" y="308.0" type="qcurve" smooth="yes"/>
      <point x="522.1666666666666" y="329.5" type="line"/>
      <point x="802.6666666666666" y="328.5" type="line"/>
      <point x="802.6666666666666" y="310.5" type="line" smooth="yes"/>
      <point x="802.6666666666666" y="245.33333333333334"/>
      <point x="864.7" y="178.0"/>
      <point x="924.0" y="178.0" type="qcurve" smooth="yes"/>
      <point x="984.6666666666666" y="178.0"/>
      <point x="1042.8333333333333" y="245.13333333333333"/>
      <point x="1042.8333333333333" y="304.0" type="qcurve" smooth="yes"/>
      <point x="1042.8333333333333" y="358.5"/>
      <point x="969.1666666666666" y="424.0"/>
      <point x="855.6666666666666" y="475.0" type="qcurve" smooth="yes"/>
      <point x="719.6666666666666" y="536.5"/>
      <point x="584.0" y="690.0"/>
      <point x="584.0" y="786.0" type="qcurve" smooth="yes"/>
      <point x="584.0" y="849.0"/>
      <point x="644.3333333333334" y="965.5"/>
      <point x="699.8333333333334" y="1044.0" type="qcurve" smooth="yes"/>
      <point x="724.8333333333334" y="1079.0"/>
      <point x="741.1666666666666" y="1143.5"/>
      <point x="741.1666666666666" y="1182.0" type="qcurve" smooth="yes"/>
      <point x="741.1666666666666" y="1255.0"/>
      <point x="678.5" y="1330.5"/>
      <point x="610.5" y="1330.5" type="qcurve" smooth="yes"/>
      <point x="520.5" y="1330.5"/>
      <point x="416.1666666666667" y="1211.5"/>
    </contour>
  </outline>
</glyph>
<glyph name="ae" format="2">
  <advance width="1553"/>
  <unicode hex="00E6"/>
  <outline>
    <contour>
      <point x="366.4666666666667" y="324.2" type="qcurve" smooth="yes"/>
      <point x="366.4666666666667" y="248.3"/>
      <point x="423.0" y="177.73333333333335"/>
      <point x="477.43333333333334" y="177.73333333333335" type="qcurve" smooth="yes"/>
      <point x="543.7" y="177.73333333333335"/>
      <point x="629.8666666666667" y="261.5333333333333"/>
      <point x="629.8666666666667" y="361.6" type="qcurve" smooth="yes"/>
      <point x="629.8666666666667" y="481.6333333333333" type="line"/>
      <point x="523.4" y="481.6333333333333" type="line" smooth="yes"/>
      <point x="444.5333333333333" y="481.6333333333333"/>
      <point x="366.4666666666667" y="416.53333333333336"/>
    </contour>
    <contour>
      <point x="77.0" y="314.03333333333336" type="qcurve" smooth="yes"/>
      <point x="77.0" y="490.7"/>
      <point x="298.3" y="657.3666666666667"/>
      <point x="485.6" y="657.3666666666667" type="qcurve" smooth="yes"/>
      <point x="629.8666666666667" y="657.3666666666667" type="line"/>
      <point x="629.8666666666667" y="724.0" type="line" smooth="yes"/>
      <point x="629.8666666666667" y="796.6333333333333"/>
      <point x="582.4666666666667" y="886.7666666666667"/>
      <point x="520.9" y="886.7666666666667" type="qcurve" smooth="yes"/>
      <point x="459.3333333333333" y="886.7666666666667"/>
      <point x="407.93333333333334" y="812.1333333333333"/>
      <point x="407.93333333333334" y="757.5" type="qcurve" smooth="yes"/>
      <point x="407.93333333333334" y="742.0" type="line"/>
      <point x="123.46666666666667" y="742.0" type="line"/>
      <point x="123.46666666666667" y="757.5" type="line" smooth="yes"/>
      <point x="123.46666666666667" y="910.1666666666666"/>
      <point x="352.76666666666665" y="1085.0"/>
      <point x="531.8333333333334" y="1085.0" type="qcurve" smooth="yes"/>
      <point x="598.9333333333334" y="1085.0"/>
      <point x="742.5666666666666" y="1076.3"/>
      <point x="810.6333333333333" y="1020.6" type="qcurve"/>
      <point x="889.3333333333334" y="1070.4666666666667"/>
      <point x="1028.2333333333333" y="1085.5"/>
      <point x="1082.8" y="1085.5" type="qcurve" smooth="yes"/>
      <point x="1279.1666666666667" y="1085.5"/>
      <point x="1505.9" y="828.3333333333334"/>
      <point x="1505.9" y="561.5" type="qcurve" smooth="yes"/>
      <point x="1505.9" y="457.1333333333333" type="line"/>
      <point x="820.4666666666667" y="457.1333333333333" type="line"/>
      <point x="820.4666666666667" y="642.8666666666667" type="line"/>
      <point x="1219.9333333333334" y="642.8666666666667" type="line"/>
      <point x="1219.3666666666668" y="659.1666666666666" type="line" smooth="yes"/>
      <point x="1219.9333333333334" y="753.6333333333333"/>
      <point x="1156.4666666666667" y="875.2666666666667"/>
      <point x="1080.0" y="875.2666666666667" type="qcurve" smooth="yes"/>
      <point x="1001.7333333333333" y="875.2666666666667"/>
      <point x="917.7333333333333" y="759.9666666666667"/>
      <point x="917.7333333333333" y="592.0" type="qcurve" smooth="yes"/>
      <point x="917.7333333333333" y="464.5" type="line" smooth="yes"/>
      <point x="917.7333333333333" y="308.56666666666666"/>
      <point x="1001.1333333333333" y="185.23333333333335"/>
      <point x="1086.8666666666668" y="185.23333333333335" type="qcurve" smooth="yes"/>
      <point x="1159.6333333333332" y="185.23333333333335"/>
      <point x="1249.5" y="269.23333333333335"/>
      <point x="1280.5333333333333" y="322.6666666666667" type="qcurve"/>
      <point x="1500.7666666666667" y="202.23333333333335" type="line"/>
      <point x="1452.9" y="86.46666666666667"/>
      <point x="1240.0" y="-30.5"/>
      <point x="1103.0333333333333" y="-30.5" type="qcurve" smooth="yes"/>
      <point x="988.6333333333333" y="-30.5"/>
      <point x="818.1" y="44.53333333333333"/>
      <point x="753.6666666666666" y="109.53333333333333" type="qcurve"/>
      <point x="689.8" y="47.766666666666666"/>
      <point x="516.1" y="-19.5"/>
      <point x="413.4666666666667" y="-19.5" type="qcurve" smooth="yes"/>
      <point x="252.86666666666667" y="-19.5"/>
      <point x="77.0" y="133.26666666666665"/>
    </contour>
  </outline>
</glyph>
<glyph name="eth" format="2">
  <advance width="1098"/>
  <unicode hex="00F0"/>
  <outline>
    <contour>
      <point x="192.2" y="1397.5333333333333" type="qcurve"/>
      <point x="267.5" y="1598.5" type="line"/>
      <point x="626.6666666666666" y="1522.2666666666667"/>
      <point x="1025.3333333333333" y="1003.7333333333333"/>
      <point x="1025.3333333333333" y="633.0" type="qcurve"/>
      <point x="1025.3333333333333" y="535.0" type="line"/>
      <point x="1025.3333333333333" y="291.0"/>
      <point x="793.6666666666666" y="-20.0"/>
      <point x="551.1666666666666" y="-20.0" type="qcurve" smooth="yes"/>
      <point x="318.1666666666667" y="-20.0"/>
      <point x="73.0" y="260.0"/>
      <point x="73.0" y="468.0" type="qcurve" smooth="yes"/>
      <point x="73.0" y="710.5"/>
      <point x="288.6666666666667" y="988.0"/>
      <point x="507.1666666666667" y="988.0" type="qcurve" smooth="yes"/>
      <point x="669.6666666666666" y="988.0"/>
      <point x="805.3333333333334" y="773.5"/>
      <point x="805.3333333333334" y="613.0" type="qcurve"/>
      <point x="737.3333333333334" y="577.0" type="line"/>
      <point x="737.3333333333334" y="678.8666666666667"/>
      <point x="631.5" y="767.7666666666667"/>
      <point x="561.1666666666666" y="767.7666666666667" type="qcurve" smooth="yes"/>
      <point x="438.1666666666667" y="767.7666666666667"/>
      <point x="368.6666666666667" y="617.5"/>
      <point x="368.6666666666667" y="471.5" type="qcurve" smooth="yes"/>
      <point x="368.6666666666667" y="354.0"/>
      <point x="438.6666666666667" y="185.56666666666666"/>
      <point x="555.1666666666666" y="185.56666666666666" type="qcurve" smooth="yes"/>
      <point x="660.1666666666666" y="185.56666666666666"/>
      <point x="731.1666666666666" y="374.5"/>
      <point x="731.1666666666666" y="515.0" type="qcurve" smooth="yes"/>
      <point x="731.1666666666666" y="635.0" type="line" smooth="yes"/>
      <point x="731.1666666666666" y="925.7333333333333"/>
      <point x="464.8333333333333" y="1326.4666666666667"/>
    </contour>
    <contour>
      <point x="933.3333333333334" y="1427.0" type="line"/>
      <point x="390.5" y="1039.0" type="line"/>
      <point x="307.5" y="1159.0" type="line"/>
      <point x="850.3333333333334" y="1546.0" type="line"/>
    </contour>
  </outline>
</glyph>
<glyph name="divide" format="2">
  <advance width="917"/>
  <unicode hex="00F7"/>
  <outline>
    <contour>
      <point x="332.6666666666667" y="1065.0" type="qcurve" smooth="yes"/>
      <point x="332.6666666666667" y="1118.0"/>
      <point x="395.6666666666667" y="1188.0"/>
      <point x="457.6666666666667" y="1188.0" type="qcurve" smooth="yes"/>
      <point x="518.6666666666666" y="1188.0"/>
      <point x="583.6666666666666" y="1118.0"/>
      <point x="583.6666666666666" y="1065.0" type="qcurve" smooth="yes"/>
      <point x="583.6666666666666" y="1014.0"/>
      <point x="518.6666666666666" y="945.0"/>
      <point x="457.6666666666667" y="945.0" type="qcurve" smooth="yes"/>
      <point x="395.6666666666667" y="945.0"/>
      <point x="332.6666666666667" y="1014.0"/>
    </contour>
    <contour>
      <point x="332.6666666666667" y="288.0" type="qcurve" smooth="yes"/>
      <point x="332.6666666666667" y="340.0"/>
      <point x="395.6666666666667" y="411.0"/>
      <point x="457.6666666666667" y="411.0" type="qcurve" smooth="yes"/>
      <point x="518.6666666666666" y="411.0"/>
      <point x="583.6666666666666" y="340.0"/>
      <point x="583.6666666666666" y="288.0" type="qcurve" smooth="yes"/>
      <point x="583.6666666666666" y="237.0"/>
      <point x="518.6666666666666" y="167.0"/>
      <point x="457.6666666666667" y="167.0" type="qcurve" smooth="yes"/>
      <point x="395.6666666666667" y="167.0"/>
      <point x="332.6666666666667" y="237.0"/>
    </contour>
    <contour>
      <point x="57.0" y="588.0" type="line"/>
      <point x="57.0" y="768.0" type="line"/>
      <point x="860.3333333333334" y="768.0" type="line"/>
      <point x="860.3333333333334" y="588.0" type="line"/>
    </contour>
  </outline>
</glyph>
<glyph name="thorn" format="2">
  <advance width="1092"/>
  <unicode hex="00FE"/>
  <outline>
    <contour>
      <point x="130.0" y="-416.0" type="line"/>
      <point x="130.0" y="1536.0" type="line"/>
      <point x="402.43333333333334" y="1536.0" type="line"/>
      <point x="402.43333333333334" y="944.6333333333333" type="line"/>
      <point x="430.8333333333333" y="999.8"/>
      <point x="568.0666666666667" y="1076.0"/>
      <point x="645.2333333333333" y="1076.0" type="qcurve" smooth="yes"/>
      <point x="813.5333333333333" y="1076.0"/>
      <point x="1019.3" y="786.5"/>
      <point x="1019.3" y="544.0" type="qcurve" smooth="yes"/>
      <point x="1019.3" y="512.0" type="line" smooth="yes"/>
      <point x="1019.3" y="270.5"/>
      <point x="818.0333333333333" y="-20.0"/>
      <point x="654.7333333333333" y="-20.0" type="qcurve" smooth="yes"/>
      <point x="578.0666666666667" y="-20.0"/>
      <point x="445.6" y="30.066666666666666"/>
      <point x="412.23333333333335" y="86.0" type="qcurve"/>
      <point x="411.5" y="86.0" type="line"/>
      <point x="416.0333333333333" y="-416.0" type="line"/>
    </contour>
    <contour>
      <point x="418.4666666666667" y="312.6" type="line"/>
      <point x="429.73333333333335" y="279.2"/>
      <point x="507.8333333333333" y="200.23333333333335"/>
      <point x="573.0333333333333" y="200.23333333333335" type="qcurve" smooth="yes"/>
      <point x="645.1333333333333" y="200.23333333333335"/>
      <point x="724.3333333333334" y="322.8666666666667"/>
      <point x="724.3333333333334" y="463.5" type="qcurve" smooth="yes"/>
      <point x="724.3333333333334" y="592.0" type="line" smooth="yes"/>
      <point x="724.3333333333334" y="732.6333333333333"/>
      <point x="648.3333333333334" y="855.2666666666667"/>
      <point x="576.8666666666667" y="855.2666666666667" type="qcurve" smooth="yes"/>
      <point x="515.6333333333333" y="855.2666666666667"/>
      <point x="435.43333333333334" y="785.2"/>
      <point x="418.4666666666667" y="745.2666666666667" type="qcurve"/>
    </contour>
  </outline>
</glyph>
<glyph name="kgreenlandic" format="2">
  <advance width="1002"/>
  <unicode hex="0138"/>
  <outline>
    <contour>
      <point x="424.6666666666667" y="1050.0" type="line"/>
      <point x="424.6666666666667" y="0.0" type="line"/>
      <point x="133.5" y="0.0" type="line"/>
      <point x="133.5" y="1050.0" type="line"/>
    </contour>
    <contour>
      <point x="975.6" y="1038.5" type="line"/>
      <point x="633.6" y="421.26666666666665" type="line"/>
      <point x="250.0" y="421.26666666666665" type="line"/>
      <point x="250.0" y="664.7333333333333" type="line"/>
      <point x="492.0" y="664.7333333333333" type="line"/>
      <point x="664.2666666666667" y="1038.5" type="line"/>
    </contour>
    <contour>
      <point x="703.3333333333333" y="0.0" type="line"/>
      <point x="445.0" y="495.0" type="line"/>
      <point x="634.6" y="709.0" type="line"/>
      <point x="1054.9333333333334" y="0.0" type="line"/>
    </contour>
  </outline>
</glyph>
<glyph name="OE" format="2">
  <advance width="1760"/>
  <unicode hex="0152"/>
  <outline>
    <contour>
      <point x="668.3333333333334" y="1481.0" type="qcurve" smooth="yes"/>
      <point x="713.8333333333334" y="1481.0"/>
      <point x="884.3333333333334" y="1466.0"/>
      <point x="955.3333333333334" y="1456.0" type="qcurve"/>
      <point x="1684.6" y="1456.0" type="line"/>
      <point x="1684.6" y="1228.3333333333333" type="line"/>
      <point x="1138.7333333333333" y="1228.3333333333333" type="line"/>
      <point x="1138.7333333333333" y="861.8666666666667" type="line"/>
      <point x="1593.6" y="861.8666666666667" type="line"/>
      <point x="1593.6" y="636.0666666666667" type="line"/>
      <point x="1138.7333333333333" y="636.0666666666667" type="line"/>
      <point x="1138.7333333333333" y="227.23333333333335" type="line"/>
      <point x="1695.1" y="227.23333333333335" type="line"/>
      <point x="1695.1" y="0.0" type="line"/>
      <point x="956.8333333333334" y="0.0" type="line"/>
      <point x="885.8333333333334" y="-9.5"/>
      <point x="715.3333333333334" y="-25.0"/>
      <point x="647.8333333333334" y="-25.0" type="qcurve" smooth="yes"/>
      <point x="388.3333333333333" y="-25.0"/>
      <point x="99.5" y="331.5"/>
      <point x="99.5" y="682.5" type="qcurve" smooth="yes"/>
      <point x="99.5" y="772.5" type="line" smooth="yes"/>
      <point x="99.5" y="1119.0"/>
      <point x="386.8333333333333" y="1481.0"/>
    </contour>
    <contour>
      <point x="403.8333333333333" y="654.5" type="line" smooth="yes"/>
      <point x="403.8333333333333" y="424.0"/>
      <point x="523.8333333333334" y="203.0"/>
      <point x="669.3333333333334" y="203.0" type="qcurve" smooth="yes"/>
      <point x="709.3333333333334" y="203.0"/>
      <point x="800.3333333333334" y="211.0"/>
      <point x="843.3333333333334" y="217.5" type="qcurve"/>
      <point x="843.3333333333334" y="1235.5" type="line"/>
      <point x="793.3333333333334" y="1243.0"/>
      <point x="695.8333333333334" y="1251.0"/>
      <point x="670.3333333333334" y="1251.0" type="qcurve" smooth="yes"/>
      <point x="522.3333333333334" y="1251.0"/>
      <point x="403.8333333333333" y="1028.0"/>
      <point x="403.8333333333333" y="801.0" type="qcurve" smooth="yes"/>
    </contour>
  </outline>
</glyph>
